<svg xmlns="http://www.w3.org/2000/svg" xmlns:xlink="http://www.w3.org/1999/xlink" width="125.873" height="65.256" viewBox="0 0 125.873 65.256">
  <defs>
    <clipPath id="clip-path">
      <rect id="Rectangle_1" data-name="Rectangle 1" width="125.873" height="65.256" fill="none"/>
    </clipPath>
  </defs>
  <g id="lead-logo" clip-path="url(#clip-path)">
    <path id="Path_1" data-name="Path 1" d="M7.6,165.752l-.309,2.883H0v-.224H.272a1.137,1.137,0,0,0,.576-.127.552.552,0,0,0,.242-.291,2.5,2.5,0,0,0,.067-.763v-5.4a2.707,2.707,0,0,0-.067-.788.605.605,0,0,0-.27-.275,1.085,1.085,0,0,0-.548-.118H0v-.224H4.379v.224H4.021a1.138,1.138,0,0,0-.576.127.582.582,0,0,0-.248.291,2.49,2.49,0,0,0-.067.763v5.233a2.65,2.65,0,0,0,.073.8.484.484,0,0,0,.285.257,2.868,2.868,0,0,0,.733.055h.685a2.319,2.319,0,0,0,1.09-.23,2.037,2.037,0,0,0,.754-.727,5.9,5.9,0,0,0,.6-1.466Z" transform="translate(0 -103.567)" fill="#324d22"/>
    <path id="Path_2" data-name="Path 2" d="M25.758,160.894v3.343h.163a1.3,1.3,0,0,0,1.132-.491A3.025,3.025,0,0,0,27.5,162.3h.23v4.3H27.5a3.233,3.233,0,0,0-.306-1.151,1.323,1.323,0,0,0-.542-.6,2.061,2.061,0,0,0-.9-.154v2.313a3.325,3.325,0,0,0,.057.83.5.5,0,0,0,.215.248,1.008,1.008,0,0,0,.509.1h.491a2.647,2.647,0,0,0,2.841-2.156h.224l-.37,2.61h-7.1v-.224H22.9a1.138,1.138,0,0,0,.575-.127.553.553,0,0,0,.242-.291,2.5,2.5,0,0,0,.067-.763v-5.4a4.368,4.368,0,0,0-.03-.685.58.58,0,0,0-.224-.327,1.042,1.042,0,0,0-.63-.169h-.273v-.224H29.5v2.429h-.23a2.971,2.971,0,0,0-.493-1.278,1.839,1.839,0,0,0-.9-.569,4.865,4.865,0,0,0-1.271-.109Z" transform="translate(-14.607 -103.567)" fill="#324d22"/>
    <path id="Path_3" data-name="Path 3" d="M49.836,165.988h-2.9l-.345.8a1.779,1.779,0,0,0-.17.66.547.547,0,0,0,.279.509,2.33,2.33,0,0,0,.806.146v.224H44.773V168.1a1.222,1.222,0,0,0,.727-.366,4.858,4.858,0,0,0,.7-1.239l2.937-6.553h.115l2.962,6.735a4.094,4.094,0,0,0,.7,1.205.949.949,0,0,0,.581.218v.224H49.521V168.1h.164a1.247,1.247,0,0,0,.672-.133.326.326,0,0,0,.133-.279.732.732,0,0,0-.037-.224q-.012-.055-.181-.455Zm-.206-.448-1.223-2.828-1.26,2.828Z" transform="translate(-28.905 -103.258)" fill="#324d22"/>
    <path id="Path_4" data-name="Path 4" d="M69.468,168.635v-.224h.273a1.094,1.094,0,0,0,.548-.112.684.684,0,0,0,.281-.306,2.861,2.861,0,0,0,.055-.763v-5.4a2.706,2.706,0,0,0-.067-.787.607.607,0,0,0-.27-.276,1.088,1.088,0,0,0-.548-.118h-.273v-.224h3.676a5.883,5.883,0,0,1,2.368.4,3.5,3.5,0,0,1,1.663,1.484,4.732,4.732,0,0,1,.288,3.843,3.675,3.675,0,0,1-.721,1.205,3.529,3.529,0,0,1-1.02.763,5.452,5.452,0,0,1-1.414.445,6.64,6.64,0,0,1-1.163.073Zm3.131-7.746V167.3a2.259,2.259,0,0,0,.049.624.343.343,0,0,0,.164.175.983.983,0,0,0,.472.091,1.835,1.835,0,0,0,1.545-.69,4.7,4.7,0,0,0,.727-2.9,5.451,5.451,0,0,0-.5-2.526,2.116,2.116,0,0,0-1.011-1.006,3.925,3.925,0,0,0-1.448-.181" transform="translate(-44.848 -103.567)" fill="#324d22"/>
    <path id="Path_5" data-name="Path 5" d="M106.487,168.411v.224h-4.294v-.224h.273a1.136,1.136,0,0,0,.575-.127.553.553,0,0,0,.242-.291,2.5,2.5,0,0,0,.066-.763v-5.4a2.712,2.712,0,0,0-.066-.788.6.6,0,0,0-.269-.275,1.087,1.087,0,0,0-.548-.118h-.273v-.224h4.294v.224h-.273a1.138,1.138,0,0,0-.575.127.582.582,0,0,0-.248.291,2.5,2.5,0,0,0-.066.763v5.4a2.593,2.593,0,0,0,.069.787.623.623,0,0,0,.273.275,1.084,1.084,0,0,0,.548.118Z" transform="translate(-65.975 -103.567)" fill="#324d22"/>
    <path id="Path_6" data-name="Path 6" d="M117.751,160.422l4.052,5.094v-3.531a1.671,1.671,0,0,0-.212-1,1.171,1.171,0,0,0-.975-.339v-.224h2.713v.224a2.07,2.07,0,0,0-.7.172.7.7,0,0,0-.279.346,2.361,2.361,0,0,0-.1.82v6.838h-.206l-5.554-6.838v5.221a1.153,1.153,0,0,0,.324.957,1.186,1.186,0,0,0,.742.248h.194v.224h-2.913v-.224a1.318,1.318,0,0,0,.945-.278,1.305,1.305,0,0,0,.267-.927v-5.8l-.175-.218a1.6,1.6,0,0,0-.46-.43,1.388,1.388,0,0,0-.576-.115v-.224Z" transform="translate(-74.138 -103.567)" fill="#324d22"/>
    <path id="Path_7" data-name="Path 7" d="M145.212,165.837l2.229-5.415h3.344v.224h-.267a1.151,1.151,0,0,0-.582.127.59.59,0,0,0-.242.285,2.457,2.457,0,0,0-.066.757v5.415a2.694,2.694,0,0,0,.066.787.6.6,0,0,0,.273.276,1.1,1.1,0,0,0,.551.118h.267v.224H146.5v-.224h.267a1.148,1.148,0,0,0,.582-.127.593.593,0,0,0,.242-.291,2.5,2.5,0,0,0,.067-.763v-6.087l-3.15,7.493h-.145l-3.2-7.438v5.784a5.045,5.045,0,0,0,.03.745.86.86,0,0,0,.342.494,1.425,1.425,0,0,0,.827.191v.224h-2.81v-.224h.085a1.292,1.292,0,0,0,.509-.088.814.814,0,0,0,.357-.252,1.15,1.15,0,0,0,.188-.442q.012-.066.012-.618v-5.2a2.637,2.637,0,0,0-.067-.778.613.613,0,0,0-.273-.273,1.108,1.108,0,0,0-.551-.118h-.26v-.224H142.9Z" transform="translate(-90.091 -103.567)" fill="#324d22"/>
    <path id="Path_8" data-name="Path 8" d="M176.787,160.09a4.076,4.076,0,0,1,4.416,4.191,4.379,4.379,0,0,1-.914,2.75,4.066,4.066,0,0,1-3.422,1.575,4.152,4.152,0,0,1-3.428-1.5,4.346,4.346,0,0,1-.957-2.816,4.1,4.1,0,0,1,1.244-3.049,3.964,3.964,0,0,1,3.062-1.148m.073.388a1.851,1.851,0,0,0-1.714,1.15,6.152,6.152,0,0,0-.478,2.713,5.271,5.271,0,0,0,.739,3.107,1.685,1.685,0,0,0,1.442.7,1.729,1.729,0,0,0,1.042-.3,2.489,2.489,0,0,0,.83-1.239,6.886,6.886,0,0,0,.3-2.22,7.374,7.374,0,0,0-.3-2.438,2.375,2.375,0,0,0-.772-1.142,1.822,1.822,0,0,0-1.081-.333" transform="translate(-111.352 -103.35)" fill="#324d22"/>
    <path id="Path_9" data-name="Path 9" d="M203.559,164.28a4.2,4.2,0,0,1,1.642.66,1.758,1.758,0,0,1,.678,1.429,1.892,1.892,0,0,1-.745,1.532,4.171,4.171,0,0,1-2.659.733H198.3v-.224a1.875,1.875,0,0,0,.772-.106.617.617,0,0,0,.285-.275,2.5,2.5,0,0,0,.082-.836v-5.33a2.543,2.543,0,0,0-.082-.839.6.6,0,0,0-.287-.275,1.945,1.945,0,0,0-.769-.1v-.224h3.937a5.6,5.6,0,0,1,2,.251,2.087,2.087,0,0,1,.927.751,1.861,1.861,0,0,1,.339,1.063,1.509,1.509,0,0,1-.43,1.057,3.09,3.09,0,0,1-1.514.736m-2.2.309v2.635l-.006.3a.586.586,0,0,0,.66.66,1.891,1.891,0,0,0,.893-.215,1.47,1.47,0,0,0,.627-.624,1.9,1.9,0,0,0,.218-.911,2.013,2.013,0,0,0-.267-1.033,1.436,1.436,0,0,0-.733-.639,3.981,3.981,0,0,0-1.394-.176m0-.472a3.121,3.121,0,0,0,1.269-.194,1.444,1.444,0,0,0,.627-.545,1.957,1.957,0,0,0,0-1.79,1.367,1.367,0,0,0-.615-.53,3.268,3.268,0,0,0-1.284-.176Z" transform="translate(-128.022 -103.567)" fill="#324d22"/>
    <path id="Path_10" data-name="Path 10" d="M225.137,168.411v.224h-4.294v-.224h.272a1.137,1.137,0,0,0,.576-.127.553.553,0,0,0,.242-.291,2.5,2.5,0,0,0,.066-.763v-5.4a2.713,2.713,0,0,0-.066-.788.607.607,0,0,0-.27-.275,1.085,1.085,0,0,0-.548-.118h-.272v-.224h4.294v.224h-.273a1.138,1.138,0,0,0-.576.127.58.58,0,0,0-.248.291,2.486,2.486,0,0,0-.067.763v5.4a2.589,2.589,0,0,0,.069.787.623.623,0,0,0,.273.275,1.082,1.082,0,0,0,.548.118Z" transform="translate(-142.574 -103.567)" fill="#324d22"/>
    <path id="Path_11" data-name="Path 11" d="M241.243,165.752l-.309,2.883h-7.292v-.224h.272a1.136,1.136,0,0,0,.576-.127.553.553,0,0,0,.242-.291,2.5,2.5,0,0,0,.067-.763v-5.4a2.706,2.706,0,0,0-.067-.788.605.605,0,0,0-.27-.275,1.085,1.085,0,0,0-.548-.118h-.272v-.224h4.379v.224h-.358a1.138,1.138,0,0,0-.576.127.582.582,0,0,0-.248.291,2.491,2.491,0,0,0-.067.763v5.233a2.649,2.649,0,0,0,.073.8.483.483,0,0,0,.285.257,2.868,2.868,0,0,0,.733.055h.685a2.319,2.319,0,0,0,1.09-.23,2.037,2.037,0,0,0,.754-.727,5.91,5.91,0,0,0,.6-1.466Z" transform="translate(-150.837 -103.567)" fill="#324d22"/>
    <path id="Path_12" data-name="Path 12" d="M260.563,168.411v.224h-4.294v-.224h.272a1.137,1.137,0,0,0,.576-.127.553.553,0,0,0,.242-.291,2.5,2.5,0,0,0,.066-.763v-5.4a2.713,2.713,0,0,0-.066-.788.607.607,0,0,0-.27-.275,1.085,1.085,0,0,0-.548-.118h-.272v-.224h4.294v.224h-.273a1.138,1.138,0,0,0-.576.127.58.58,0,0,0-.248.291,2.485,2.485,0,0,0-.067.763v5.4a2.59,2.59,0,0,0,.069.787.623.623,0,0,0,.273.275,1.082,1.082,0,0,0,.548.118Z" transform="translate(-165.445 -103.567)" fill="#324d22"/>
    <path id="Path_13" data-name="Path 13" d="M273.754,165.988h-2.9l-.346.8a1.778,1.778,0,0,0-.17.66.547.547,0,0,0,.279.509,2.331,2.331,0,0,0,.805.146v.224h-2.731V168.1a1.222,1.222,0,0,0,.727-.366,4.869,4.869,0,0,0,.7-1.239l2.938-6.553h.115l2.962,6.735a4.088,4.088,0,0,0,.7,1.205.947.947,0,0,0,.581.218v.224h-3.973V168.1h.163a1.248,1.248,0,0,0,.673-.133.326.326,0,0,0,.133-.279.731.731,0,0,0-.036-.224q-.012-.055-.181-.455Zm-.206-.448-1.223-2.828-1.26,2.828Z" transform="translate(-173.464 -103.258)" fill="#324d22"/>
    <path id="Path_14" data-name="Path 14" d="M296.639,164.892v2.3a2.555,2.555,0,0,0,.082.839.6.6,0,0,0,.288.275,1.935,1.935,0,0,0,.769.1v.224h-4.2v-.224a1.881,1.881,0,0,0,.772-.106.618.618,0,0,0,.285-.275,2.521,2.521,0,0,0,.082-.836v-5.33a2.553,2.553,0,0,0-.082-.839.6.6,0,0,0-.288-.275,1.936,1.936,0,0,0-.769-.1v-.224h3.816a8.332,8.332,0,0,1,2.18.206,2.2,2.2,0,0,1,1.127.76,2.038,2.038,0,0,1,.436,1.3,1.941,1.941,0,0,1-.654,1.5,2.7,2.7,0,0,1-1.169.563l1.974,2.78a4.205,4.205,0,0,0,.551.673,1.026,1.026,0,0,0,.576.206v.224h-2.586l-2.647-3.743Zm0-4.028v3.6h.346a3.857,3.857,0,0,0,1.26-.154,1.256,1.256,0,0,0,.657-.557,2.04,2.04,0,0,0,.24-1.051,1.6,1.6,0,0,0-1.854-1.835Z" transform="translate(-189.529 -103.567)" fill="#324d22"/>
    <path id="Path_15" data-name="Path 15" d="M322.425,168.411v.224h-4.294v-.224h.272a1.137,1.137,0,0,0,.576-.127.553.553,0,0,0,.242-.291,2.5,2.5,0,0,0,.066-.763v-5.4a2.713,2.713,0,0,0-.066-.788.607.607,0,0,0-.27-.275,1.085,1.085,0,0,0-.548-.118h-.272v-.224h4.294v.224h-.273a1.138,1.138,0,0,0-.576.127.579.579,0,0,0-.248.291,2.485,2.485,0,0,0-.067.763v5.4a2.59,2.59,0,0,0,.069.787.623.623,0,0,0,.273.275,1.082,1.082,0,0,0,.548.118Z" transform="translate(-205.382 -103.567)" fill="#324d22"/>
    <path id="Path_16" data-name="Path 16" d="M335.617,165.988h-2.9l-.346.8a1.778,1.778,0,0,0-.17.66.547.547,0,0,0,.279.509,2.331,2.331,0,0,0,.805.146v.224h-2.731V168.1a1.222,1.222,0,0,0,.727-.366,4.869,4.869,0,0,0,.7-1.239l2.938-6.553h.115L338,166.678a4.087,4.087,0,0,0,.7,1.205.947.947,0,0,0,.581.218v.224H335.3V168.1h.163a1.248,1.248,0,0,0,.673-.133.325.325,0,0,0,.133-.279.731.731,0,0,0-.036-.224q-.012-.055-.181-.455Zm-.206-.448-1.223-2.828-1.26,2.828Z" transform="translate(-213.402 -103.258)" fill="#324d22"/>
    <path id="Path_17" data-name="Path 17" d="M149.729,25.163H135.163V17.325l1.977.823a.709.709,0,1,0,.545-1.308l-2.953-1.23h0l-9.694-4.037V5.347l2.526,1.1a.709.709,0,0,0,.567-1.3L124.67,3.641c-.021-.012-.039-.028-.062-.038L116.457.059a.707.707,0,0,0-.566,0L107.74,3.6c-.023.01-.04.027-.062.038l-3.457,1.508a.709.709,0,1,0,.567,1.3l2.526-1.1v5.445a4.763,4.763,0,0,0-3.891-2.286c-2.039,0-3.8,1.527-4.629,3.728a3.508,3.508,0,0,0-2.287-.893c-2.241,0-4.065,2.305-4.065,5.139,0,2.527,1.452,4.63,3.356,5.056v3.627H80.038a.709.709,0,1,0,0,1.418H96.512a43.987,43.987,0,0,0-8,3.465c-.135.074-.231.127-.284.153a.709.709,0,1,0,.634,1.268c.062-.031.174-.092.332-.179,7.091-3.891,12.492-4.708,15.775-4.708h4.54a65.129,65.129,0,0,0-12.684,5.846c-.231.134-.382.222-.445.253a.709.709,0,1,0,.634,1.268c.073-.037.251-.139.521-.294,10.105-5.847,16.366-7.074,19.839-7.074h2.616a52.091,52.091,0,0,0-15.506,8.78c-.291.228-.593.464-.678.518a.709.709,0,0,0,.651,1.259,6.99,6.99,0,0,0,.9-.66c8.141-6.366,15.647-9.7,22.31-9.9h2.369c-6.007,1.95-11.635,5.907-16.811,11.839-.254.291-.516.592-.611.679a.709.709,0,0,0,.7,1.229c.222-.111.4-.312.976-.976,7.393-8.475,15.7-12.772,24.7-12.772h.462c-6.56,2.441-12.285,8-16.826,16.44-.13.242-.254.471-.295.533a.709.709,0,1,0,1.179.786c.078-.117.186-.317.364-.647C129.9,32.5,138.027,26.58,147.376,26.58h2.353a.709.709,0,0,0,0-1.418m-15.983-8.428v8.428h-8.711V13.107Zm-16.495,8.074H114.77V20.733a1.24,1.24,0,0,1,2.481,0ZM116.174,1.482l7.443,3.246v20.08h-4.949V20.733a2.658,2.658,0,0,0-5.316,0v4.076h-4.62V4.728Zm-8.86,23.681h-3.182V21.549a4.955,4.955,0,0,0,3.182-2.216Zm-3.891-15.24c2.052,0,3.721,2.305,3.721,5.139,0,2.5-1.3,4.584-3.012,5.043V17.494a.709.709,0,0,0-1.418,0V20.1C101,19.646,99.7,17.561,99.7,15.062c0-2.834,1.669-5.139,3.721-5.139M93.859,16.48c0-2.052,1.188-3.721,2.647-3.721a2.326,2.326,0,0,1,1.868,1.1,8.282,8.282,0,0,0-.09,1.2,7.989,7.989,0,0,0,.595,3.054,3.13,3.13,0,0,1-1.664,1.946V17.494a.709.709,0,0,0-1.418,0v2.568a3.75,3.75,0,0,1-1.939-3.582m3.356,5.059a4.008,4.008,0,0,0,2.517-1.925,4.852,4.852,0,0,0,2.982,1.935v3.614h-5.5Z" transform="translate(-51.214 0)" fill="#334c22"/>
    <path id="Path_18" data-name="Path 18" d="M180.631,20.544H181.8a.3.3,0,0,0,.3-.3V17.3a.3.3,0,0,0-.3-.3h-1.169a.3.3,0,0,0-.3.3v2.941a.3.3,0,0,0,.3.3" transform="translate(-116.419 -10.975)" fill="#334c22"/>
    <path id="Path_19" data-name="Path 19" d="M218.631,56.19H219.8a.3.3,0,0,0,.3-.3V53.3a.3.3,0,0,0-.3-.3h-1.169a.3.3,0,0,0-.3.3v2.586a.3.3,0,0,0,.3.3" transform="translate(-140.951 -34.216)" fill="#334c22"/>
    <path id="Path_20" data-name="Path 20" d="M180.631,36.544H181.8a.3.3,0,0,0,.3-.3V33.3a.3.3,0,0,0-.3-.3h-1.169a.3.3,0,0,0-.3.3v2.941a.3.3,0,0,0,.3.3" transform="translate(-116.419 -21.304)" fill="#334c22"/>
  </g>
</svg>
