<svg width="25" height="25" viewBox="0 0 25 25" fill="none" xmlns="http://www.w3.org/2000/svg">
<path d="M25 12.1375C24.9804 14.2697 24.4102 16.3604 23.345 18.2055C22.2797 20.0506 20.7559 21.5872 18.9222 22.6651C17.0885 23.743 15.0076 24.3256 12.8826 24.3559C10.7575 24.3861 8.66095 23.8631 6.79749 22.8379L0 25L2.21753 18.4408C1.06059 16.5443 0.449667 14.3635 0.452515 12.14C0.498541 8.90441 1.81193 5.81701 4.1087 3.54528C6.40547 1.27354 9.50107 0 12.7263 0C15.9514 0 19.0471 1.27354 21.3439 3.54528C23.6406 5.81701 24.954 8.90441 25 12.14V12.1375ZM12.73 1.85346C10.0027 1.84612 7.38377 2.92493 5.44843 4.85306C3.51308 6.78119 2.41944 9.40105 2.40753 12.1375C2.40803 14.3027 3.09631 16.4113 4.3725 18.1574L3.08752 21.9625L7.05249 20.7083C8.38582 21.6079 9.91101 22.181 11.5053 22.3815C13.0996 22.582 14.7186 22.4043 16.2319 21.8626C17.7453 21.321 19.1108 20.4305 20.2187 19.2629C21.3266 18.0953 22.1459 16.6831 22.6107 15.1399C23.0755 13.5967 23.1728 11.9656 22.8948 10.3778C22.6169 8.79001 21.9714 7.28983 21.0103 5.99792C20.0492 4.70602 18.7993 3.65846 17.3611 2.93951C15.923 2.22056 14.3368 1.85028 12.73 1.85847V1.85346ZM18.9225 14.9442C18.85 14.8213 18.65 14.7461 18.3525 14.5856C18.055 14.425 16.57 13.7202 16.2875 13.6224C16.005 13.5245 15.8175 13.4719 15.6175 13.7704C15.4175 14.0688 14.8375 14.7486 14.665 14.9442C14.4925 15.1399 14.305 15.1675 14.0075 15.0195C13.1228 14.6664 12.3058 14.1623 11.5925 13.5296C10.9337 12.9278 10.3698 12.2293 9.91998 11.4577C9.73998 11.1542 9.89749 10.9937 10.0475 10.8457C10.1975 10.6977 10.35 10.492 10.5 10.319C10.6279 10.1697 10.7301 10.0002 10.8025 9.81729C10.8422 9.73343 10.8608 9.64103 10.8564 9.54827C10.8521 9.45551 10.825 9.36527 10.7775 9.28554C10.705 9.13755 10.0975 7.66518 9.85004 7.06569C9.60254 6.46621 9.34999 6.56403 9.17749 6.56403C9.00499 6.56403 8.80003 6.53895 8.59503 6.53895C8.44264 6.54273 8.29265 6.57811 8.15454 6.64286C8.01643 6.70761 7.8932 6.80033 7.79254 6.91519C7.45321 7.23445 7.1842 7.62145 7.00293 8.05129C6.82166 8.48113 6.73209 8.94429 6.73999 9.41095C6.73999 10.8833 7.81753 12.313 7.97003 12.5087C8.12253 12.7043 10.0475 15.8247 13.11 17.0236C16.1725 18.2226 16.1675 17.8288 16.7225 17.7761C17.2775 17.7234 18.505 17.0487 18.7525 16.3539C19 15.6591 18.9975 15.0772 18.9225 14.9543V14.9442Z" fill="#E6EFE0"/>
</svg>
