<svg xmlns="http://www.w3.org/2000/svg" xmlns:xlink="http://www.w3.org/1999/xlink" width="3780" zoomAndPan="magnify" viewBox="0 0 2835 1417.499962" height="1890" preserveAspectRatio="xMidYMid meet" version="1.0"><defs><g/><clipPath id="07c7201333"><path d="M 820 0.566406 L 1396 0.566406 L 1396 280 L 820 280 Z M 820 0.566406 " clip-rule="nonzero"/></clipPath><clipPath id="1cc5712897"><path d="M 534 0.566406 L 1109 0.566406 L 1109 281 L 534 281 Z M 534 0.566406 " clip-rule="nonzero"/></clipPath><clipPath id="6294fe996e"><path d="M 0.898438 1003 L 1913.984375 1003 L 1913.984375 1213.816406 L 0.898438 1213.816406 Z M 0.898438 1003 " clip-rule="nonzero"/></clipPath><clipPath id="8cab785bc4"><rect x="0" width="1914" y="0" height="211"/></clipPath><clipPath id="6284c17ba6"><path d="M 197.148438 96.875 L 473.761719 96.875 L 473.761719 443 L 197.148438 443 Z M 197.148438 96.875 " clip-rule="nonzero"/></clipPath><clipPath id="cf734d7f25"><path d="M 335.457031 96.875 C 259.070312 96.875 197.148438 174.351562 197.148438 269.925781 C 197.148438 365.5 259.070312 442.980469 335.457031 442.980469 C 411.839844 442.980469 473.761719 365.5 473.761719 269.925781 C 473.761719 174.351562 411.839844 96.875 335.457031 96.875 Z M 335.457031 96.875 " clip-rule="nonzero"/></clipPath><clipPath id="bd0dc2a03f"><path d="M 0.148438 0.875 L 276.761719 0.875 L 276.761719 347 L 0.148438 347 Z M 0.148438 0.875 " clip-rule="nonzero"/></clipPath><clipPath id="cd15529fd2"><path d="M 138.457031 0.875 C 62.070312 0.875 0.148438 78.351562 0.148438 173.925781 C 0.148438 269.5 62.070312 346.980469 138.457031 346.980469 C 214.839844 346.980469 276.761719 269.5 276.761719 173.925781 C 276.761719 78.351562 214.839844 0.875 138.457031 0.875 Z M 138.457031 0.875 " clip-rule="nonzero"/></clipPath><clipPath id="14e0563156"><rect x="0" width="277" y="0" height="347"/></clipPath><clipPath id="539f04d866"><path d="M 402.925781 0.574219 L 679.539062 0.574219 L 679.539062 357 L 402.925781 357 Z M 402.925781 0.574219 " clip-rule="nonzero"/></clipPath><clipPath id="c95c63e94e"><path d="M 541.234375 0.574219 C 464.847656 0.574219 402.925781 80.175781 402.925781 178.367188 C 402.925781 276.558594 464.847656 356.160156 541.234375 356.160156 C 617.617188 356.160156 679.539062 276.558594 679.539062 178.367188 C 679.539062 80.175781 617.617188 0.574219 541.234375 0.574219 Z M 541.234375 0.574219 " clip-rule="nonzero"/></clipPath><clipPath id="89d0a72f8d"><path d="M 0.925781 0.574219 L 277.539062 0.574219 L 277.539062 356.359375 L 0.925781 356.359375 Z M 0.925781 0.574219 " clip-rule="nonzero"/></clipPath><clipPath id="64d2d6963b"><path d="M 139.234375 0.574219 C 62.847656 0.574219 0.925781 80.175781 0.925781 178.367188 C 0.925781 276.558594 62.847656 356.160156 139.234375 356.160156 C 215.617188 356.160156 277.539062 276.558594 277.539062 178.367188 C 277.539062 80.175781 215.617188 0.574219 139.234375 0.574219 Z M 139.234375 0.574219 " clip-rule="nonzero"/></clipPath><clipPath id="787015be69"><rect x="0" width="278" y="0" height="357"/></clipPath><clipPath id="9048ff73af"><rect x="0" width="1914" y="0" height="1214"/></clipPath></defs><g transform="matrix(1, 0, 0, 1, 460, 99)"><g clip-path="url(#9048ff73af)"><path stroke-linecap="butt" transform="matrix(0.749829, 0.000000000000000156, -0.000000000000000156, 0.749829, 112.899832, 592.891299)" fill="none" stroke-linejoin="miter" d="M -0.0018596 15.997535 L 2183.078486 15.997535 " stroke="#6e8e00" stroke-width="32" stroke-opacity="1" stroke-miterlimit="4"/><path stroke-linecap="butt" transform="matrix(0, -0.749829, 0.749829, 0, 756.310521, 604.886132)" fill="none" stroke-linejoin="miter" d="M -0.000783 16.001073 L 677.507629 16.001073 " stroke="#6e8e00" stroke-width="32" stroke-opacity="1" stroke-miterlimit="4"/><path stroke-linecap="butt" transform="matrix(0, -0.749829, 0.749829, 0, 1136.405447, 604.886132)" fill="none" stroke-linejoin="miter" d="M -0.000783 15.999505 L 677.507629 15.999505 " stroke="#6e8e00" stroke-width="32" stroke-opacity="1" stroke-miterlimit="4"/><g clip-path="url(#07c7201333)"><path stroke-linecap="butt" transform="matrix(-0.694806, -0.281938, 0.281938, -0.694806, 1255.044071, 155.097073)" fill="none" stroke-linejoin="miter" d="M 0.000343263 15.999452 L 436.470803 16.000798 " stroke="#6e8e00" stroke-width="32" stroke-opacity="1" stroke-miterlimit="4"/></g><g clip-path="url(#1cc5712897)"><path stroke-linecap="butt" transform="matrix(-0.694111, 0.283644, -0.283644, -0.694111, 977.550435, 32.018532)" fill="none" stroke-linejoin="miter" d="M 0.00117184 15.998597 L 436.468596 15.999313 " stroke="#6e8e00" stroke-width="32" stroke-opacity="1" stroke-miterlimit="4"/></g><path stroke-linecap="butt" transform="matrix(0.687646, 0.298977, -0.298977, 0.687646, 1157.613125, 264.026436)" fill="none" stroke-linejoin="miter" d="M -0.00244081 15.998987 L 436.473197 15.999182 " stroke="#6e8e00" stroke-width="32" stroke-opacity="1" stroke-miterlimit="4"/><path stroke-linecap="butt" transform="matrix(0, 0.749829, -0.749829, 0, 1394.440388, 369.965203)" fill="none" stroke-linejoin="miter" d="M -0.000478555 16.002285 L 313.310435 16.002285 " stroke="#6e8e00" stroke-width="32" stroke-opacity="1" stroke-miterlimit="4"/><path stroke-linecap="butt" transform="matrix(0, 0.749829, -0.749829, 0, 1295.392148, 442.984891)" fill="none" stroke-linejoin="miter" d="M -0.000687756 32.999127 L 87.935999 32.999127 " stroke="#6e8e00" stroke-width="66" stroke-opacity="1" stroke-miterlimit="4"/><path stroke-linecap="butt" transform="matrix(0, 0.749829, -0.749829, 0, 983.096726, 285.591405)" fill="none" stroke-linejoin="miter" d="M -0.00208217 33.001065 L 87.934605 33.001065 " stroke="#6e8e00" stroke-width="66" stroke-opacity="1" stroke-miterlimit="4"/><path stroke-linecap="butt" transform="matrix(0, 0.749829, -0.749829, 0, 981.03319, 157.048406)" fill="none" stroke-linejoin="miter" d="M -0.00204131 32.999683 L 87.934646 32.999683 " stroke="#6e8e00" stroke-width="66" stroke-opacity="1" stroke-miterlimit="4"/><path stroke-linecap="butt" transform="matrix(0, 0.749829, -0.749829, 0, 927.378856, 470.973176)" fill="none" stroke-linejoin="miter" d="M -0.000693663 15.998367 L 174.580719 15.998367 " stroke="#6e8e00" stroke-width="32" stroke-opacity="1" stroke-miterlimit="4"/><path stroke-linecap="butt" transform="matrix(0, 0.749829, -0.749829, 0, 1015.32494, 470.973176)" fill="none" stroke-linejoin="miter" d="M -0.000693663 15.999396 L 174.580719 15.999396 " stroke="#6e8e00" stroke-width="32" stroke-opacity="1" stroke-miterlimit="4"/><path stroke-linecap="butt" transform="matrix(0.749829, 0.000000000000002376, -0.000000000000002376, 0.749829, 907.561343, 470.071622)" fill="none" stroke-linejoin="miter" d="M 0.0015425 16.001896 L 143.502963 16.001896 " stroke="#6e8e00" stroke-width="32" stroke-opacity="1" stroke-miterlimit="4"/><path stroke-linecap="butt" transform="matrix(0.621293, -0.419808, 0.419808, 0.621293, 1024.175322, 927.867359)" fill="none" stroke-linejoin="miter" d="M 9.983271 184.927163 C 291.971827 -40.311592 636.323455 -40.30694 1043.031037 184.923735 " stroke="#6e8e00" stroke-width="32" stroke-opacity="1" stroke-miterlimit="4"/><path stroke-linecap="butt" transform="matrix(0.628872, -0.408368, 0.408368, 0.628872, 823.997001, 881.595988)" fill="none" stroke-linejoin="miter" d="M 6.979857 119.560096 C 291.891376 -18.520358 576.801119 -18.519835 861.716294 119.560134 " stroke="#6e8e00" stroke-width="32" stroke-opacity="1" stroke-miterlimit="4"/><path stroke-linecap="butt" transform="matrix(0.663526, -0.349252, 0.349252, 0.663526, 632.337787, 807.186312)" fill="none" stroke-linejoin="miter" d="M 6.24973 96.131064 C 258.121454 -10.711319 509.993837 -10.708244 761.867123 96.128643 " stroke="#6e8e00" stroke-width="32" stroke-opacity="1" stroke-miterlimit="4"/><path stroke-linecap="butt" transform="matrix(0.686538, -0.301512, 0.301512, 0.686538, 467.92384, 746.756743)" fill="none" stroke-linejoin="miter" d="M 5.590293 75.29727 C 217.719704 -3.764138 429.847307 -3.766831 641.980549 75.298152 " stroke="#6e8e00" stroke-width="32" stroke-opacity="1" stroke-miterlimit="4"/><path stroke-linecap="butt" transform="matrix(0.7001, -0.268523, 0.268523, 0.7001, 294.163029, 685.638186)" fill="none" stroke-linejoin="miter" d="M 6.125978 63.750613 C 159.729595 0.082172 313.334761 0.0827223 466.941477 63.752263 " stroke="#6e8e00" stroke-width="32" stroke-opacity="1" stroke-miterlimit="4"/><g clip-path="url(#6294fe996e)"><g transform="matrix(1, 0, 0, 1, -0.000000000000113687, 1003)"><g clip-path="url(#8cab785bc4)"><g fill="#6e8e00" fill-opacity="1"><g transform="translate(2.715099, 169.618951)"><g><path d="M 107.53125 0 L 8.734375 0 L 8.734375 -6.421875 C 16.109375 -7.015625 20.789062 -7.960938 22.78125 -9.265625 C 24.769531 -10.578125 25.765625 -13.222656 25.765625 -17.203125 L 25.765625 -107.703125 C 25.765625 -111.859375 24.128906 -114.875 20.859375 -116.75 C 17.585938 -118.625 13.546875 -119.769531 8.734375 -120.1875 L 8.734375 -126.515625 L 62.046875 -126.515625 L 62.046875 -120.1875 C 54.554688 -119.59375 49.800781 -118.476562 47.78125 -116.84375 C 45.757812 -115.207031 44.75 -112.488281 44.75 -108.6875 L 44.75 -23.71875 C 44.75 -16.101562 45.816406 -11.40625 47.953125 -9.625 C 50.097656 -7.84375 55.898438 -6.953125 65.359375 -6.953125 C 71.773438 -6.953125 76.796875 -7.320312 80.421875 -8.0625 C 84.046875 -8.8125 86.585938 -9.765625 88.046875 -10.921875 C 89.503906 -12.078125 92.015625 -15.566406 95.578125 -21.390625 C 99.140625 -27.222656 101.90625 -32.632812 103.875 -37.625 L 110.28125 -37.625 Z M 107.53125 0 "/></g></g></g><g fill="#6e8e00" fill-opacity="1"><g transform="translate(112.981269, 169.618951)"><g><path d="M 112.6875 0 L 7.671875 0 L 7.671875 -6.421875 C 15.628906 -7.078125 20.632812 -8.101562 22.6875 -9.5 C 24.738281 -10.894531 25.765625 -13.460938 25.765625 -17.203125 L 25.765625 -108.0625 C 25.765625 -112.21875 24.175781 -115.15625 21 -116.875 C 17.820312 -118.601562 13.378906 -119.707031 7.671875 -120.1875 L 7.671875 -126.515625 L 105.5625 -126.515625 L 105.5625 -96.015625 L 98.96875 -96.015625 C 97.71875 -100.648438 95.351562 -105.164062 91.875 -109.5625 C 88.394531 -113.96875 85.40625 -116.703125 82.90625 -117.765625 C 80.414062 -118.835938 74.328125 -119.375 64.640625 -119.375 L 44.75 -119.375 L 44.75 -69.1875 L 59.015625 -69.1875 C 65.734375 -69.1875 70.578125 -70.6875 73.546875 -73.6875 C 76.523438 -76.6875 78.609375 -82.082031 79.796875 -89.875 L 86.390625 -89.875 L 86.390625 -40.390625 L 79.796875 -40.390625 C 79.492188 -43.359375 78.660156 -46.847656 77.296875 -50.859375 C 75.929688 -54.867188 73.984375 -57.707031 71.453125 -59.375 C 68.929688 -61.039062 64.785156 -61.875 59.015625 -61.875 L 44.75 -61.875 L 44.75 -23.890625 C 44.75 -16.640625 45.894531 -12.0625 48.1875 -10.15625 C 50.476562 -8.257812 56.5 -7.3125 66.25 -7.3125 L 74 -7.3125 C 82.320312 -7.3125 87.9375 -7.960938 90.84375 -9.265625 C 93.757812 -10.578125 96.96875 -14.175781 100.46875 -20.0625 C 103.976562 -25.945312 106.71875 -31.679688 108.6875 -37.265625 L 115.015625 -37.265625 Z M 112.6875 0 "/></g></g></g><g fill="#6e8e00" fill-opacity="1"><g transform="translate(232.161434, 169.618951)"><g><path d="M 73.90625 0 L 73.90625 -6.421875 C 84.789062 -7.078125 90.234375 -8.769531 90.234375 -11.5 C 90.234375 -12.8125 89.992188 -14.085938 89.515625 -15.328125 L 78.90625 -43.859375 L 34.5 -43.859375 C 28.675781 -28.765625 25.765625 -18.898438 25.765625 -14.265625 C 25.765625 -9.867188 31.859375 -7.253906 44.046875 -6.421875 L 44.046875 0 L -3.65625 0 L -3.65625 -6.421875 C 1.21875 -6.773438 5.140625 -7.914062 8.109375 -9.84375 C 11.085938 -11.78125 13.347656 -14.175781 14.890625 -17.03125 C 16.429688 -19.882812 21.957031 -33.523438 31.46875 -57.953125 L 58.75 -128.390625 L 65.890625 -128.390625 L 108.0625 -19.171875 C 111.09375 -11.265625 117.300781 -7.015625 126.6875 -6.421875 L 126.6875 0 Z M 56.609375 -100.75 L 37.796875 -51.71875 L 75.78125 -51.71875 Z M 56.609375 -100.75 "/></g></g></g><g fill="#6e8e00" fill-opacity="1"><g transform="translate(354.639745, 169.618951)"><g><path d="M 8.375 0 L 8.375 -6.421875 C 15.570312 -6.421875 20.269531 -7.25 22.46875 -8.90625 C 24.664062 -10.570312 25.765625 -13.191406 25.765625 -16.765625 L 25.765625 -108.0625 C 25.765625 -111.976562 24.5 -114.8125 21.96875 -116.5625 C 19.445312 -118.320312 15.15625 -119.53125 9.09375 -120.1875 L 9.09375 -126.515625 L 64.453125 -126.515625 C 82.285156 -126.515625 97.632812 -120.972656 110.5 -109.890625 C 123.375 -98.804688 129.8125 -82.976562 129.8125 -62.40625 C 129.8125 -43.144531 123.164062 -27.925781 109.875 -16.75 C 96.59375 -5.582031 80.238281 0 60.8125 0 Z M 44.75 -118.84375 L 44.75 -21.75 C 44.75 -16.34375 46.3125 -12.582031 49.4375 -10.46875 C 52.5625 -8.363281 57.390625 -7.3125 63.921875 -7.3125 C 78.304688 -7.3125 89.257812 -12.066406 96.78125 -21.578125 C 104.300781 -31.085938 108.0625 -44.757812 108.0625 -62.59375 C 108.0625 -79.351562 103.617188 -92.976562 94.734375 -103.46875 C 85.847656 -113.957031 74.179688 -119.203125 59.734375 -119.203125 C 53.554688 -119.203125 48.5625 -119.082031 44.75 -118.84375 Z M 44.75 -118.84375 "/></g></g></g><g fill="#6e8e00" fill-opacity="1"><g transform="translate(491.380449, 169.618951)"><g/></g></g><g fill="#6e8e00" fill-opacity="1"><g transform="translate(535.415592, 169.618951)"><g><path d="M 7.125 0 L 7.125 -6.421875 C 15.507812 -7.015625 20.769531 -7.875 22.90625 -9 C 25.050781 -10.132812 26.125 -12.660156 26.125 -16.578125 L 26.125 -108.234375 C 26.125 -112.210938 24.351562 -115.09375 20.8125 -116.875 C 17.28125 -118.664062 12.71875 -119.769531 7.125 -120.1875 L 7.125 -126.515625 L 64.109375 -126.515625 L 64.109375 -120.1875 C 56.078125 -119.59375 50.898438 -118.535156 48.578125 -117.015625 C 46.265625 -115.503906 45.109375 -112.90625 45.109375 -109.21875 L 45.109375 -17.75 C 45.109375 -14.65625 46.117188 -12.171875 48.140625 -10.296875 C 50.160156 -8.421875 55.484375 -7.128906 64.109375 -6.421875 L 64.109375 0 Z M 7.125 0 "/></g></g></g><g fill="#6e8e00" fill-opacity="1"><g transform="translate(606.638458, 169.618951)"><g><path d="M 138.546875 -120.1875 C 129.867188 -119.050781 124.265625 -117.144531 121.734375 -114.46875 C 119.210938 -111.800781 117.953125 -104.078125 117.953125 -91.296875 L 117.953125 1.25 L 110.28125 1.25 L 33.609375 -102.265625 L 33.609375 -37.09375 C 33.609375 -29.25 34.082031 -23.507812 35.03125 -19.875 C 35.988281 -16.25 37.132812 -13.769531 38.46875 -12.4375 C 39.8125 -11.101562 42.398438 -9.828125 46.234375 -8.609375 C 50.066406 -7.390625 53.410156 -6.660156 56.265625 -6.421875 L 56.265625 0 L 4.1875 0 L 4.1875 -6.421875 C 11.257812 -7.429688 16.503906 -9.035156 19.921875 -11.234375 C 23.335938 -13.429688 25.046875 -21.664062 25.046875 -35.9375 L 25.046875 -98.421875 C 25.046875 -110.734375 17.441406 -117.988281 2.234375 -120.1875 L 2.234375 -126.515625 L 38.15625 -126.515625 L 109.390625 -30.140625 L 109.390625 -90.234375 C 109.390625 -103.785156 107.710938 -111.878906 104.359375 -114.515625 C 101.003906 -117.160156 95.253906 -119.050781 87.109375 -120.1875 L 87.109375 -126.515625 L 138.546875 -126.515625 Z M 138.546875 -120.1875 "/></g></g></g><g fill="#6e8e00" fill-opacity="1"><g transform="translate(746.677377, 169.618951)"><g><path d="M 105.203125 0 L 105.203125 -6.421875 C 111.328125 -6.953125 115.367188 -7.394531 117.328125 -7.75 C 119.285156 -8.113281 121.035156 -9.210938 122.578125 -11.046875 C 124.128906 -12.890625 124.90625 -15.179688 124.90625 -17.921875 L 124.90625 -109.9375 L 123.390625 -109.9375 L 80.328125 -2.046875 L 75.96875 -2.046875 L 34.6875 -112.078125 L 33.609375 -112.078125 L 33.609375 -36.546875 C 33.609375 -28.828125 34.21875 -22.660156 35.4375 -18.046875 C 36.65625 -13.441406 39.757812 -10.394531 44.75 -8.90625 C 49.75 -7.425781 53.285156 -6.597656 55.359375 -6.421875 L 55.359375 0 L 4.1875 0 L 4.1875 -6.421875 C 13.34375 -7.191406 19.109375 -9.300781 21.484375 -12.75 C 23.859375 -16.195312 25.046875 -23.804688 25.046875 -35.578125 L 25.046875 -100.21875 C 25.046875 -112.8125 18.390625 -119.46875 5.078125 -120.1875 L 5.078125 -126.515625 L 48.234375 -126.515625 L 84.34375 -31.5625 L 115.375 -111 C 117.394531 -116.226562 118.789062 -121.398438 119.5625 -126.515625 L 160.84375 -126.515625 L 160.84375 -120.1875 C 153.644531 -119.59375 148.988281 -118.550781 146.875 -117.0625 C 144.769531 -115.570312 143.71875 -112.898438 143.71875 -109.046875 L 143.71875 -17.921875 C 143.71875 -14.117188 144.90625 -11.398438 147.28125 -9.765625 C 149.664062 -8.128906 154.242188 -7.015625 161.015625 -6.421875 L 161.015625 0 Z M 105.203125 0 "/></g></g></g><g fill="#6e8e00" fill-opacity="1"><g transform="translate(915.865027, 169.618951)"><g><path d="M 67.9375 3.125 C 50.519531 3.125 36.03125 -3.128906 24.46875 -15.640625 C 12.90625 -28.160156 7.125 -44.019531 7.125 -63.21875 C 7.125 -82.59375 12.992188 -98.472656 24.734375 -110.859375 C 36.472656 -123.253906 50.875 -129.453125 67.9375 -129.453125 C 85.289062 -129.453125 99.765625 -123.269531 111.359375 -110.90625 C 122.953125 -98.539062 128.75 -82.644531 128.75 -63.21875 C 128.75 -43.71875 122.878906 -27.785156 111.140625 -15.421875 C 99.398438 -3.054688 85 3.125 67.9375 3.125 Z M 67.9375 -121.609375 C 55.507812 -121.609375 45.863281 -116.363281 39 -105.875 C 32.132812 -95.382812 28.703125 -81.164062 28.703125 -63.21875 C 28.703125 -45.144531 32.148438 -30.90625 39.046875 -20.5 C 45.941406 -10.101562 55.570312 -4.90625 67.9375 -4.90625 C 80.414062 -4.90625 90.070312 -10.117188 96.90625 -20.546875 C 103.75 -30.984375 107.171875 -45.207031 107.171875 -63.21875 C 107.171875 -81.28125 103.722656 -95.523438 96.828125 -105.953125 C 89.929688 -116.390625 80.300781 -121.609375 67.9375 -121.609375 Z M 67.9375 -121.609375 "/></g></g></g><g fill="#6e8e00" fill-opacity="1"><g transform="translate(1051.714334, 169.618951)"><g><path d="M 8.375 0 L 8.375 -6.421875 C 15.507812 -6.953125 20.191406 -7.957031 22.421875 -9.4375 C 24.648438 -10.925781 25.765625 -13.515625 25.765625 -17.203125 L 25.765625 -108.0625 C 25.765625 -115.25 20.207031 -119.289062 9.09375 -120.1875 L 9.09375 -126.515625 L 67.578125 -126.515625 C 78.160156 -126.515625 86.910156 -124.117188 93.828125 -119.328125 C 100.753906 -114.546875 104.21875 -107.757812 104.21875 -98.96875 C 104.21875 -83.21875 94.265625 -72.992188 74.359375 -68.296875 L 74.359375 -67.578125 C 98.898438 -63.890625 111.171875 -52.804688 111.171875 -34.328125 C 111.171875 -23.984375 107.023438 -15.675781 98.734375 -9.40625 C 90.441406 -3.132812 80.351562 0 68.46875 0 Z M 44.75 -119.03125 L 44.75 -70.515625 L 56.078125 -70.515625 C 73.972656 -70.515625 82.921875 -79.40625 82.921875 -97.1875 C 82.921875 -111.976562 75.015625 -119.375 59.203125 -119.375 C 53.847656 -119.375 49.03125 -119.257812 44.75 -119.03125 Z M 44.75 -63.03125 L 44.75 -18.453125 C 44.75 -10.898438 50.457031 -7.125 61.875 -7.125 C 80.125 -7.125 89.25 -17.289062 89.25 -37.625 C 89.25 -45.46875 86.660156 -51.722656 81.484375 -56.390625 C 76.316406 -61.054688 69.242188 -63.390625 60.265625 -63.390625 C 53.316406 -63.390625 48.144531 -63.269531 44.75 -63.03125 Z M 44.75 -63.03125 "/></g></g></g><g fill="#6e8e00" fill-opacity="1"><g transform="translate(1171.07278, 169.618951)"><g><path d="M 7.125 0 L 7.125 -6.421875 C 15.507812 -7.015625 20.769531 -7.875 22.90625 -9 C 25.050781 -10.132812 26.125 -12.660156 26.125 -16.578125 L 26.125 -108.234375 C 26.125 -112.210938 24.351562 -115.09375 20.8125 -116.875 C 17.28125 -118.664062 12.71875 -119.769531 7.125 -120.1875 L 7.125 -126.515625 L 64.109375 -126.515625 L 64.109375 -120.1875 C 56.078125 -119.59375 50.898438 -118.535156 48.578125 -117.015625 C 46.265625 -115.503906 45.109375 -112.90625 45.109375 -109.21875 L 45.109375 -17.75 C 45.109375 -14.65625 46.117188 -12.171875 48.140625 -10.296875 C 50.160156 -8.421875 55.484375 -7.128906 64.109375 -6.421875 L 64.109375 0 Z M 7.125 0 "/></g></g></g><g fill="#6e8e00" fill-opacity="1"><g transform="translate(1242.295646, 169.618951)"><g><path d="M 107.53125 0 L 8.734375 0 L 8.734375 -6.421875 C 16.109375 -7.015625 20.789062 -7.960938 22.78125 -9.265625 C 24.769531 -10.578125 25.765625 -13.222656 25.765625 -17.203125 L 25.765625 -107.703125 C 25.765625 -111.859375 24.128906 -114.875 20.859375 -116.75 C 17.585938 -118.625 13.546875 -119.769531 8.734375 -120.1875 L 8.734375 -126.515625 L 62.046875 -126.515625 L 62.046875 -120.1875 C 54.554688 -119.59375 49.800781 -118.476562 47.78125 -116.84375 C 45.757812 -115.207031 44.75 -112.488281 44.75 -108.6875 L 44.75 -23.71875 C 44.75 -16.101562 45.816406 -11.40625 47.953125 -9.625 C 50.097656 -7.84375 55.898438 -6.953125 65.359375 -6.953125 C 71.773438 -6.953125 76.796875 -7.320312 80.421875 -8.0625 C 84.046875 -8.8125 86.585938 -9.765625 88.046875 -10.921875 C 89.503906 -12.078125 92.015625 -15.566406 95.578125 -21.390625 C 99.140625 -27.222656 101.90625 -32.632812 103.875 -37.625 L 110.28125 -37.625 Z M 107.53125 0 "/></g></g></g><g fill="#6e8e00" fill-opacity="1"><g transform="translate(1352.561886, 169.618951)"><g><path d="M 7.125 0 L 7.125 -6.421875 C 15.507812 -7.015625 20.769531 -7.875 22.90625 -9 C 25.050781 -10.132812 26.125 -12.660156 26.125 -16.578125 L 26.125 -108.234375 C 26.125 -112.210938 24.351562 -115.09375 20.8125 -116.875 C 17.28125 -118.664062 12.71875 -119.769531 7.125 -120.1875 L 7.125 -126.515625 L 64.109375 -126.515625 L 64.109375 -120.1875 C 56.078125 -119.59375 50.898438 -118.535156 48.578125 -117.015625 C 46.265625 -115.503906 45.109375 -112.90625 45.109375 -109.21875 L 45.109375 -17.75 C 45.109375 -14.65625 46.117188 -12.171875 48.140625 -10.296875 C 50.160156 -8.421875 55.484375 -7.128906 64.109375 -6.421875 L 64.109375 0 Z M 7.125 0 "/></g></g></g><g fill="#6e8e00" fill-opacity="1"><g transform="translate(1423.784752, 169.618951)"><g><path d="M 73.90625 0 L 73.90625 -6.421875 C 84.789062 -7.078125 90.234375 -8.769531 90.234375 -11.5 C 90.234375 -12.8125 89.992188 -14.085938 89.515625 -15.328125 L 78.90625 -43.859375 L 34.5 -43.859375 C 28.675781 -28.765625 25.765625 -18.898438 25.765625 -14.265625 C 25.765625 -9.867188 31.859375 -7.253906 44.046875 -6.421875 L 44.046875 0 L -3.65625 0 L -3.65625 -6.421875 C 1.21875 -6.773438 5.140625 -7.914062 8.109375 -9.84375 C 11.085938 -11.78125 13.347656 -14.175781 14.890625 -17.03125 C 16.429688 -19.882812 21.957031 -33.523438 31.46875 -57.953125 L 58.75 -128.390625 L 65.890625 -128.390625 L 108.0625 -19.171875 C 111.09375 -11.265625 117.300781 -7.015625 126.6875 -6.421875 L 126.6875 0 Z M 56.609375 -100.75 L 37.796875 -51.71875 L 75.78125 -51.71875 Z M 56.609375 -100.75 "/></g></g></g><g fill="#6e8e00" fill-opacity="1"><g transform="translate(1546.262994, 169.618951)"><g><path d="M 97.890625 0 C 84.878906 -20.507812 71.414062 -39.617188 57.5 -57.328125 L 44.75 -57.328125 L 44.75 -17.203125 C 44.75 -12.984375 45.742188 -10.296875 47.734375 -9.140625 C 49.734375 -7.984375 54.566406 -7.078125 62.234375 -6.421875 L 62.234375 0 L 8.734375 0 L 8.734375 -6.421875 C 16.109375 -7.015625 20.789062 -7.960938 22.78125 -9.265625 C 24.769531 -10.578125 25.765625 -13.222656 25.765625 -17.203125 L 25.765625 -108.6875 C 25.765625 -112.550781 24.691406 -115.285156 22.546875 -116.890625 C 20.410156 -118.492188 15.804688 -119.59375 8.734375 -120.1875 L 8.734375 -126.515625 L 67.21875 -126.515625 C 79.40625 -126.515625 89.078125 -123.882812 96.234375 -118.625 C 103.398438 -113.363281 106.984375 -105.945312 106.984375 -96.375 C 106.984375 -79.613281 96.703125 -68.234375 76.140625 -62.234375 C 80.359375 -56.878906 88.707031 -45.703125 101.1875 -28.703125 C 107.664062 -19.847656 111.78125 -14.722656 113.53125 -13.328125 C 115.289062 -11.929688 117.3125 -10.519531 119.59375 -9.09375 C 121.882812 -7.664062 126.035156 -6.773438 132.046875 -6.421875 L 132.046875 0 Z M 44.75 -119.203125 L 44.75 -65 L 56.4375 -65 C 65 -65 71.910156 -67.734375 77.171875 -73.203125 C 82.429688 -78.671875 85.0625 -85.742188 85.0625 -94.421875 C 85.0625 -102.265625 82.816406 -108.351562 78.328125 -112.6875 C 73.835938 -117.03125 67.695312 -119.203125 59.90625 -119.203125 Z M 44.75 -119.203125 "/></g></g></g><g fill="#6e8e00" fill-opacity="1"><g transform="translate(1674.446193, 169.618951)"><g><path d="M 7.125 0 L 7.125 -6.421875 C 15.507812 -7.015625 20.769531 -7.875 22.90625 -9 C 25.050781 -10.132812 26.125 -12.660156 26.125 -16.578125 L 26.125 -108.234375 C 26.125 -112.210938 24.351562 -115.09375 20.8125 -116.875 C 17.28125 -118.664062 12.71875 -119.769531 7.125 -120.1875 L 7.125 -126.515625 L 64.109375 -126.515625 L 64.109375 -120.1875 C 56.078125 -119.59375 50.898438 -118.535156 48.578125 -117.015625 C 46.265625 -115.503906 45.109375 -112.90625 45.109375 -109.21875 L 45.109375 -17.75 C 45.109375 -14.65625 46.117188 -12.171875 48.140625 -10.296875 C 50.160156 -8.421875 55.484375 -7.128906 64.109375 -6.421875 L 64.109375 0 Z M 7.125 0 "/></g></g></g><g fill="#6e8e00" fill-opacity="1"><g transform="translate(1745.66906, 169.618951)"><g><path d="M 73.90625 0 L 73.90625 -6.421875 C 84.789062 -7.078125 90.234375 -8.769531 90.234375 -11.5 C 90.234375 -12.8125 89.992188 -14.085938 89.515625 -15.328125 L 78.90625 -43.859375 L 34.5 -43.859375 C 28.675781 -28.765625 25.765625 -18.898438 25.765625 -14.265625 C 25.765625 -9.867188 31.859375 -7.253906 44.046875 -6.421875 L 44.046875 0 L -3.65625 0 L -3.65625 -6.421875 C 1.21875 -6.773438 5.140625 -7.914062 8.109375 -9.84375 C 11.085938 -11.78125 13.347656 -14.175781 14.890625 -17.03125 C 16.429688 -19.882812 21.957031 -33.523438 31.46875 -57.953125 L 58.75 -128.390625 L 65.890625 -128.390625 L 108.0625 -19.171875 C 111.09375 -11.265625 117.300781 -7.015625 126.6875 -6.421875 L 126.6875 0 Z M 56.609375 -100.75 L 37.796875 -51.71875 L 75.78125 -51.71875 Z M 56.609375 -100.75 "/></g></g></g><g fill="#6e8e00" fill-opacity="1"><g transform="translate(1868.202746, 169.618951)"><g/></g></g></g></g></g><g clip-path="url(#6284c17ba6)"><g clip-path="url(#cf734d7f25)"><g transform="matrix(1, 0, 0, 1, 197, 96)"><g clip-path="url(#14e0563156)"><g clip-path="url(#bd0dc2a03f)"><g clip-path="url(#cd15529fd2)"><path fill="#6e8e00" d="M 0.148438 0.875 L 276.761719 0.875 L 276.761719 346.640625 L 0.148438 346.640625 Z M 0.148438 0.875 " fill-opacity="1" fill-rule="nonzero"/></g></g></g></g></g></g><path stroke-linecap="butt" transform="matrix(0, -0.749829, 0.749829, 0, 311.371627, 606.313196)" fill="none" stroke-linejoin="miter" d="M 0.000928428 10.001565 L 535.570776 10.001565 " stroke="#9fca45" stroke-width="20" stroke-opacity="1" stroke-miterlimit="4"/><path stroke-linecap="butt" transform="matrix(0.337734, -0.669462, 0.669462, 0.337734, 308.875008, 348.143125)" fill="none" stroke-linejoin="miter" d="M 0.00152483 10.000251 L 258.651688 10.000949 " stroke="#77c953" stroke-width="20" stroke-opacity="1" stroke-miterlimit="4"/><path stroke-linecap="butt" transform="matrix(-0.43775, -0.608785, 0.608785, -0.43775, 320.282293, 355.900165)" fill="none" stroke-linejoin="miter" d="M -0.00158314 10.000431 L 152.749443 9.99979 " stroke="#77c953" stroke-width="20" stroke-opacity="1" stroke-miterlimit="4"/><g clip-path="url(#539f04d866)"><g clip-path="url(#c95c63e94e)"><g transform="matrix(1, 0, 0, 1, 402, -0.000000000000028422)"><g clip-path="url(#787015be69)"><g clip-path="url(#89d0a72f8d)"><g clip-path="url(#64d2d6963b)"><path fill="#6e8e00" d="M 0.925781 0.574219 L 277.539062 0.574219 L 277.539062 356.066406 L 0.925781 356.066406 Z M 0.925781 0.574219 " fill-opacity="1" fill-rule="nonzero"/></g></g></g></g></g></g><path stroke-linecap="butt" transform="matrix(-0.00335686, -0.749822, 0.749822, -0.00335686, 531.854493, 610.066336)" fill="none" stroke-linejoin="miter" d="M 0.00203057 9.998478 L 640.352138 9.999981 " stroke="#9fca45" stroke-width="20" stroke-opacity="1" stroke-miterlimit="4"/><path stroke-linecap="butt" transform="matrix(0.429829, -0.614403, 0.614403, 0.429829, 524.61392, 230.86379)" fill="none" stroke-linejoin="miter" d="M 0.0019975 9.998381 L 202.733827 9.999375 " stroke="#77c953" stroke-width="20" stroke-opacity="1" stroke-miterlimit="4"/><path stroke-linecap="butt" transform="matrix(-0.519712, -0.540503, 0.540503, -0.519712, 529.825169, 245.910336)" fill="none" stroke-linejoin="miter" d="M -0.00180812 9.998756 L 128.660955 9.999392 " stroke="#82c067" stroke-width="20" stroke-opacity="1" stroke-miterlimit="4"/></g></g></svg>