<svg xmlns="http://www.w3.org/2000/svg" xmlns:xlink="http://www.w3.org/1999/xlink" width="500" zoomAndPan="magnify" viewBox="0 0 375 374.999991" height="500" preserveAspectRatio="xMidYMid meet" version="1.0"><defs><g/><clipPath id="d0d7f7a954"><rect x="0" width="302" y="0" height="34"/></clipPath><clipPath id="2b9141cf21"><path d="M 66.460938 87.839844 L 109.9375 87.839844 L 109.9375 142.355469 L 66.460938 142.355469 Z M 66.460938 87.839844 " clip-rule="nonzero"/></clipPath><clipPath id="bc319875f3"><path d="M 88.199219 87.839844 C 76.195312 87.839844 66.460938 100.015625 66.460938 115.039062 C 66.460938 130.0625 76.195312 142.238281 88.199219 142.238281 C 100.207031 142.238281 109.9375 130.0625 109.9375 115.039062 C 109.9375 100.015625 100.207031 87.839844 88.199219 87.839844 Z M 88.199219 87.839844 " clip-rule="nonzero"/></clipPath><clipPath id="d2f5140ee5"><path d="M 0.460938 0.839844 L 43.9375 0.839844 L 43.9375 55.320312 L 0.460938 55.320312 Z M 0.460938 0.839844 " clip-rule="nonzero"/></clipPath><clipPath id="ecedccff00"><path d="M 22.199219 0.839844 C 10.195312 0.839844 0.460938 13.015625 0.460938 28.039062 C 0.460938 43.0625 10.195312 55.238281 22.199219 55.238281 C 34.207031 55.238281 43.9375 43.0625 43.9375 28.039062 C 43.9375 13.015625 34.207031 0.839844 22.199219 0.839844 Z M 22.199219 0.839844 " clip-rule="nonzero"/></clipPath><clipPath id="cd560dd74c"><rect x="0" width="44" y="0" height="56"/></clipPath><clipPath id="9432b47c40"><path d="M 98.804688 72.703125 L 142.28125 72.703125 L 142.28125 128.75 L 98.804688 128.75 Z M 98.804688 72.703125 " clip-rule="nonzero"/></clipPath><clipPath id="5ea8c22a85"><path d="M 120.542969 72.703125 C 108.539062 72.703125 98.804688 85.214844 98.804688 100.648438 C 98.804688 116.082031 108.539062 128.59375 120.542969 128.59375 C 132.550781 128.59375 142.28125 116.082031 142.28125 100.648438 C 142.28125 85.214844 132.550781 72.703125 120.542969 72.703125 Z M 120.542969 72.703125 " clip-rule="nonzero"/></clipPath><clipPath id="cc5c2ff623"><path d="M 0.804688 0.703125 L 44.28125 0.703125 L 44.28125 56.640625 L 0.804688 56.640625 Z M 0.804688 0.703125 " clip-rule="nonzero"/></clipPath><clipPath id="7ec99d9ba8"><path d="M 22.542969 0.703125 C 10.539062 0.703125 0.804688 13.214844 0.804688 28.648438 C 0.804688 44.082031 10.539062 56.59375 22.542969 56.59375 C 34.550781 56.59375 44.28125 44.082031 44.28125 28.648438 C 44.28125 13.214844 34.550781 0.703125 22.542969 0.703125 Z M 22.542969 0.703125 " clip-rule="nonzero"/></clipPath><clipPath id="b1b07be860"><rect x="0" width="45" y="0" height="57"/></clipPath></defs><path stroke-linecap="butt" transform="matrix(0.75, 0.000000000000000062, -0.000000000000000062, 0.75, 53.218323, 165.814048)" fill="none" stroke-linejoin="miter" d="M 0.000568793 2.497937 L 343.057883 2.497937 " stroke="#0f7610" stroke-width="5" stroke-opacity="1" stroke-miterlimit="4"/><path stroke-linecap="butt" transform="matrix(0, -0.75, 0.75, 0, 154.355999, 167.684022)" fill="none" stroke-linejoin="miter" d="M 0.000570718 2.499293 L 106.464119 2.499293 " stroke="#0f7610" stroke-width="5" stroke-opacity="1" stroke-miterlimit="4"/><path stroke-linecap="butt" transform="matrix(0, -0.75, 0.75, 0, 214.099517, 167.684022)" fill="none" stroke-linejoin="miter" d="M 0.000570718 2.497519 L 106.464119 2.497519 " stroke="#0f7610" stroke-width="5" stroke-opacity="1" stroke-miterlimit="4"/><path stroke-linecap="butt" transform="matrix(-0.694964, -0.282002, 0.282002, -0.694964, 232.737455, 96.97916)" fill="none" stroke-linejoin="miter" d="M 0.00108352 2.498932 L 68.587364 2.502187 " stroke="#0f7610" stroke-width="5" stroke-opacity="1" stroke-miterlimit="4"/><path stroke-linecap="butt" transform="matrix(-0.694269, 0.283708, -0.283708, -0.694269, 189.112785, 77.636633)" fill="none" stroke-linejoin="miter" d="M 0.00214225 2.498882 L 68.587507 2.500627 " stroke="#0f7610" stroke-width="5" stroke-opacity="1" stroke-miterlimit="4"/><path stroke-linecap="butt" transform="matrix(0.687802, 0.299045, -0.299045, 0.687802, 217.422237, 114.123612)" fill="none" stroke-linejoin="miter" d="M 0.00174865 2.500159 L 68.591161 2.50078 " stroke="#0f7610" stroke-width="5" stroke-opacity="1" stroke-miterlimit="4"/><path stroke-linecap="butt" transform="matrix(0, 0.75, -0.75, 0, 254.641277, 130.763137)" fill="none" stroke-linejoin="miter" d="M -0.00189102 2.500869 L 49.232487 2.500869 " stroke="#0f7610" stroke-width="5" stroke-opacity="1" stroke-miterlimit="4"/><path stroke-linecap="butt" transform="matrix(0, 0.75, -0.75, 0, 238.94221, 142.242427)" fill="none" stroke-linejoin="miter" d="M -0.000319946 5.001073 L 13.817389 5.001073 " stroke="#0f7610" stroke-width="10" stroke-opacity="1" stroke-miterlimit="4"/><path stroke-linecap="butt" transform="matrix(0, 0.75, -0.75, 0, 189.855474, 117.503253)" fill="none" stroke-linejoin="miter" d="M 0.000870888 5.000008 L 13.81858 5.000008 " stroke="#0f7610" stroke-width="10" stroke-opacity="1" stroke-miterlimit="4"/><path stroke-linecap="butt" transform="matrix(0, 0.75, -0.75, 0, 189.531129, 97.298804)" fill="none" stroke-linejoin="miter" d="M -0.00257201 4.999839 L 13.820346 4.999839 " stroke="#0f7610" stroke-width="10" stroke-opacity="1" stroke-miterlimit="4"/><path stroke-linecap="butt" transform="matrix(0, 0.75, -0.75, 0, 181.223225, 146.644721)" fill="none" stroke-linejoin="miter" d="M -0.000252694 2.500758 L 27.432041 2.500758 " stroke="#0f7610" stroke-width="5" stroke-opacity="1" stroke-miterlimit="4"/><path stroke-linecap="butt" transform="matrix(0, 0.75, -0.75, 0, 195.046633, 146.644721)" fill="none" stroke-linejoin="miter" d="M -0.000252694 2.499678 L 27.432041 2.499678 " stroke="#0f7610" stroke-width="5" stroke-opacity="1" stroke-miterlimit="4"/><path stroke-linecap="butt" transform="matrix(0.75, 0.000000000000002836, -0.000000000000002836, 0.75, 178.123601, 146.509195)" fill="none" stroke-linejoin="miter" d="M 0.0018656 2.498157 L 22.548742 2.498157 " stroke="#0f7610" stroke-width="5" stroke-opacity="1" stroke-miterlimit="4"/><path stroke-linecap="butt" transform="matrix(0.621435, -0.419903, 0.419903, 0.621435, 196.46655, 218.456074)" fill="none" stroke-linejoin="miter" d="M 1.560088 29.046614 C 45.872807 -6.34649 99.983145 -6.348977 163.899734 29.044986 " stroke="#0f7610" stroke-width="5" stroke-opacity="1" stroke-miterlimit="4"/><path stroke-linecap="butt" transform="matrix(0.629015, -0.408461, 0.408461, 0.629015, 164.999394, 211.185454)" fill="none" stroke-linejoin="miter" d="M 1.091208 18.777049 C 45.861415 -2.924542 90.636494 -2.924854 135.404871 18.77481 " stroke="#0f7610" stroke-width="5" stroke-opacity="1" stroke-miterlimit="4"/><path stroke-linecap="butt" transform="matrix(0.663677, -0.349331, 0.349331, 0.663677, 134.872378, 199.492868)" fill="none" stroke-linejoin="miter" d="M 0.976971 15.092255 C 40.555534 -1.697106 80.137919 -1.698247 119.717092 15.091014 " stroke="#0f7610" stroke-width="5" stroke-opacity="1" stroke-miterlimit="4"/><path stroke-linecap="butt" transform="matrix(0.686694, -0.301581, 0.301581, 0.686694, 109.029372, 189.996024)" fill="none" stroke-linejoin="miter" d="M 0.871363 11.816642 C 34.207549 -0.608652 67.540855 -0.605869 100.880237 11.817547 " stroke="#0f7610" stroke-width="5" stroke-opacity="1" stroke-miterlimit="4"/><path stroke-linecap="butt" transform="matrix(0.700259, -0.268584, 0.268584, 0.700259, 81.717143, 180.389813)" fill="none" stroke-linejoin="miter" d="M 0.95771 10.002202 C 25.09426 -0.0020871 49.232248 -0.00394372 73.369811 10.001495 " stroke="#0f7610" stroke-width="5" stroke-opacity="1" stroke-miterlimit="4"/><g transform="matrix(1, 0, 0, 1, 35, 244)"><g clip-path="url(#d0d7f7a954)"><g fill="#25602a" fill-opacity="1"><g transform="translate(0.709908, 27.241308)"><g><path d="M 16.90625 0 L 1.375 0 L 1.375 -1.015625 C 2.53125 -1.109375 3.265625 -1.253906 3.578125 -1.453125 C 3.890625 -1.660156 4.046875 -2.078125 4.046875 -2.703125 L 4.046875 -16.9375 C 4.046875 -17.582031 3.789062 -18.050781 3.28125 -18.34375 C 2.769531 -18.644531 2.132812 -18.828125 1.375 -18.890625 L 1.375 -19.890625 L 9.75 -19.890625 L 9.75 -18.890625 C 8.570312 -18.796875 7.820312 -18.617188 7.5 -18.359375 C 7.1875 -18.109375 7.03125 -17.679688 7.03125 -17.078125 L 7.03125 -3.734375 C 7.03125 -2.535156 7.195312 -1.796875 7.53125 -1.515625 C 7.875 -1.234375 8.785156 -1.09375 10.265625 -1.09375 C 11.273438 -1.09375 12.066406 -1.148438 12.640625 -1.265625 C 13.210938 -1.378906 13.613281 -1.523438 13.84375 -1.703125 C 14.070312 -1.890625 14.460938 -2.441406 15.015625 -3.359375 C 15.578125 -4.273438 16.015625 -5.128906 16.328125 -5.921875 L 17.34375 -5.921875 Z M 16.90625 0 "/></g></g></g><g fill="#25602a" fill-opacity="1"><g transform="translate(18.041598, 27.241308)"><g><path d="M 17.71875 0 L 1.203125 0 L 1.203125 -1.015625 C 2.453125 -1.109375 3.238281 -1.265625 3.5625 -1.484375 C 3.882812 -1.710938 4.046875 -2.117188 4.046875 -2.703125 L 4.046875 -16.984375 C 4.046875 -17.640625 3.796875 -18.101562 3.296875 -18.375 C 2.796875 -18.644531 2.097656 -18.816406 1.203125 -18.890625 L 1.203125 -19.890625 L 16.59375 -19.890625 L 16.59375 -15.09375 L 15.5625 -15.09375 C 15.363281 -15.820312 14.988281 -16.53125 14.4375 -17.21875 C 13.894531 -17.914062 13.425781 -18.347656 13.03125 -18.515625 C 12.644531 -18.679688 11.6875 -18.765625 10.15625 -18.765625 L 7.03125 -18.765625 L 7.03125 -10.875 L 9.28125 -10.875 C 10.332031 -10.875 11.09375 -11.109375 11.5625 -11.578125 C 12.03125 -12.054688 12.359375 -12.90625 12.546875 -14.125 L 13.578125 -14.125 L 13.578125 -6.34375 L 12.546875 -6.34375 C 12.492188 -6.8125 12.359375 -7.359375 12.140625 -7.984375 C 11.929688 -8.617188 11.628906 -9.066406 11.234375 -9.328125 C 10.835938 -9.585938 10.1875 -9.71875 9.28125 -9.71875 L 7.03125 -9.71875 L 7.03125 -3.75 C 7.03125 -2.613281 7.207031 -1.894531 7.5625 -1.59375 C 7.925781 -1.300781 8.875 -1.15625 10.40625 -1.15625 L 11.625 -1.15625 C 12.9375 -1.15625 13.820312 -1.253906 14.28125 -1.453125 C 14.738281 -1.660156 15.242188 -2.226562 15.796875 -3.15625 C 16.347656 -4.082031 16.773438 -4.984375 17.078125 -5.859375 L 18.078125 -5.859375 Z M 17.71875 0 "/></g></g></g><g fill="#25602a" fill-opacity="1"><g transform="translate(36.774393, 27.241308)"><g><path d="M 11.625 0 L 11.625 -1.015625 C 13.332031 -1.109375 14.1875 -1.375 14.1875 -1.8125 C 14.1875 -2.007812 14.148438 -2.207031 14.078125 -2.40625 L 12.40625 -6.890625 L 5.421875 -6.890625 C 4.503906 -4.515625 4.046875 -2.96875 4.046875 -2.25 C 4.046875 -1.550781 5.003906 -1.140625 6.921875 -1.015625 L 6.921875 0 L -0.578125 0 L -0.578125 -1.015625 C 0.191406 -1.066406 0.804688 -1.242188 1.265625 -1.546875 C 1.734375 -1.847656 2.085938 -2.222656 2.328125 -2.671875 C 2.578125 -3.117188 3.453125 -5.265625 4.953125 -9.109375 L 9.234375 -20.1875 L 10.359375 -20.1875 L 16.984375 -3.015625 C 17.460938 -1.773438 18.441406 -1.109375 19.921875 -1.015625 L 19.921875 0 Z M 8.90625 -15.84375 L 5.9375 -8.125 L 11.90625 -8.125 Z M 8.90625 -15.84375 "/></g></g></g><g fill="#25602a" fill-opacity="1"><g transform="translate(56.025593, 27.241308)"><g><path d="M 1.3125 0 L 1.3125 -1.015625 C 2.445312 -1.015625 3.1875 -1.144531 3.53125 -1.40625 C 3.875 -1.664062 4.046875 -2.078125 4.046875 -2.640625 L 4.046875 -16.984375 C 4.046875 -17.597656 3.847656 -18.039062 3.453125 -18.3125 C 3.054688 -18.59375 2.378906 -18.785156 1.421875 -18.890625 L 1.421875 -19.890625 L 10.140625 -19.890625 C 12.941406 -19.890625 15.351562 -19.015625 17.375 -17.265625 C 19.394531 -15.523438 20.40625 -13.039062 20.40625 -9.8125 C 20.40625 -6.78125 19.359375 -4.382812 17.265625 -2.625 C 15.179688 -0.875 12.613281 0 9.5625 0 Z M 7.03125 -18.6875 L 7.03125 -3.421875 C 7.03125 -2.566406 7.273438 -1.972656 7.765625 -1.640625 C 8.253906 -1.316406 9.015625 -1.15625 10.046875 -1.15625 C 12.304688 -1.15625 14.023438 -1.898438 15.203125 -3.390625 C 16.390625 -4.890625 16.984375 -7.039062 16.984375 -9.84375 C 16.984375 -12.476562 16.285156 -14.617188 14.890625 -16.265625 C 13.492188 -17.910156 11.660156 -18.734375 9.390625 -18.734375 C 8.421875 -18.734375 7.632812 -18.71875 7.03125 -18.6875 Z M 7.03125 -18.6875 "/></g></g></g><g fill="#25602a" fill-opacity="1"><g transform="translate(77.518563, 27.241308)"><g/></g></g><g fill="#25602a" fill-opacity="1"><g transform="translate(84.440028, 27.241308)"><g><path d="M 1.125 0 L 1.125 -1.015625 C 2.4375 -1.109375 3.257812 -1.242188 3.59375 -1.421875 C 3.9375 -1.597656 4.109375 -1.992188 4.109375 -2.609375 L 4.109375 -17.015625 C 4.109375 -17.640625 3.828125 -18.09375 3.265625 -18.375 C 2.710938 -18.65625 2 -18.828125 1.125 -18.890625 L 1.125 -19.890625 L 10.078125 -19.890625 L 10.078125 -18.890625 C 8.816406 -18.796875 8.003906 -18.628906 7.640625 -18.390625 C 7.273438 -18.148438 7.09375 -17.742188 7.09375 -17.171875 L 7.09375 -2.78125 C 7.09375 -2.300781 7.25 -1.910156 7.5625 -1.609375 C 7.882812 -1.316406 8.722656 -1.117188 10.078125 -1.015625 L 10.078125 0 Z M 1.125 0 "/></g></g></g><g fill="#25602a" fill-opacity="1"><g transform="translate(95.634873, 27.241308)"><g><path d="M 21.78125 -18.890625 C 20.414062 -18.710938 19.535156 -18.410156 19.140625 -17.984375 C 18.742188 -17.566406 18.546875 -16.359375 18.546875 -14.359375 L 18.546875 0.203125 L 17.34375 0.203125 L 5.28125 -16.078125 L 5.28125 -5.828125 C 5.28125 -4.597656 5.351562 -3.695312 5.5 -3.125 C 5.65625 -2.550781 5.835938 -2.160156 6.046875 -1.953125 C 6.253906 -1.742188 6.660156 -1.539062 7.265625 -1.34375 C 7.867188 -1.15625 8.394531 -1.046875 8.84375 -1.015625 L 8.84375 0 L 0.65625 0 L 0.65625 -1.015625 C 1.769531 -1.171875 2.59375 -1.421875 3.125 -1.765625 C 3.664062 -2.109375 3.9375 -3.398438 3.9375 -5.640625 L 3.9375 -15.46875 C 3.9375 -17.40625 2.738281 -18.546875 0.34375 -18.890625 L 0.34375 -19.890625 L 6 -19.890625 L 17.203125 -4.734375 L 17.203125 -14.1875 C 17.203125 -16.3125 16.9375 -17.582031 16.40625 -18 C 15.875 -18.414062 14.96875 -18.710938 13.6875 -18.890625 L 13.6875 -19.890625 L 21.78125 -19.890625 Z M 21.78125 -18.890625 "/></g></g></g><g fill="#25602a" fill-opacity="1"><g transform="translate(117.646257, 27.241308)"><g><path d="M 16.53125 0 L 16.53125 -1.015625 C 17.5 -1.097656 18.132812 -1.164062 18.4375 -1.21875 C 18.75 -1.269531 19.023438 -1.441406 19.265625 -1.734375 C 19.515625 -2.023438 19.640625 -2.382812 19.640625 -2.8125 L 19.640625 -17.28125 L 19.390625 -17.28125 L 12.625 -0.328125 L 11.9375 -0.328125 L 5.453125 -17.609375 L 5.28125 -17.609375 L 5.28125 -5.75 C 5.28125 -4.53125 5.375 -3.554688 5.5625 -2.828125 C 5.757812 -2.109375 6.25 -1.628906 7.03125 -1.390625 C 7.820312 -1.160156 8.378906 -1.035156 8.703125 -1.015625 L 8.703125 0 L 0.65625 0 L 0.65625 -1.015625 C 2.09375 -1.128906 3 -1.457031 3.375 -2 C 3.75 -2.539062 3.9375 -3.738281 3.9375 -5.59375 L 3.9375 -15.75 C 3.9375 -17.726562 2.890625 -18.773438 0.796875 -18.890625 L 0.796875 -19.890625 L 7.578125 -19.890625 L 13.265625 -4.96875 L 18.140625 -17.453125 C 18.453125 -18.273438 18.671875 -19.085938 18.796875 -19.890625 L 25.28125 -19.890625 L 25.28125 -18.890625 C 24.15625 -18.796875 23.425781 -18.628906 23.09375 -18.390625 C 22.757812 -18.160156 22.59375 -17.742188 22.59375 -17.140625 L 22.59375 -2.8125 C 22.59375 -2.21875 22.78125 -1.789062 23.15625 -1.53125 C 23.53125 -1.28125 24.25 -1.109375 25.3125 -1.015625 L 25.3125 0 Z M 16.53125 0 "/></g></g></g><g fill="#25602a" fill-opacity="1"><g transform="translate(144.239254, 27.241308)"><g><path d="M 10.671875 0.484375 C 7.941406 0.484375 5.664062 -0.492188 3.84375 -2.453125 C 2.03125 -4.421875 1.125 -6.914062 1.125 -9.9375 C 1.125 -12.976562 2.046875 -15.472656 3.890625 -17.421875 C 5.734375 -19.367188 7.992188 -20.34375 10.671875 -20.34375 C 13.398438 -20.34375 15.675781 -19.367188 17.5 -17.421875 C 19.320312 -15.484375 20.234375 -12.988281 20.234375 -9.9375 C 20.234375 -6.875 19.3125 -4.367188 17.46875 -2.421875 C 15.625 -0.484375 13.359375 0.484375 10.671875 0.484375 Z M 10.671875 -19.109375 C 8.722656 -19.109375 7.207031 -18.285156 6.125 -16.640625 C 5.050781 -14.992188 4.515625 -12.757812 4.515625 -9.9375 C 4.515625 -7.09375 5.054688 -4.851562 6.140625 -3.21875 C 7.222656 -1.582031 8.734375 -0.765625 10.671875 -0.765625 C 12.640625 -0.765625 14.160156 -1.582031 15.234375 -3.21875 C 16.304688 -4.863281 16.84375 -7.101562 16.84375 -9.9375 C 16.84375 -12.78125 16.300781 -15.019531 15.21875 -16.65625 C 14.132812 -18.289062 12.617188 -19.109375 10.671875 -19.109375 Z M 10.671875 -19.109375 "/></g></g></g><g fill="#25602a" fill-opacity="1"><g transform="translate(165.592113, 27.241308)"><g><path d="M 1.3125 0 L 1.3125 -1.015625 C 2.4375 -1.097656 3.171875 -1.253906 3.515625 -1.484375 C 3.867188 -1.722656 4.046875 -2.128906 4.046875 -2.703125 L 4.046875 -16.984375 C 4.046875 -18.117188 3.171875 -18.753906 1.421875 -18.890625 L 1.421875 -19.890625 L 10.625 -19.890625 C 12.289062 -19.890625 13.664062 -19.507812 14.75 -18.75 C 15.84375 -18 16.390625 -16.9375 16.390625 -15.5625 C 16.390625 -13.082031 14.820312 -11.472656 11.6875 -10.734375 L 11.6875 -10.625 C 15.550781 -10.039062 17.484375 -8.296875 17.484375 -5.390625 C 17.484375 -3.765625 16.828125 -2.457031 15.515625 -1.46875 C 14.210938 -0.488281 12.628906 0 10.765625 0 Z M 7.03125 -18.703125 L 7.03125 -11.09375 L 8.8125 -11.09375 C 11.625 -11.09375 13.03125 -12.488281 13.03125 -15.28125 C 13.03125 -17.601562 11.789062 -18.765625 9.3125 -18.765625 C 8.46875 -18.765625 7.707031 -18.742188 7.03125 -18.703125 Z M 7.03125 -9.90625 L 7.03125 -2.90625 C 7.03125 -1.71875 7.925781 -1.125 9.71875 -1.125 C 12.59375 -1.125 14.03125 -2.722656 14.03125 -5.921875 C 14.03125 -7.148438 13.625 -8.128906 12.8125 -8.859375 C 12 -9.597656 10.882812 -9.96875 9.46875 -9.96875 C 8.375 -9.96875 7.5625 -9.945312 7.03125 -9.90625 Z M 7.03125 -9.90625 "/></g></g></g><g fill="#25602a" fill-opacity="1"><g transform="translate(184.352932, 27.241308)"><g><path d="M 1.125 0 L 1.125 -1.015625 C 2.4375 -1.109375 3.257812 -1.242188 3.59375 -1.421875 C 3.9375 -1.597656 4.109375 -1.992188 4.109375 -2.609375 L 4.109375 -17.015625 C 4.109375 -17.640625 3.828125 -18.09375 3.265625 -18.375 C 2.710938 -18.65625 2 -18.828125 1.125 -18.890625 L 1.125 -19.890625 L 10.078125 -19.890625 L 10.078125 -18.890625 C 8.816406 -18.796875 8.003906 -18.628906 7.640625 -18.390625 C 7.273438 -18.148438 7.09375 -17.742188 7.09375 -17.171875 L 7.09375 -2.78125 C 7.09375 -2.300781 7.25 -1.910156 7.5625 -1.609375 C 7.882812 -1.316406 8.722656 -1.117188 10.078125 -1.015625 L 10.078125 0 Z M 1.125 0 "/></g></g></g><g fill="#25602a" fill-opacity="1"><g transform="translate(195.547776, 27.241308)"><g><path d="M 16.90625 0 L 1.375 0 L 1.375 -1.015625 C 2.53125 -1.109375 3.265625 -1.253906 3.578125 -1.453125 C 3.890625 -1.660156 4.046875 -2.078125 4.046875 -2.703125 L 4.046875 -16.9375 C 4.046875 -17.582031 3.789062 -18.050781 3.28125 -18.34375 C 2.769531 -18.644531 2.132812 -18.828125 1.375 -18.890625 L 1.375 -19.890625 L 9.75 -19.890625 L 9.75 -18.890625 C 8.570312 -18.796875 7.820312 -18.617188 7.5 -18.359375 C 7.1875 -18.109375 7.03125 -17.679688 7.03125 -17.078125 L 7.03125 -3.734375 C 7.03125 -2.535156 7.195312 -1.796875 7.53125 -1.515625 C 7.875 -1.234375 8.785156 -1.09375 10.265625 -1.09375 C 11.273438 -1.09375 12.066406 -1.148438 12.640625 -1.265625 C 13.210938 -1.378906 13.613281 -1.523438 13.84375 -1.703125 C 14.070312 -1.890625 14.460938 -2.441406 15.015625 -3.359375 C 15.578125 -4.273438 16.015625 -5.128906 16.328125 -5.921875 L 17.34375 -5.921875 Z M 16.90625 0 "/></g></g></g><g fill="#25602a" fill-opacity="1"><g transform="translate(212.879477, 27.241308)"><g><path d="M 1.125 0 L 1.125 -1.015625 C 2.4375 -1.109375 3.257812 -1.242188 3.59375 -1.421875 C 3.9375 -1.597656 4.109375 -1.992188 4.109375 -2.609375 L 4.109375 -17.015625 C 4.109375 -17.640625 3.828125 -18.09375 3.265625 -18.375 C 2.710938 -18.65625 2 -18.828125 1.125 -18.890625 L 1.125 -19.890625 L 10.078125 -19.890625 L 10.078125 -18.890625 C 8.816406 -18.796875 8.003906 -18.628906 7.640625 -18.390625 C 7.273438 -18.148438 7.09375 -17.742188 7.09375 -17.171875 L 7.09375 -2.78125 C 7.09375 -2.300781 7.25 -1.910156 7.5625 -1.609375 C 7.882812 -1.316406 8.722656 -1.117188 10.078125 -1.015625 L 10.078125 0 Z M 1.125 0 "/></g></g></g><g fill="#25602a" fill-opacity="1"><g transform="translate(224.074321, 27.241308)"><g><path d="M 11.625 0 L 11.625 -1.015625 C 13.332031 -1.109375 14.1875 -1.375 14.1875 -1.8125 C 14.1875 -2.007812 14.148438 -2.207031 14.078125 -2.40625 L 12.40625 -6.890625 L 5.421875 -6.890625 C 4.503906 -4.515625 4.046875 -2.96875 4.046875 -2.25 C 4.046875 -1.550781 5.003906 -1.140625 6.921875 -1.015625 L 6.921875 0 L -0.578125 0 L -0.578125 -1.015625 C 0.191406 -1.066406 0.804688 -1.242188 1.265625 -1.546875 C 1.734375 -1.847656 2.085938 -2.222656 2.328125 -2.671875 C 2.578125 -3.117188 3.453125 -5.265625 4.953125 -9.109375 L 9.234375 -20.1875 L 10.359375 -20.1875 L 16.984375 -3.015625 C 17.460938 -1.773438 18.441406 -1.109375 19.921875 -1.015625 L 19.921875 0 Z M 8.90625 -15.84375 L 5.9375 -8.125 L 11.90625 -8.125 Z M 8.90625 -15.84375 "/></g></g></g><g fill="#25602a" fill-opacity="1"><g transform="translate(243.32551, 27.241308)"><g><path d="M 15.390625 0 C 13.335938 -3.21875 11.222656 -6.222656 9.046875 -9.015625 L 7.03125 -9.015625 L 7.03125 -2.703125 C 7.03125 -2.035156 7.1875 -1.609375 7.5 -1.421875 C 7.8125 -1.242188 8.570312 -1.109375 9.78125 -1.015625 L 9.78125 0 L 1.375 0 L 1.375 -1.015625 C 2.53125 -1.109375 3.265625 -1.253906 3.578125 -1.453125 C 3.890625 -1.660156 4.046875 -2.078125 4.046875 -2.703125 L 4.046875 -17.078125 C 4.046875 -17.691406 3.878906 -18.125 3.546875 -18.375 C 3.210938 -18.625 2.488281 -18.796875 1.375 -18.890625 L 1.375 -19.890625 L 10.5625 -19.890625 C 12.476562 -19.890625 14 -19.472656 15.125 -18.640625 C 16.25 -17.816406 16.8125 -16.65625 16.8125 -15.15625 C 16.8125 -12.519531 15.195312 -10.726562 11.96875 -9.78125 C 12.632812 -8.9375 13.945312 -7.179688 15.90625 -4.515625 C 16.925781 -3.117188 17.570312 -2.3125 17.84375 -2.09375 C 18.125 -1.875 18.441406 -1.648438 18.796875 -1.421875 C 19.160156 -1.203125 19.8125 -1.066406 20.75 -1.015625 L 20.75 0 Z M 7.03125 -18.734375 L 7.03125 -10.21875 L 8.875 -10.21875 C 10.21875 -10.21875 11.300781 -10.644531 12.125 -11.5 C 12.957031 -12.363281 13.375 -13.476562 13.375 -14.84375 C 13.375 -16.070312 13.019531 -17.023438 12.3125 -17.703125 C 11.601562 -18.390625 10.640625 -18.734375 9.421875 -18.734375 Z M 7.03125 -18.734375 "/></g></g></g><g fill="#25602a" fill-opacity="1"><g transform="translate(263.473408, 27.241308)"><g><path d="M 1.125 0 L 1.125 -1.015625 C 2.4375 -1.109375 3.257812 -1.242188 3.59375 -1.421875 C 3.9375 -1.597656 4.109375 -1.992188 4.109375 -2.609375 L 4.109375 -17.015625 C 4.109375 -17.640625 3.828125 -18.09375 3.265625 -18.375 C 2.710938 -18.65625 2 -18.828125 1.125 -18.890625 L 1.125 -19.890625 L 10.078125 -19.890625 L 10.078125 -18.890625 C 8.816406 -18.796875 8.003906 -18.628906 7.640625 -18.390625 C 7.273438 -18.148438 7.09375 -17.742188 7.09375 -17.171875 L 7.09375 -2.78125 C 7.09375 -2.300781 7.25 -1.910156 7.5625 -1.609375 C 7.882812 -1.316406 8.722656 -1.117188 10.078125 -1.015625 L 10.078125 0 Z M 1.125 0 "/></g></g></g><g fill="#25602a" fill-opacity="1"><g transform="translate(274.668252, 27.241308)"><g><path d="M 11.625 0 L 11.625 -1.015625 C 13.332031 -1.109375 14.1875 -1.375 14.1875 -1.8125 C 14.1875 -2.007812 14.148438 -2.207031 14.078125 -2.40625 L 12.40625 -6.890625 L 5.421875 -6.890625 C 4.503906 -4.515625 4.046875 -2.96875 4.046875 -2.25 C 4.046875 -1.550781 5.003906 -1.140625 6.921875 -1.015625 L 6.921875 0 L -0.578125 0 L -0.578125 -1.015625 C 0.191406 -1.066406 0.804688 -1.242188 1.265625 -1.546875 C 1.734375 -1.847656 2.085938 -2.222656 2.328125 -2.671875 C 2.578125 -3.117188 3.453125 -5.265625 4.953125 -9.109375 L 9.234375 -20.1875 L 10.359375 -20.1875 L 16.984375 -3.015625 C 17.460938 -1.773438 18.441406 -1.109375 19.921875 -1.015625 L 19.921875 0 Z M 8.90625 -15.84375 L 5.9375 -8.125 L 11.90625 -8.125 Z M 8.90625 -15.84375 "/></g></g></g><g fill="#25602a" fill-opacity="1"><g transform="translate(293.928156, 27.241308)"><g/></g></g></g></g><g clip-path="url(#2b9141cf21)"><g clip-path="url(#bc319875f3)"><g transform="matrix(1, 0, 0, 1, 66, 87)"><g clip-path="url(#cd560dd74c)"><g clip-path="url(#d2f5140ee5)"><g clip-path="url(#ecedccff00)"><path fill="#0f7610" d="M 0.460938 0.839844 L 43.9375 0.839844 L 43.9375 55.1875 L 0.460938 55.1875 Z M 0.460938 0.839844 " fill-opacity="1" fill-rule="nonzero"/></g></g></g></g></g></g><path stroke-linecap="butt" transform="matrix(0, -0.75, 0.75, 0, 85.64468, 170.779822)" fill="none" stroke-linejoin="miter" d="M -0.00190349 1.499801 L 84.15956 1.499801 " stroke="#108e51" stroke-width="3" stroke-opacity="1" stroke-miterlimit="4"/><path stroke-linecap="butt" transform="matrix(0.337811, -0.669614, 0.669614, 0.337811, 84.068949, 127.356685)" fill="none" stroke-linejoin="miter" d="M 0.000653074 1.500938 L 40.643788 1.502085 " stroke="#77c953" stroke-width="3" stroke-opacity="1" stroke-miterlimit="4"/><path stroke-linecap="butt" transform="matrix(-0.43785, -0.608923, 0.608923, -0.43785, 85.856015, 128.520474)" fill="none" stroke-linejoin="miter" d="M 0.000349845 1.500468 L 24.006218 1.499233 " stroke="#77c953" stroke-width="3" stroke-opacity="1" stroke-miterlimit="4"/><g clip-path="url(#9432b47c40)"><g clip-path="url(#5ea8c22a85)"><g transform="matrix(1, 0, 0, 1, 98, 72)"><g clip-path="url(#b1b07be860)"><g clip-path="url(#cc5c2ff623)"><g clip-path="url(#7ec99d9ba8)"><path fill="#0f7610" d="M 0.804688 0.703125 L 44.28125 0.703125 L 44.28125 56.578125 L 0.804688 56.578125 Z M 0.804688 0.703125 " fill-opacity="1" fill-rule="nonzero"/></g></g></g></g></g></g><path stroke-linecap="butt" transform="matrix(-0.00335762, -0.749992, 0.749992, -0.00335762, 118.812594, 167.219564)" fill="none" stroke-linejoin="miter" d="M -0.000420788 1.499887 L 100.630787 1.50248 " stroke="#108e51" stroke-width="3" stroke-opacity="1" stroke-miterlimit="4"/><path stroke-linecap="butt" transform="matrix(0.429927, -0.614543, 0.614543, 0.429927, 117.973634, 108.926551)" fill="none" stroke-linejoin="miter" d="M 0.000532993 1.498136 L 31.860552 1.500971 " stroke="#77c953" stroke-width="3" stroke-opacity="1" stroke-miterlimit="4"/><path stroke-linecap="butt" transform="matrix(-0.51983, -0.540626, 0.540626, -0.51983, 118.78025, 111.223622)" fill="none" stroke-linejoin="miter" d="M -0.000136153 1.497381 L 20.219001 1.502376 " stroke="#77c953" stroke-width="3" stroke-opacity="1" stroke-miterlimit="4"/></svg>