<svg xmlns="http://www.w3.org/2000/svg" xmlns:xlink="http://www.w3.org/1999/xlink" width="500" zoomAndPan="magnify" viewBox="0 0 375 374.999991" height="500" preserveAspectRatio="xMidYMid meet" version="1.0"><defs><g/><clipPath id="85f5937ab4"><rect x="0" width="259" y="0" height="30"/></clipPath><clipPath id="42026bd7d4"><path d="M 84.832031 95.101562 L 122.226562 95.101562 L 122.226562 136.875 L 84.832031 136.875 Z M 84.832031 95.101562 " clip-rule="nonzero"/></clipPath><clipPath id="638341a819"><path d="M 103.53125 95.101562 C 93.203125 95.101562 84.832031 104.441406 84.832031 115.960938 C 84.832031 127.484375 93.203125 136.824219 103.53125 136.824219 C 113.855469 136.824219 122.226562 127.484375 122.226562 115.960938 C 122.226562 104.441406 113.855469 95.101562 103.53125 95.101562 Z M 103.53125 95.101562 " clip-rule="nonzero"/></clipPath><clipPath id="a38a87fe39"><path d="M 0.832031 0.101562 L 38.226562 0.101562 L 38.226562 41.875 L 0.832031 41.875 Z M 0.832031 0.101562 " clip-rule="nonzero"/></clipPath><clipPath id="31c6956630"><path d="M 19.53125 0.101562 C 9.203125 0.101562 0.832031 9.441406 0.832031 20.960938 C 0.832031 32.484375 9.203125 41.824219 19.53125 41.824219 C 29.855469 41.824219 38.226562 32.484375 38.226562 20.960938 C 38.226562 9.441406 29.855469 0.101562 19.53125 0.101562 Z M 19.53125 0.101562 " clip-rule="nonzero"/></clipPath><clipPath id="4eef6b196c"><rect x="0" width="39" y="0" height="42"/></clipPath><clipPath id="049ac0a557"><path d="M 112.652344 82.082031 L 150.042969 82.082031 L 150.042969 130.285156 L 112.652344 130.285156 Z M 112.652344 82.082031 " clip-rule="nonzero"/></clipPath><clipPath id="d8dd00718d"><path d="M 131.347656 82.082031 C 121.019531 82.082031 112.652344 92.84375 112.652344 106.117188 C 112.652344 119.390625 121.019531 130.148438 131.347656 130.148438 C 141.671875 130.148438 150.042969 119.390625 150.042969 106.117188 C 150.042969 92.84375 141.671875 82.082031 131.347656 82.082031 Z M 131.347656 82.082031 " clip-rule="nonzero"/></clipPath><clipPath id="98fba5a10a"><path d="M 0.652344 0.0820312 L 38.042969 0.0820312 L 38.042969 48.285156 L 0.652344 48.285156 Z M 0.652344 0.0820312 " clip-rule="nonzero"/></clipPath><clipPath id="77c811f5c3"><path d="M 19.347656 0.0820312 C 9.019531 0.0820312 0.652344 10.84375 0.652344 24.117188 C 0.652344 37.390625 9.019531 48.148438 19.347656 48.148438 C 29.671875 48.148438 38.042969 37.390625 38.042969 24.117188 C 38.042969 10.84375 29.671875 0.0820312 19.347656 0.0820312 Z M 19.347656 0.0820312 " clip-rule="nonzero"/></clipPath><clipPath id="48dda2a8da"><rect x="0" width="39" y="0" height="49"/></clipPath></defs><path stroke-linecap="butt" transform="matrix(0.75, 0.000000000000000072, -0.000000000000000072, 0.75, 73.444929, 162.273313)" fill="none" stroke-linejoin="miter" d="M 0.000510964 2.000166 L 295.042197 2.000166 " stroke="#0f7610" stroke-width="4" stroke-opacity="1" stroke-miterlimit="4"/><path stroke-linecap="butt" transform="matrix(0, -0.75, 0.75, 0, 160.54246, 163.772627)" fill="none" stroke-linejoin="miter" d="M -0.00108087 2.000679 L 91.566633 2.000679 " stroke="#0f7610" stroke-width="4" stroke-opacity="1" stroke-miterlimit="4"/><path stroke-linecap="butt" transform="matrix(0, -0.75, 0.75, 0, 211.92361, 163.772627)" fill="none" stroke-linejoin="miter" d="M -0.00108087 1.997687 L 91.566633 1.997687 " stroke="#0f7610" stroke-width="4" stroke-opacity="1" stroke-miterlimit="4"/><path stroke-linecap="butt" transform="matrix(-0.694964, -0.282002, 0.282002, -0.694964, 227.88267, 102.857206)" fill="none" stroke-linejoin="miter" d="M 0.000945524 1.997499 L 58.987046 2.001101 " stroke="#0f7610" stroke-width="4" stroke-opacity="1" stroke-miterlimit="4"/><path stroke-linecap="butt" transform="matrix(-0.694269, 0.283708, -0.283708, -0.694269, 190.279283, 86.220705)" fill="none" stroke-linejoin="miter" d="M 0.00107824 2.000636 L 58.988054 2.001679 " stroke="#0f7610" stroke-width="4" stroke-opacity="1" stroke-miterlimit="4"/><path stroke-linecap="butt" transform="matrix(0.687802, 0.299045, -0.299045, 0.687802, 214.620341, 117.807933)" fill="none" stroke-linejoin="miter" d="M 0.00147963 1.999438 L 58.987614 2.001098 " stroke="#0f7610" stroke-width="4" stroke-opacity="1" stroke-miterlimit="4"/><path stroke-linecap="butt" transform="matrix(0, 0.75, -0.75, 0, 246.556366, 132.021539)" fill="none" stroke-linejoin="miter" d="M 0.00253196 2.002238 L 42.341076 2.002238 " stroke="#0f7610" stroke-width="4" stroke-opacity="1" stroke-miterlimit="4"/><path stroke-linecap="butt" transform="matrix(0, 0.75, -0.75, 0, 233.321166, 141.890045)" fill="none" stroke-linejoin="miter" d="M 0.000773223 4.501138 L 11.886191 4.501138 " stroke="#0f7610" stroke-width="9" stroke-opacity="1" stroke-miterlimit="4"/><path stroke-linecap="butt" transform="matrix(0, 0.75, -0.75, 0, 191.105164, 120.613636)" fill="none" stroke-linejoin="miter" d="M -0.000473106 4.499594 L 11.884944 4.499594 " stroke="#0f7610" stroke-width="9" stroke-opacity="1" stroke-miterlimit="4"/><path stroke-linecap="butt" transform="matrix(0, 0.75, -0.75, 0, 190.826226, 103.237222)" fill="none" stroke-linejoin="miter" d="M 0.00141231 4.497469 L 11.88683 4.497469 " stroke="#0f7610" stroke-width="9" stroke-opacity="1" stroke-miterlimit="4"/><path stroke-linecap="butt" transform="matrix(0, 0.75, -0.75, 0, 183.424094, 145.670777)" fill="none" stroke-linejoin="miter" d="M 0.00146422 1.997751 L 23.595216 1.997751 " stroke="#0f7610" stroke-width="4" stroke-opacity="1" stroke-miterlimit="4"/><path stroke-linecap="butt" transform="matrix(0, 0.75, -0.75, 0, 195.312647, 145.670777)" fill="none" stroke-linejoin="miter" d="M 0.00146422 2.000196 L 23.595216 2.000196 " stroke="#0f7610" stroke-width="4" stroke-opacity="1" stroke-miterlimit="4"/><path stroke-linecap="butt" transform="matrix(0.75, 0.000000000000002198, -0.000000000000002198, 0.75, 180.867077, 145.67057)" fill="none" stroke-linejoin="miter" d="M 0.000147836 2.00174 L 19.395982 2.00174 " stroke="#0f7610" stroke-width="4" stroke-opacity="1" stroke-miterlimit="4"/><path stroke-linecap="butt" transform="matrix(0.621435, -0.419903, 0.419903, 0.621435, 196.762156, 207.490942)" fill="none" stroke-linejoin="miter" d="M 1.248059 24.832147 C 39.357359 -5.612969 85.895275 -5.609166 140.863324 24.832009 " stroke="#0f7610" stroke-width="4" stroke-opacity="1" stroke-miterlimit="4"/><path stroke-linecap="butt" transform="matrix(0.629015, -0.408461, 0.408461, 0.629015, 169.683934, 201.248761)" fill="none" stroke-linejoin="miter" d="M 0.872242 15.994281 C 39.37622 -2.665813 77.88306 -2.662675 116.391231 15.996491 " stroke="#0f7610" stroke-width="4" stroke-opacity="1" stroke-miterlimit="4"/><path stroke-linecap="butt" transform="matrix(0.663677, -0.349331, 0.349331, 0.663677, 143.762954, 191.203142)" fill="none" stroke-linejoin="miter" d="M 0.779232 12.829098 C 34.824554 -1.610849 68.862131 -1.6112 102.903605 12.828288 " stroke="#0f7610" stroke-width="4" stroke-opacity="1" stroke-miterlimit="4"/><path stroke-linecap="butt" transform="matrix(0.686694, -0.301581, 0.301581, 0.686694, 121.526277, 183.043039)" fill="none" stroke-linejoin="miter" d="M 0.699113 10.017178 C 29.369152 -0.668854 58.035489 -0.673536 86.705566 10.012091 " stroke="#0f7610" stroke-width="4" stroke-opacity="1" stroke-miterlimit="4"/><path stroke-linecap="butt" transform="matrix(0.700259, -0.268584, 0.268584, 0.700259, 98.035457, 174.784237)" fill="none" stroke-linejoin="miter" d="M 0.76688 8.456493 C 21.52247 -0.150245 42.285679 -0.152332 63.044917 8.451365 " stroke="#0f7610" stroke-width="4" stroke-opacity="1" stroke-miterlimit="4"/><g transform="matrix(1, 0, 0, 1, 66, 221)"><g clip-path="url(#85f5937ab4)"><g fill="#25602a" fill-opacity="1"><g transform="translate(0.345186, 23.341285)"><g><path d="M 14.53125 0 L 1.1875 0 L 1.1875 -0.875 C 2.175781 -0.945312 2.804688 -1.070312 3.078125 -1.25 C 3.347656 -1.425781 3.484375 -1.785156 3.484375 -2.328125 L 3.484375 -14.5625 C 3.484375 -15.125 3.257812 -15.53125 2.8125 -15.78125 C 2.375 -16.039062 1.832031 -16.195312 1.1875 -16.25 L 1.1875 -17.109375 L 8.390625 -17.109375 L 8.390625 -16.25 C 7.378906 -16.164062 6.734375 -16.015625 6.453125 -15.796875 C 6.179688 -15.578125 6.046875 -15.207031 6.046875 -14.6875 L 6.046875 -3.203125 C 6.046875 -2.171875 6.191406 -1.535156 6.484375 -1.296875 C 6.773438 -1.054688 7.554688 -0.9375 8.828125 -0.9375 C 9.703125 -0.9375 10.382812 -0.984375 10.875 -1.078125 C 11.363281 -1.179688 11.707031 -1.3125 11.90625 -1.46875 C 12.101562 -1.632812 12.441406 -2.109375 12.921875 -2.890625 C 13.398438 -3.679688 13.773438 -4.414062 14.046875 -5.09375 L 14.90625 -5.09375 Z M 14.53125 0 "/></g></g></g><g fill="#25602a" fill-opacity="1"><g transform="translate(15.25094, 23.341285)"><g><path d="M 15.234375 0 L 1.03125 0 L 1.03125 -0.875 C 2.113281 -0.957031 2.789062 -1.09375 3.0625 -1.28125 C 3.34375 -1.46875 3.484375 -1.816406 3.484375 -2.328125 L 3.484375 -14.609375 C 3.484375 -15.171875 3.265625 -15.566406 2.828125 -15.796875 C 2.398438 -16.035156 1.800781 -16.1875 1.03125 -16.25 L 1.03125 -17.109375 L 14.265625 -17.109375 L 14.265625 -12.984375 L 13.375 -12.984375 C 13.207031 -13.609375 12.890625 -14.21875 12.421875 -14.8125 C 11.953125 -15.40625 11.546875 -15.773438 11.203125 -15.921875 C 10.867188 -16.066406 10.046875 -16.140625 8.734375 -16.140625 L 6.046875 -16.140625 L 6.046875 -9.359375 L 7.984375 -9.359375 C 8.890625 -9.359375 9.539062 -9.5625 9.9375 -9.96875 C 10.34375 -10.375 10.625 -11.101562 10.78125 -12.15625 L 11.6875 -12.15625 L 11.6875 -5.453125 L 10.78125 -5.453125 C 10.75 -5.859375 10.640625 -6.332031 10.453125 -6.875 C 10.265625 -7.414062 10 -7.796875 9.65625 -8.015625 C 9.320312 -8.242188 8.765625 -8.359375 7.984375 -8.359375 L 6.046875 -8.359375 L 6.046875 -3.234375 C 6.046875 -2.253906 6.203125 -1.632812 6.515625 -1.375 C 6.828125 -1.113281 7.640625 -0.984375 8.953125 -0.984375 L 10 -0.984375 C 11.125 -0.984375 11.882812 -1.070312 12.28125 -1.25 C 12.675781 -1.425781 13.109375 -1.910156 13.578125 -2.703125 C 14.054688 -3.503906 14.425781 -4.28125 14.6875 -5.03125 L 15.546875 -5.03125 Z M 15.234375 0 "/></g></g></g><g fill="#25602a" fill-opacity="1"><g transform="translate(31.361687, 23.341285)"><g><path d="M 10 0 L 10 -0.875 C 11.46875 -0.957031 12.203125 -1.1875 12.203125 -1.5625 C 12.203125 -1.726562 12.171875 -1.898438 12.109375 -2.078125 L 10.671875 -5.9375 L 4.671875 -5.9375 C 3.878906 -3.894531 3.484375 -2.554688 3.484375 -1.921875 C 3.484375 -1.328125 4.304688 -0.976562 5.953125 -0.875 L 5.953125 0 L -0.5 0 L -0.5 -0.875 C 0.164062 -0.914062 0.695312 -1.066406 1.09375 -1.328125 C 1.5 -1.585938 1.804688 -1.910156 2.015625 -2.296875 C 2.222656 -2.679688 2.96875 -4.523438 4.25 -7.828125 L 7.9375 -17.359375 L 8.90625 -17.359375 L 14.609375 -2.59375 C 15.015625 -1.519531 15.851562 -0.945312 17.125 -0.875 L 17.125 0 Z M 7.65625 -13.625 L 5.109375 -6.984375 L 10.25 -6.984375 Z M 7.65625 -13.625 "/></g></g></g><g fill="#25602a" fill-opacity="1"><g transform="translate(47.918276, 23.341285)"><g><path d="M 1.140625 0 L 1.140625 -0.875 C 2.109375 -0.875 2.738281 -0.984375 3.03125 -1.203125 C 3.332031 -1.429688 3.484375 -1.785156 3.484375 -2.265625 L 3.484375 -14.609375 C 3.484375 -15.140625 3.3125 -15.519531 2.96875 -15.75 C 2.625 -15.988281 2.046875 -16.15625 1.234375 -16.25 L 1.234375 -17.109375 L 8.71875 -17.109375 C 11.125 -17.109375 13.195312 -16.359375 14.9375 -14.859375 C 16.675781 -13.359375 17.546875 -11.21875 17.546875 -8.4375 C 17.546875 -5.832031 16.644531 -3.773438 14.84375 -2.265625 C 13.050781 -0.753906 10.84375 0 8.21875 0 Z M 6.046875 -16.0625 L 6.046875 -2.9375 C 6.046875 -2.207031 6.253906 -1.695312 6.671875 -1.40625 C 7.097656 -1.125 7.753906 -0.984375 8.640625 -0.984375 C 10.585938 -0.984375 12.066406 -1.625 13.078125 -2.90625 C 14.097656 -4.195312 14.609375 -6.050781 14.609375 -8.46875 C 14.609375 -10.726562 14.003906 -12.566406 12.796875 -13.984375 C 11.597656 -15.398438 10.023438 -16.109375 8.078125 -16.109375 C 7.242188 -16.109375 6.566406 -16.09375 6.046875 -16.0625 Z M 6.046875 -16.0625 "/></g></g></g><g fill="#25602a" fill-opacity="1"><g transform="translate(66.402852, 23.341285)"><g/></g></g><g fill="#25602a" fill-opacity="1"><g transform="translate(72.355512, 23.341285)"><g><path d="M 0.96875 0 L 0.96875 -0.875 C 2.09375 -0.945312 2.800781 -1.0625 3.09375 -1.21875 C 3.382812 -1.375 3.53125 -1.710938 3.53125 -2.234375 L 3.53125 -14.640625 C 3.53125 -15.171875 3.289062 -15.554688 2.8125 -15.796875 C 2.332031 -16.046875 1.71875 -16.195312 0.96875 -16.25 L 0.96875 -17.109375 L 8.671875 -17.109375 L 8.671875 -16.25 C 7.585938 -16.164062 6.882812 -16.019531 6.5625 -15.8125 C 6.25 -15.613281 6.09375 -15.265625 6.09375 -14.765625 L 6.09375 -2.40625 C 6.09375 -1.976562 6.226562 -1.640625 6.5 -1.390625 C 6.78125 -1.140625 7.503906 -0.96875 8.671875 -0.875 L 8.671875 0 Z M 0.96875 0 "/></g></g></g><g fill="#25602a" fill-opacity="1"><g transform="translate(81.983402, 23.341285)"><g><path d="M 18.734375 -16.25 C 17.554688 -16.09375 16.796875 -15.832031 16.453125 -15.46875 C 16.117188 -15.113281 15.953125 -14.070312 15.953125 -12.34375 L 15.953125 0.171875 L 14.90625 0.171875 L 4.546875 -13.828125 L 4.546875 -5.015625 C 4.546875 -3.953125 4.609375 -3.175781 4.734375 -2.6875 C 4.867188 -2.195312 5.023438 -1.859375 5.203125 -1.671875 C 5.378906 -1.492188 5.726562 -1.320312 6.25 -1.15625 C 6.769531 -1 7.222656 -0.90625 7.609375 -0.875 L 7.609375 0 L 0.5625 0 L 0.5625 -0.875 C 1.519531 -1.007812 2.226562 -1.222656 2.6875 -1.515625 C 3.15625 -1.816406 3.390625 -2.929688 3.390625 -4.859375 L 3.390625 -13.3125 C 3.390625 -14.96875 2.359375 -15.945312 0.296875 -16.25 L 0.296875 -17.109375 L 5.15625 -17.109375 L 14.796875 -4.078125 L 14.796875 -12.203125 C 14.796875 -14.035156 14.566406 -15.128906 14.109375 -15.484375 C 13.648438 -15.835938 12.875 -16.09375 11.78125 -16.25 L 11.78125 -17.109375 L 18.734375 -17.109375 Z M 18.734375 -16.25 "/></g></g></g><g fill="#25602a" fill-opacity="1"><g transform="translate(100.91383, 23.341285)"><g><path d="M 14.21875 0 L 14.21875 -0.875 C 15.050781 -0.9375 15.597656 -0.992188 15.859375 -1.046875 C 16.128906 -1.097656 16.367188 -1.25 16.578125 -1.5 C 16.785156 -1.75 16.890625 -2.054688 16.890625 -2.421875 L 16.890625 -14.859375 L 16.6875 -14.859375 L 10.859375 -0.28125 L 10.265625 -0.28125 L 4.6875 -15.15625 L 4.546875 -15.15625 L 4.546875 -4.9375 C 4.546875 -3.894531 4.625 -3.0625 4.78125 -2.4375 C 4.945312 -1.8125 5.367188 -1.398438 6.046875 -1.203125 C 6.722656 -1.003906 7.203125 -0.894531 7.484375 -0.875 L 7.484375 0 L 0.5625 0 L 0.5625 -0.875 C 1.800781 -0.976562 2.582031 -1.257812 2.90625 -1.71875 C 3.226562 -2.1875 3.390625 -3.21875 3.390625 -4.8125 L 3.390625 -13.546875 C 3.390625 -15.253906 2.488281 -16.15625 0.6875 -16.25 L 0.6875 -17.109375 L 6.515625 -17.109375 L 11.40625 -4.265625 L 15.59375 -15 C 15.875 -15.707031 16.066406 -16.410156 16.171875 -17.109375 L 21.75 -17.109375 L 21.75 -16.25 C 20.769531 -16.164062 20.140625 -16.023438 19.859375 -15.828125 C 19.578125 -15.628906 19.4375 -15.269531 19.4375 -14.75 L 19.4375 -2.421875 C 19.4375 -1.910156 19.59375 -1.539062 19.90625 -1.3125 C 20.226562 -1.09375 20.847656 -0.945312 21.765625 -0.875 L 21.765625 0 Z M 14.21875 0 "/></g></g></g><g fill="#25602a" fill-opacity="1"><g transform="translate(123.784577, 23.341285)"><g><path d="M 9.1875 0.421875 C 6.832031 0.421875 4.875 -0.421875 3.3125 -2.109375 C 1.75 -3.804688 0.96875 -5.953125 0.96875 -8.546875 C 0.96875 -11.160156 1.757812 -13.304688 3.34375 -14.984375 C 4.925781 -16.660156 6.875 -17.5 9.1875 -17.5 C 11.53125 -17.5 13.484375 -16.660156 15.046875 -14.984375 C 16.617188 -13.316406 17.40625 -11.171875 17.40625 -8.546875 C 17.40625 -5.910156 16.609375 -3.753906 15.015625 -2.078125 C 13.429688 -0.410156 11.488281 0.421875 9.1875 0.421875 Z M 9.1875 -16.4375 C 7.507812 -16.4375 6.203125 -15.726562 5.265625 -14.3125 C 4.335938 -12.894531 3.875 -10.972656 3.875 -8.546875 C 3.875 -6.097656 4.335938 -4.171875 5.265625 -2.765625 C 6.203125 -1.359375 7.507812 -0.65625 9.1875 -0.65625 C 10.875 -0.65625 12.175781 -1.359375 13.09375 -2.765625 C 14.019531 -4.179688 14.484375 -6.109375 14.484375 -8.546875 C 14.484375 -10.992188 14.015625 -12.921875 13.078125 -14.328125 C 12.148438 -15.734375 10.851562 -16.4375 9.1875 -16.4375 Z M 9.1875 -16.4375 "/></g></g></g><g fill="#25602a" fill-opacity="1"><g transform="translate(142.148654, 23.341285)"><g><path d="M 1.140625 0 L 1.140625 -0.875 C 2.097656 -0.9375 2.726562 -1.066406 3.03125 -1.265625 C 3.332031 -1.472656 3.484375 -1.828125 3.484375 -2.328125 L 3.484375 -14.609375 C 3.484375 -15.578125 2.734375 -16.125 1.234375 -16.25 L 1.234375 -17.109375 L 9.140625 -17.109375 C 10.566406 -17.109375 11.75 -16.785156 12.6875 -16.140625 C 13.625 -15.492188 14.09375 -14.570312 14.09375 -13.375 C 14.09375 -11.25 12.742188 -9.867188 10.046875 -9.234375 L 10.046875 -9.140625 C 13.367188 -8.640625 15.03125 -7.140625 15.03125 -4.640625 C 15.03125 -3.242188 14.46875 -2.117188 13.34375 -1.265625 C 12.226562 -0.421875 10.867188 0 9.265625 0 Z M 6.046875 -16.09375 L 6.046875 -9.53125 L 7.578125 -9.53125 C 9.992188 -9.53125 11.203125 -10.734375 11.203125 -13.140625 C 11.203125 -15.140625 10.132812 -16.140625 8 -16.140625 C 7.28125 -16.140625 6.628906 -16.125 6.046875 -16.09375 Z M 6.046875 -8.515625 L 6.046875 -2.5 C 6.046875 -1.476562 6.816406 -0.96875 8.359375 -0.96875 C 10.828125 -0.96875 12.0625 -2.34375 12.0625 -5.09375 C 12.0625 -6.144531 11.710938 -6.988281 11.015625 -7.625 C 10.316406 -8.257812 9.363281 -8.578125 8.15625 -8.578125 C 7.207031 -8.578125 6.503906 -8.554688 6.046875 -8.515625 Z M 6.046875 -8.515625 "/></g></g></g><g fill="#25602a" fill-opacity="1"><g transform="translate(158.283501, 23.341285)"><g><path d="M 0.96875 0 L 0.96875 -0.875 C 2.09375 -0.945312 2.800781 -1.0625 3.09375 -1.21875 C 3.382812 -1.375 3.53125 -1.710938 3.53125 -2.234375 L 3.53125 -14.640625 C 3.53125 -15.171875 3.289062 -15.554688 2.8125 -15.796875 C 2.332031 -16.046875 1.71875 -16.195312 0.96875 -16.25 L 0.96875 -17.109375 L 8.671875 -17.109375 L 8.671875 -16.25 C 7.585938 -16.164062 6.882812 -16.019531 6.5625 -15.8125 C 6.25 -15.613281 6.09375 -15.265625 6.09375 -14.765625 L 6.09375 -2.40625 C 6.09375 -1.976562 6.226562 -1.640625 6.5 -1.390625 C 6.78125 -1.140625 7.503906 -0.96875 8.671875 -0.875 L 8.671875 0 Z M 0.96875 0 "/></g></g></g><g fill="#25602a" fill-opacity="1"><g transform="translate(167.911391, 23.341285)"><g><path d="M 14.53125 0 L 1.1875 0 L 1.1875 -0.875 C 2.175781 -0.945312 2.804688 -1.070312 3.078125 -1.25 C 3.347656 -1.425781 3.484375 -1.785156 3.484375 -2.328125 L 3.484375 -14.5625 C 3.484375 -15.125 3.257812 -15.53125 2.8125 -15.78125 C 2.375 -16.039062 1.832031 -16.195312 1.1875 -16.25 L 1.1875 -17.109375 L 8.390625 -17.109375 L 8.390625 -16.25 C 7.378906 -16.164062 6.734375 -16.015625 6.453125 -15.796875 C 6.179688 -15.578125 6.046875 -15.207031 6.046875 -14.6875 L 6.046875 -3.203125 C 6.046875 -2.171875 6.191406 -1.535156 6.484375 -1.296875 C 6.773438 -1.054688 7.554688 -0.9375 8.828125 -0.9375 C 9.703125 -0.9375 10.382812 -0.984375 10.875 -1.078125 C 11.363281 -1.179688 11.707031 -1.3125 11.90625 -1.46875 C 12.101562 -1.632812 12.441406 -2.109375 12.921875 -2.890625 C 13.398438 -3.679688 13.773438 -4.414062 14.046875 -5.09375 L 14.90625 -5.09375 Z M 14.53125 0 "/></g></g></g><g fill="#25602a" fill-opacity="1"><g transform="translate(182.817155, 23.341285)"><g><path d="M 0.96875 0 L 0.96875 -0.875 C 2.09375 -0.945312 2.800781 -1.0625 3.09375 -1.21875 C 3.382812 -1.375 3.53125 -1.710938 3.53125 -2.234375 L 3.53125 -14.640625 C 3.53125 -15.171875 3.289062 -15.554688 2.8125 -15.796875 C 2.332031 -16.046875 1.71875 -16.195312 0.96875 -16.25 L 0.96875 -17.109375 L 8.671875 -17.109375 L 8.671875 -16.25 C 7.585938 -16.164062 6.882812 -16.019531 6.5625 -15.8125 C 6.25 -15.613281 6.09375 -15.265625 6.09375 -14.765625 L 6.09375 -2.40625 C 6.09375 -1.976562 6.226562 -1.640625 6.5 -1.390625 C 6.78125 -1.140625 7.503906 -0.96875 8.671875 -0.875 L 8.671875 0 Z M 0.96875 0 "/></g></g></g><g fill="#25602a" fill-opacity="1"><g transform="translate(192.445045, 23.341285)"><g><path d="M 10 0 L 10 -0.875 C 11.46875 -0.957031 12.203125 -1.1875 12.203125 -1.5625 C 12.203125 -1.726562 12.171875 -1.898438 12.109375 -2.078125 L 10.671875 -5.9375 L 4.671875 -5.9375 C 3.878906 -3.894531 3.484375 -2.554688 3.484375 -1.921875 C 3.484375 -1.328125 4.304688 -0.976562 5.953125 -0.875 L 5.953125 0 L -0.5 0 L -0.5 -0.875 C 0.164062 -0.914062 0.695312 -1.066406 1.09375 -1.328125 C 1.5 -1.585938 1.804688 -1.910156 2.015625 -2.296875 C 2.222656 -2.679688 2.96875 -4.523438 4.25 -7.828125 L 7.9375 -17.359375 L 8.90625 -17.359375 L 14.609375 -2.59375 C 15.015625 -1.519531 15.851562 -0.945312 17.125 -0.875 L 17.125 0 Z M 7.65625 -13.625 L 5.109375 -6.984375 L 10.25 -6.984375 Z M 7.65625 -13.625 "/></g></g></g><g fill="#25602a" fill-opacity="1"><g transform="translate(209.001625, 23.341285)"><g><path d="M 13.234375 0 C 11.472656 -2.769531 9.65625 -5.351562 7.78125 -7.75 L 6.046875 -7.75 L 6.046875 -2.328125 C 6.046875 -1.753906 6.179688 -1.390625 6.453125 -1.234375 C 6.722656 -1.078125 7.375 -0.957031 8.40625 -0.875 L 8.40625 0 L 1.1875 0 L 1.1875 -0.875 C 2.175781 -0.945312 2.804688 -1.070312 3.078125 -1.25 C 3.347656 -1.425781 3.484375 -1.785156 3.484375 -2.328125 L 3.484375 -14.6875 C 3.484375 -15.21875 3.335938 -15.585938 3.046875 -15.796875 C 2.753906 -16.015625 2.132812 -16.164062 1.1875 -16.25 L 1.1875 -17.109375 L 9.09375 -17.109375 C 10.738281 -17.109375 12.046875 -16.75 13.015625 -16.03125 C 13.984375 -15.320312 14.46875 -14.320312 14.46875 -13.03125 C 14.46875 -10.757812 13.078125 -9.21875 10.296875 -8.40625 C 10.867188 -7.6875 12 -6.175781 13.6875 -3.875 C 14.5625 -2.675781 15.113281 -1.984375 15.34375 -1.796875 C 15.582031 -1.609375 15.859375 -1.414062 16.171875 -1.21875 C 16.484375 -1.03125 17.046875 -0.914062 17.859375 -0.875 L 17.859375 0 Z M 6.046875 -16.109375 L 6.046875 -8.78125 L 7.625 -8.78125 C 8.78125 -8.78125 9.710938 -9.148438 10.421875 -9.890625 C 11.140625 -10.628906 11.5 -11.585938 11.5 -12.765625 C 11.5 -13.828125 11.195312 -14.648438 10.59375 -15.234375 C 9.988281 -15.816406 9.15625 -16.109375 8.09375 -16.109375 Z M 6.046875 -16.109375 "/></g></g></g><g fill="#25602a" fill-opacity="1"><g transform="translate(226.329399, 23.341285)"><g><path d="M 0.96875 0 L 0.96875 -0.875 C 2.09375 -0.945312 2.800781 -1.0625 3.09375 -1.21875 C 3.382812 -1.375 3.53125 -1.710938 3.53125 -2.234375 L 3.53125 -14.640625 C 3.53125 -15.171875 3.289062 -15.554688 2.8125 -15.796875 C 2.332031 -16.046875 1.71875 -16.195312 0.96875 -16.25 L 0.96875 -17.109375 L 8.671875 -17.109375 L 8.671875 -16.25 C 7.585938 -16.164062 6.882812 -16.019531 6.5625 -15.8125 C 6.25 -15.613281 6.09375 -15.265625 6.09375 -14.765625 L 6.09375 -2.40625 C 6.09375 -1.976562 6.226562 -1.640625 6.5 -1.390625 C 6.78125 -1.140625 7.503906 -0.96875 8.671875 -0.875 L 8.671875 0 Z M 0.96875 0 "/></g></g></g><g fill="#25602a" fill-opacity="1"><g transform="translate(235.95729, 23.341285)"><g><path d="M 10 0 L 10 -0.875 C 11.46875 -0.957031 12.203125 -1.1875 12.203125 -1.5625 C 12.203125 -1.726562 12.171875 -1.898438 12.109375 -2.078125 L 10.671875 -5.9375 L 4.671875 -5.9375 C 3.878906 -3.894531 3.484375 -2.554688 3.484375 -1.921875 C 3.484375 -1.328125 4.304688 -0.976562 5.953125 -0.875 L 5.953125 0 L -0.5 0 L -0.5 -0.875 C 0.164062 -0.914062 0.695312 -1.066406 1.09375 -1.328125 C 1.5 -1.585938 1.804688 -1.910156 2.015625 -2.296875 C 2.222656 -2.679688 2.96875 -4.523438 4.25 -7.828125 L 7.9375 -17.359375 L 8.90625 -17.359375 L 14.609375 -2.59375 C 15.015625 -1.519531 15.851562 -0.945312 17.125 -0.875 L 17.125 0 Z M 7.65625 -13.625 L 5.109375 -6.984375 L 10.25 -6.984375 Z M 7.65625 -13.625 "/></g></g></g><g fill="#25602a" fill-opacity="1"><g transform="translate(252.521364, 23.341285)"><g/></g></g></g></g><g fill="#9fe083" fill-opacity="1"><g transform="translate(41.646509, 262.319337)"><g><path d="M 1.65625 -0.765625 L 4.34375 -0.765625 L 4.34375 0 L 0.875 0 L 0.875 -7.234375 L 1.65625 -7.234375 Z M 1.65625 -0.765625 "/></g></g></g><g fill="#9fe083" fill-opacity="1"><g transform="translate(47.140451, 262.319337)"><g><path d="M 5.234375 0 L 4.65625 -1.6875 L 1.4375 -1.6875 L 0.84375 0 L 0 0 L 2.609375 -7.234375 L 3.46875 -7.234375 L 6.078125 0 Z M 1.6875 -2.421875 L 4.40625 -2.421875 L 3.046875 -6.3125 Z M 1.6875 -2.421875 "/></g></g></g><g fill="#9fe083" fill-opacity="1"><g transform="translate(54.271962, 262.319337)"><g/></g></g><g fill="#9fe083" fill-opacity="1"><g transform="translate(58.22466, 262.319337)"><g><path d="M 7.25 -7.234375 L 8.0625 -7.234375 L 8.0625 0 L 7.296875 0 L 7.296875 -5.6875 L 4.78125 0 L 4.140625 0 L 1.65625 -5.71875 L 1.65625 0 L 0.875 0 L 0.875 -7.234375 L 1.703125 -7.234375 L 4.46875 -0.921875 Z M 7.25 -7.234375 "/></g></g></g><g fill="#9fe083" fill-opacity="1"><g transform="translate(68.209881, 262.319337)"><g><path d="M 4.890625 -6.484375 L 1.71875 -6.484375 L 1.71875 -3.984375 L 4.484375 -3.984375 L 4.484375 -3.234375 L 1.71875 -3.234375 L 1.71875 -0.75 L 4.890625 -0.75 L 4.890625 0 L 0.9375 0 L 0.9375 -7.234375 L 4.890625 -7.234375 Z M 4.890625 -6.484375 "/></g></g></g><g fill="#9fe083" fill-opacity="1"><g transform="translate(74.871796, 262.319337)"><g><path d="M 4.046875 -7.234375 L 4.046875 -1.75 C 4.046875 -1.1875 3.875 -0.738281 3.53125 -0.40625 C 3.195312 -0.0703125 2.757812 0.09375 2.21875 0.09375 C 1.707031 0.09375 1.289062 -0.046875 0.96875 -0.328125 C 0.644531 -0.617188 0.453125 -1.007812 0.390625 -1.5 L 1.1875 -1.65625 C 1.21875 -1.363281 1.328125 -1.125 1.515625 -0.9375 C 1.710938 -0.757812 1.945312 -0.671875 2.21875 -0.671875 C 2.519531 -0.671875 2.769531 -0.773438 2.96875 -0.984375 C 3.175781 -1.191406 3.28125 -1.472656 3.28125 -1.828125 L 3.28125 -6.453125 L 0.734375 -6.453125 L 0.734375 -7.234375 Z M 4.046875 -7.234375 "/></g></g></g><g fill="#9fe083" fill-opacity="1"><g transform="translate(80.690841, 262.319337)"><g><path d="M 4.296875 0.09375 C 3.785156 0.09375 3.304688 0 2.859375 -0.1875 C 2.410156 -0.382812 2.015625 -0.648438 1.671875 -0.984375 C 1.335938 -1.328125 1.070312 -1.722656 0.875 -2.171875 C 0.6875 -2.617188 0.59375 -3.097656 0.59375 -3.609375 C 0.59375 -4.128906 0.6875 -4.609375 0.875 -5.046875 C 1.070312 -5.492188 1.335938 -5.890625 1.671875 -6.234375 C 2.015625 -6.578125 2.410156 -6.84375 2.859375 -7.03125 C 3.304688 -7.226562 3.785156 -7.328125 4.296875 -7.328125 C 4.816406 -7.328125 5.300781 -7.226562 5.75 -7.03125 C 6.195312 -6.84375 6.585938 -6.578125 6.921875 -6.234375 C 7.265625 -5.890625 7.53125 -5.492188 7.71875 -5.046875 C 7.914062 -4.609375 8.015625 -4.128906 8.015625 -3.609375 C 8.015625 -3.097656 7.914062 -2.617188 7.71875 -2.171875 C 7.53125 -1.722656 7.265625 -1.328125 6.921875 -0.984375 C 6.585938 -0.648438 6.195312 -0.382812 5.75 -0.1875 C 5.300781 0 4.816406 0.09375 4.296875 0.09375 Z M 4.296875 -0.671875 C 4.847656 -0.671875 5.34375 -0.800781 5.78125 -1.0625 C 6.226562 -1.320312 6.582031 -1.675781 6.84375 -2.125 C 7.113281 -2.570312 7.25 -3.066406 7.25 -3.609375 C 7.25 -4.160156 7.113281 -4.65625 6.84375 -5.09375 C 6.582031 -5.539062 6.226562 -5.894531 5.78125 -6.15625 C 5.34375 -6.425781 4.847656 -6.5625 4.296875 -6.5625 C 3.765625 -6.5625 3.273438 -6.425781 2.828125 -6.15625 C 2.378906 -5.894531 2.019531 -5.539062 1.75 -5.09375 C 1.488281 -4.65625 1.359375 -4.160156 1.359375 -3.609375 C 1.359375 -3.066406 1.488281 -2.570312 1.75 -2.125 C 2.019531 -1.675781 2.378906 -1.320312 2.828125 -1.0625 C 3.273438 -0.800781 3.765625 -0.671875 4.296875 -0.671875 Z M 4.296875 -0.671875 "/></g></g></g><g fill="#9fe083" fill-opacity="1"><g transform="translate(90.350959, 262.319337)"><g><path d="M 3.8125 -3.296875 L 5.9375 0 L 5.0625 0 L 3.015625 -3.265625 L 1.65625 -3.265625 L 1.65625 0 L 0.875 0 L 0.875 -7.234375 L 3.46875 -7.234375 C 3.84375 -7.234375 4.179688 -7.140625 4.484375 -6.953125 C 4.785156 -6.773438 5.023438 -6.53125 5.203125 -6.21875 C 5.390625 -5.914062 5.484375 -5.578125 5.484375 -5.203125 C 5.484375 -4.878906 5.40625 -4.582031 5.25 -4.3125 C 5.101562 -4.039062 4.90625 -3.816406 4.65625 -3.640625 C 4.414062 -3.460938 4.132812 -3.347656 3.8125 -3.296875 Z M 1.65625 -4 L 3.421875 -4 C 3.796875 -4 4.101562 -4.109375 4.34375 -4.328125 C 4.59375 -4.554688 4.71875 -4.859375 4.71875 -5.234375 C 4.71875 -5.585938 4.59375 -5.878906 4.34375 -6.109375 C 4.09375 -6.335938 3.785156 -6.453125 3.421875 -6.453125 L 1.65625 -6.453125 Z M 1.65625 -4 "/></g></g></g><g fill="#9fe083" fill-opacity="1"><g transform="translate(97.446341, 262.319337)"><g/></g></g><g fill="#9fe083" fill-opacity="1"><g transform="translate(101.399038, 262.319337)"><g><path d="M 5.234375 0 L 4.65625 -1.6875 L 1.4375 -1.6875 L 0.84375 0 L 0 0 L 2.609375 -7.234375 L 3.46875 -7.234375 L 6.078125 0 Z M 1.6875 -2.421875 L 4.40625 -2.421875 L 3.046875 -6.3125 Z M 1.6875 -2.421875 "/></g></g></g><g fill="#9fe083" fill-opacity="1"><g transform="translate(108.53055, 262.319337)"><g><path d="M 2.703125 0.09375 C 2.160156 0.09375 1.675781 -0.0390625 1.25 -0.3125 C 0.832031 -0.582031 0.53125 -0.9375 0.34375 -1.375 L 1.046875 -1.78125 C 1.171875 -1.457031 1.375 -1.191406 1.65625 -0.984375 C 1.945312 -0.773438 2.300781 -0.671875 2.71875 -0.671875 C 3.113281 -0.671875 3.453125 -0.773438 3.734375 -0.984375 C 4.015625 -1.191406 4.15625 -1.488281 4.15625 -1.875 C 4.15625 -2.175781 4.070312 -2.421875 3.90625 -2.609375 C 3.738281 -2.796875 3.519531 -2.953125 3.25 -3.078125 C 2.976562 -3.210938 2.691406 -3.335938 2.390625 -3.453125 C 2.097656 -3.566406 1.816406 -3.703125 1.546875 -3.859375 C 1.273438 -4.023438 1.054688 -4.226562 0.890625 -4.46875 C 0.722656 -4.71875 0.640625 -5.035156 0.640625 -5.421875 C 0.640625 -5.816406 0.726562 -6.15625 0.90625 -6.4375 C 1.09375 -6.726562 1.335938 -6.945312 1.640625 -7.09375 C 1.941406 -7.25 2.28125 -7.328125 2.65625 -7.328125 C 3.070312 -7.328125 3.445312 -7.238281 3.78125 -7.0625 C 4.113281 -6.894531 4.378906 -6.679688 4.578125 -6.421875 L 3.984375 -5.921875 C 3.679688 -6.347656 3.242188 -6.5625 2.671875 -6.5625 C 2.335938 -6.5625 2.039062 -6.472656 1.78125 -6.296875 C 1.53125 -6.117188 1.40625 -5.847656 1.40625 -5.484375 C 1.40625 -5.191406 1.488281 -4.957031 1.65625 -4.78125 C 1.832031 -4.601562 2.050781 -4.453125 2.3125 -4.328125 C 2.582031 -4.203125 2.863281 -4.082031 3.15625 -3.96875 C 3.457031 -3.851562 3.742188 -3.710938 4.015625 -3.546875 C 4.285156 -3.378906 4.503906 -3.164062 4.671875 -2.90625 C 4.835938 -2.644531 4.921875 -2.3125 4.921875 -1.90625 C 4.921875 -1.488281 4.820312 -1.128906 4.625 -0.828125 C 4.425781 -0.523438 4.15625 -0.296875 3.8125 -0.140625 C 3.476562 0.015625 3.109375 0.09375 2.703125 0.09375 Z M 2.703125 0.09375 "/></g></g></g><g fill="#9fe083" fill-opacity="1"><g transform="translate(114.85531, 262.319337)"><g><path d="M 4.890625 -6.484375 L 1.71875 -6.484375 L 1.71875 -3.984375 L 4.484375 -3.984375 L 4.484375 -3.234375 L 1.71875 -3.234375 L 1.71875 -0.75 L 4.890625 -0.75 L 4.890625 0 L 0.9375 0 L 0.9375 -7.234375 L 4.890625 -7.234375 Z M 4.890625 -6.484375 "/></g></g></g><g fill="#9fe083" fill-opacity="1"><g transform="translate(121.517224, 262.319337)"><g><path d="M 2.703125 0.09375 C 2.160156 0.09375 1.675781 -0.0390625 1.25 -0.3125 C 0.832031 -0.582031 0.53125 -0.9375 0.34375 -1.375 L 1.046875 -1.78125 C 1.171875 -1.457031 1.375 -1.191406 1.65625 -0.984375 C 1.945312 -0.773438 2.300781 -0.671875 2.71875 -0.671875 C 3.113281 -0.671875 3.453125 -0.773438 3.734375 -0.984375 C 4.015625 -1.191406 4.15625 -1.488281 4.15625 -1.875 C 4.15625 -2.175781 4.070312 -2.421875 3.90625 -2.609375 C 3.738281 -2.796875 3.519531 -2.953125 3.25 -3.078125 C 2.976562 -3.210938 2.691406 -3.335938 2.390625 -3.453125 C 2.097656 -3.566406 1.816406 -3.703125 1.546875 -3.859375 C 1.273438 -4.023438 1.054688 -4.226562 0.890625 -4.46875 C 0.722656 -4.71875 0.640625 -5.035156 0.640625 -5.421875 C 0.640625 -5.816406 0.726562 -6.15625 0.90625 -6.4375 C 1.09375 -6.726562 1.335938 -6.945312 1.640625 -7.09375 C 1.941406 -7.25 2.28125 -7.328125 2.65625 -7.328125 C 3.070312 -7.328125 3.445312 -7.238281 3.78125 -7.0625 C 4.113281 -6.894531 4.378906 -6.679688 4.578125 -6.421875 L 3.984375 -5.921875 C 3.679688 -6.347656 3.242188 -6.5625 2.671875 -6.5625 C 2.335938 -6.5625 2.039062 -6.472656 1.78125 -6.296875 C 1.53125 -6.117188 1.40625 -5.847656 1.40625 -5.484375 C 1.40625 -5.191406 1.488281 -4.957031 1.65625 -4.78125 C 1.832031 -4.601562 2.050781 -4.453125 2.3125 -4.328125 C 2.582031 -4.203125 2.863281 -4.082031 3.15625 -3.96875 C 3.457031 -3.851562 3.742188 -3.710938 4.015625 -3.546875 C 4.285156 -3.378906 4.503906 -3.164062 4.671875 -2.90625 C 4.835938 -2.644531 4.921875 -2.3125 4.921875 -1.90625 C 4.921875 -1.488281 4.820312 -1.128906 4.625 -0.828125 C 4.425781 -0.523438 4.15625 -0.296875 3.8125 -0.140625 C 3.476562 0.015625 3.109375 0.09375 2.703125 0.09375 Z M 2.703125 0.09375 "/></g></g></g><g fill="#9fe083" fill-opacity="1"><g transform="translate(127.841984, 262.319337)"><g><path d="M 4.296875 0.09375 C 3.785156 0.09375 3.304688 0 2.859375 -0.1875 C 2.410156 -0.382812 2.015625 -0.648438 1.671875 -0.984375 C 1.335938 -1.328125 1.070312 -1.722656 0.875 -2.171875 C 0.6875 -2.617188 0.59375 -3.097656 0.59375 -3.609375 C 0.59375 -4.128906 0.6875 -4.609375 0.875 -5.046875 C 1.070312 -5.492188 1.335938 -5.890625 1.671875 -6.234375 C 2.015625 -6.578125 2.410156 -6.84375 2.859375 -7.03125 C 3.304688 -7.226562 3.785156 -7.328125 4.296875 -7.328125 C 4.816406 -7.328125 5.300781 -7.226562 5.75 -7.03125 C 6.195312 -6.84375 6.585938 -6.578125 6.921875 -6.234375 C 7.265625 -5.890625 7.53125 -5.492188 7.71875 -5.046875 C 7.914062 -4.609375 8.015625 -4.128906 8.015625 -3.609375 C 8.015625 -3.097656 7.914062 -2.617188 7.71875 -2.171875 C 7.53125 -1.722656 7.265625 -1.328125 6.921875 -0.984375 C 6.585938 -0.648438 6.195312 -0.382812 5.75 -0.1875 C 5.300781 0 4.816406 0.09375 4.296875 0.09375 Z M 4.296875 -0.671875 C 4.847656 -0.671875 5.34375 -0.800781 5.78125 -1.0625 C 6.226562 -1.320312 6.582031 -1.675781 6.84375 -2.125 C 7.113281 -2.570312 7.25 -3.066406 7.25 -3.609375 C 7.25 -4.160156 7.113281 -4.65625 6.84375 -5.09375 C 6.582031 -5.539062 6.226562 -5.894531 5.78125 -6.15625 C 5.34375 -6.425781 4.847656 -6.5625 4.296875 -6.5625 C 3.765625 -6.5625 3.273438 -6.425781 2.828125 -6.15625 C 2.378906 -5.894531 2.019531 -5.539062 1.75 -5.09375 C 1.488281 -4.65625 1.359375 -4.160156 1.359375 -3.609375 C 1.359375 -3.066406 1.488281 -2.570312 1.75 -2.125 C 2.019531 -1.675781 2.378906 -1.320312 2.828125 -1.0625 C 3.273438 -0.800781 3.765625 -0.671875 4.296875 -0.671875 Z M 4.296875 -0.671875 "/></g></g></g><g fill="#9fe083" fill-opacity="1"><g transform="translate(137.502102, 262.319337)"><g><path d="M 3.8125 -3.296875 L 5.9375 0 L 5.0625 0 L 3.015625 -3.265625 L 1.65625 -3.265625 L 1.65625 0 L 0.875 0 L 0.875 -7.234375 L 3.46875 -7.234375 C 3.84375 -7.234375 4.179688 -7.140625 4.484375 -6.953125 C 4.785156 -6.773438 5.023438 -6.53125 5.203125 -6.21875 C 5.390625 -5.914062 5.484375 -5.578125 5.484375 -5.203125 C 5.484375 -4.878906 5.40625 -4.582031 5.25 -4.3125 C 5.101562 -4.039062 4.90625 -3.816406 4.65625 -3.640625 C 4.414062 -3.460938 4.132812 -3.347656 3.8125 -3.296875 Z M 1.65625 -4 L 3.421875 -4 C 3.796875 -4 4.101562 -4.109375 4.34375 -4.328125 C 4.59375 -4.554688 4.71875 -4.859375 4.71875 -5.234375 C 4.71875 -5.585938 4.59375 -5.878906 4.34375 -6.109375 C 4.09375 -6.335938 3.785156 -6.453125 3.421875 -6.453125 L 1.65625 -6.453125 Z M 1.65625 -4 "/></g></g></g><g fill="#9fe083" fill-opacity="1"><g transform="translate(144.597484, 262.319337)"><g><path d="M 0.9375 0 L 0.9375 -7.234375 L 1.71875 -7.234375 L 1.71875 0 Z M 0.9375 0 "/></g></g></g><g fill="#9fe083" fill-opacity="1"><g transform="translate(148.285273, 262.319337)"><g><path d="M 5.234375 0 L 4.65625 -1.6875 L 1.4375 -1.6875 L 0.84375 0 L 0 0 L 2.609375 -7.234375 L 3.46875 -7.234375 L 6.078125 0 Z M 1.6875 -2.421875 L 4.40625 -2.421875 L 3.046875 -6.3125 Z M 1.6875 -2.421875 "/></g></g></g><g fill="#9fe083" fill-opacity="1"><g transform="translate(155.416785, 262.319337)"><g/></g></g><g fill="#9fe083" fill-opacity="1"><g transform="translate(159.369482, 262.319337)"><g><path d="M 3.46875 -7.234375 C 3.84375 -7.234375 4.179688 -7.140625 4.484375 -6.953125 C 4.785156 -6.773438 5.023438 -6.53125 5.203125 -6.21875 C 5.390625 -5.914062 5.484375 -5.582031 5.484375 -5.21875 C 5.484375 -4.84375 5.390625 -4.503906 5.203125 -4.203125 C 5.023438 -3.898438 4.785156 -3.660156 4.484375 -3.484375 C 4.179688 -3.304688 3.84375 -3.21875 3.46875 -3.21875 L 1.65625 -3.21875 L 1.65625 0 L 0.875 0 L 0.875 -7.234375 Z M 3.390625 -3.953125 C 3.753906 -3.953125 4.066406 -4.0625 4.328125 -4.28125 C 4.585938 -4.5 4.71875 -4.804688 4.71875 -5.203125 C 4.71875 -5.585938 4.585938 -5.894531 4.328125 -6.125 C 4.066406 -6.363281 3.753906 -6.484375 3.390625 -6.484375 L 1.65625 -6.484375 L 1.65625 -3.953125 Z M 3.390625 -3.953125 "/></g></g></g><g fill="#9fe083" fill-opacity="1"><g transform="translate(166.103643, 262.319337)"><g><path d="M 5.234375 0 L 4.65625 -1.6875 L 1.4375 -1.6875 L 0.84375 0 L 0 0 L 2.609375 -7.234375 L 3.46875 -7.234375 L 6.078125 0 Z M 1.6875 -2.421875 L 4.40625 -2.421875 L 3.046875 -6.3125 Z M 1.6875 -2.421875 "/></g></g></g><g fill="#9fe083" fill-opacity="1"><g transform="translate(173.235154, 262.319337)"><g><path d="M 3.8125 -3.296875 L 5.9375 0 L 5.0625 0 L 3.015625 -3.265625 L 1.65625 -3.265625 L 1.65625 0 L 0.875 0 L 0.875 -7.234375 L 3.46875 -7.234375 C 3.84375 -7.234375 4.179688 -7.140625 4.484375 -6.953125 C 4.785156 -6.773438 5.023438 -6.53125 5.203125 -6.21875 C 5.390625 -5.914062 5.484375 -5.578125 5.484375 -5.203125 C 5.484375 -4.878906 5.40625 -4.582031 5.25 -4.3125 C 5.101562 -4.039062 4.90625 -3.816406 4.65625 -3.640625 C 4.414062 -3.460938 4.132812 -3.347656 3.8125 -3.296875 Z M 1.65625 -4 L 3.421875 -4 C 3.796875 -4 4.101562 -4.109375 4.34375 -4.328125 C 4.59375 -4.554688 4.71875 -4.859375 4.71875 -5.234375 C 4.71875 -5.585938 4.59375 -5.878906 4.34375 -6.109375 C 4.09375 -6.335938 3.785156 -6.453125 3.421875 -6.453125 L 1.65625 -6.453125 Z M 1.65625 -4 "/></g></g></g><g fill="#9fe083" fill-opacity="1"><g transform="translate(180.330537, 262.319337)"><g><path d="M 5.234375 0 L 4.65625 -1.6875 L 1.4375 -1.6875 L 0.84375 0 L 0 0 L 2.609375 -7.234375 L 3.46875 -7.234375 L 6.078125 0 Z M 1.6875 -2.421875 L 4.40625 -2.421875 L 3.046875 -6.3125 Z M 1.6875 -2.421875 "/></g></g></g><g fill="#9fe083" fill-opacity="1"><g transform="translate(187.462048, 262.319337)"><g/></g></g><g fill="#9fe083" fill-opacity="1"><g transform="translate(191.414745, 262.319337)"><g><path d="M 4.296875 0.09375 C 3.785156 0.09375 3.304688 0 2.859375 -0.1875 C 2.410156 -0.382812 2.015625 -0.648438 1.671875 -0.984375 C 1.335938 -1.328125 1.070312 -1.722656 0.875 -2.171875 C 0.6875 -2.617188 0.59375 -3.097656 0.59375 -3.609375 C 0.59375 -4.128906 0.6875 -4.609375 0.875 -5.046875 C 1.070312 -5.492188 1.335938 -5.890625 1.671875 -6.234375 C 2.015625 -6.578125 2.410156 -6.84375 2.859375 -7.03125 C 3.304688 -7.226562 3.785156 -7.328125 4.296875 -7.328125 C 4.992188 -7.328125 5.625 -7.15625 6.1875 -6.8125 C 6.757812 -6.46875 7.207031 -6.015625 7.53125 -5.453125 L 6.875 -5.078125 C 6.625 -5.523438 6.269531 -5.882812 5.8125 -6.15625 C 5.363281 -6.425781 4.859375 -6.5625 4.296875 -6.5625 C 3.765625 -6.5625 3.273438 -6.425781 2.828125 -6.15625 C 2.378906 -5.894531 2.019531 -5.539062 1.75 -5.09375 C 1.488281 -4.65625 1.359375 -4.160156 1.359375 -3.609375 C 1.359375 -3.066406 1.488281 -2.570312 1.75 -2.125 C 2.019531 -1.675781 2.378906 -1.320312 2.828125 -1.0625 C 3.273438 -0.800781 3.765625 -0.671875 4.296875 -0.671875 C 4.859375 -0.671875 5.363281 -0.804688 5.8125 -1.078125 C 6.269531 -1.359375 6.625 -1.71875 6.875 -2.15625 L 7.53125 -1.78125 C 7.207031 -1.21875 6.757812 -0.765625 6.1875 -0.421875 C 5.625 -0.078125 4.992188 0.09375 4.296875 0.09375 Z M 4.296875 0.09375 "/></g></g></g><g fill="#9fe083" fill-opacity="1"><g transform="translate(200.388526, 262.319337)"><g><path d="M 4.296875 0.09375 C 3.785156 0.09375 3.304688 0 2.859375 -0.1875 C 2.410156 -0.382812 2.015625 -0.648438 1.671875 -0.984375 C 1.335938 -1.328125 1.070312 -1.722656 0.875 -2.171875 C 0.6875 -2.617188 0.59375 -3.097656 0.59375 -3.609375 C 0.59375 -4.128906 0.6875 -4.609375 0.875 -5.046875 C 1.070312 -5.492188 1.335938 -5.890625 1.671875 -6.234375 C 2.015625 -6.578125 2.410156 -6.84375 2.859375 -7.03125 C 3.304688 -7.226562 3.785156 -7.328125 4.296875 -7.328125 C 4.816406 -7.328125 5.300781 -7.226562 5.75 -7.03125 C 6.195312 -6.84375 6.585938 -6.578125 6.921875 -6.234375 C 7.265625 -5.890625 7.53125 -5.492188 7.71875 -5.046875 C 7.914062 -4.609375 8.015625 -4.128906 8.015625 -3.609375 C 8.015625 -3.097656 7.914062 -2.617188 7.71875 -2.171875 C 7.53125 -1.722656 7.265625 -1.328125 6.921875 -0.984375 C 6.585938 -0.648438 6.195312 -0.382812 5.75 -0.1875 C 5.300781 0 4.816406 0.09375 4.296875 0.09375 Z M 4.296875 -0.671875 C 4.847656 -0.671875 5.34375 -0.800781 5.78125 -1.0625 C 6.226562 -1.320312 6.582031 -1.675781 6.84375 -2.125 C 7.113281 -2.570312 7.25 -3.066406 7.25 -3.609375 C 7.25 -4.160156 7.113281 -4.65625 6.84375 -5.09375 C 6.582031 -5.539062 6.226562 -5.894531 5.78125 -6.15625 C 5.34375 -6.425781 4.847656 -6.5625 4.296875 -6.5625 C 3.765625 -6.5625 3.273438 -6.425781 2.828125 -6.15625 C 2.378906 -5.894531 2.019531 -5.539062 1.75 -5.09375 C 1.488281 -4.65625 1.359375 -4.160156 1.359375 -3.609375 C 1.359375 -3.066406 1.488281 -2.570312 1.75 -2.125 C 2.019531 -1.675781 2.378906 -1.320312 2.828125 -1.0625 C 3.273438 -0.800781 3.765625 -0.671875 4.296875 -0.671875 Z M 4.296875 -0.671875 "/></g></g></g><g fill="#9fe083" fill-opacity="1"><g transform="translate(210.048644, 262.319337)"><g><path d="M 6.078125 -7.234375 L 6.828125 -7.234375 L 6.828125 0 L 6.109375 0 L 1.65625 -5.9375 L 1.65625 0 L 0.875 0 L 0.875 -7.234375 L 1.609375 -7.234375 L 6.078125 -1.296875 Z M 6.078125 -7.234375 "/></g></g></g><g fill="#9fe083" fill-opacity="1"><g transform="translate(218.805685, 262.319337)"><g><path d="M 2.703125 0.09375 C 2.160156 0.09375 1.675781 -0.0390625 1.25 -0.3125 C 0.832031 -0.582031 0.53125 -0.9375 0.34375 -1.375 L 1.046875 -1.78125 C 1.171875 -1.457031 1.375 -1.191406 1.65625 -0.984375 C 1.945312 -0.773438 2.300781 -0.671875 2.71875 -0.671875 C 3.113281 -0.671875 3.453125 -0.773438 3.734375 -0.984375 C 4.015625 -1.191406 4.15625 -1.488281 4.15625 -1.875 C 4.15625 -2.175781 4.070312 -2.421875 3.90625 -2.609375 C 3.738281 -2.796875 3.519531 -2.953125 3.25 -3.078125 C 2.976562 -3.210938 2.691406 -3.335938 2.390625 -3.453125 C 2.097656 -3.566406 1.816406 -3.703125 1.546875 -3.859375 C 1.273438 -4.023438 1.054688 -4.226562 0.890625 -4.46875 C 0.722656 -4.71875 0.640625 -5.035156 0.640625 -5.421875 C 0.640625 -5.816406 0.726562 -6.15625 0.90625 -6.4375 C 1.09375 -6.726562 1.335938 -6.945312 1.640625 -7.09375 C 1.941406 -7.25 2.28125 -7.328125 2.65625 -7.328125 C 3.070312 -7.328125 3.445312 -7.238281 3.78125 -7.0625 C 4.113281 -6.894531 4.378906 -6.679688 4.578125 -6.421875 L 3.984375 -5.921875 C 3.679688 -6.347656 3.242188 -6.5625 2.671875 -6.5625 C 2.335938 -6.5625 2.039062 -6.472656 1.78125 -6.296875 C 1.53125 -6.117188 1.40625 -5.847656 1.40625 -5.484375 C 1.40625 -5.191406 1.488281 -4.957031 1.65625 -4.78125 C 1.832031 -4.601562 2.050781 -4.453125 2.3125 -4.328125 C 2.582031 -4.203125 2.863281 -4.082031 3.15625 -3.96875 C 3.457031 -3.851562 3.742188 -3.710938 4.015625 -3.546875 C 4.285156 -3.378906 4.503906 -3.164062 4.671875 -2.90625 C 4.835938 -2.644531 4.921875 -2.3125 4.921875 -1.90625 C 4.921875 -1.488281 4.820312 -1.128906 4.625 -0.828125 C 4.425781 -0.523438 4.15625 -0.296875 3.8125 -0.140625 C 3.476562 0.015625 3.109375 0.09375 2.703125 0.09375 Z M 2.703125 0.09375 "/></g></g></g><g fill="#9fe083" fill-opacity="1"><g transform="translate(225.130445, 262.319337)"><g><path d="M 4.890625 -6.484375 L 1.71875 -6.484375 L 1.71875 -3.984375 L 4.484375 -3.984375 L 4.484375 -3.234375 L 1.71875 -3.234375 L 1.71875 -0.75 L 4.890625 -0.75 L 4.890625 0 L 0.9375 0 L 0.9375 -7.234375 L 4.890625 -7.234375 Z M 4.890625 -6.484375 "/></g></g></g><g fill="#9fe083" fill-opacity="1"><g transform="translate(231.79236, 262.319337)"><g><path d="M 4.328125 -3.828125 L 8.046875 -3.828125 L 8.046875 -3.609375 C 8.046875 -3.097656 7.945312 -2.617188 7.75 -2.171875 C 7.5625 -1.722656 7.296875 -1.328125 6.953125 -0.984375 C 6.617188 -0.648438 6.226562 -0.382812 5.78125 -0.1875 C 5.332031 0 4.851562 0.09375 4.34375 0.09375 C 3.820312 0.09375 3.335938 0 2.890625 -0.1875 C 2.441406 -0.382812 2.046875 -0.648438 1.703125 -0.984375 C 1.367188 -1.328125 1.101562 -1.722656 0.90625 -2.171875 C 0.71875 -2.617188 0.625 -3.097656 0.625 -3.609375 C 0.625 -4.128906 0.71875 -4.609375 0.90625 -5.046875 C 1.101562 -5.492188 1.367188 -5.890625 1.703125 -6.234375 C 2.046875 -6.578125 2.441406 -6.84375 2.890625 -7.03125 C 3.335938 -7.226562 3.820312 -7.328125 4.34375 -7.328125 C 5.03125 -7.328125 5.65625 -7.15625 6.21875 -6.8125 C 6.789062 -6.46875 7.238281 -6.015625 7.5625 -5.453125 L 6.890625 -5.078125 C 6.640625 -5.523438 6.285156 -5.882812 5.828125 -6.15625 C 5.378906 -6.425781 4.882812 -6.5625 4.34375 -6.5625 C 3.800781 -6.5625 3.304688 -6.425781 2.859375 -6.15625 C 2.410156 -5.894531 2.050781 -5.539062 1.78125 -5.09375 C 1.519531 -4.65625 1.390625 -4.160156 1.390625 -3.609375 C 1.390625 -3.066406 1.519531 -2.570312 1.78125 -2.125 C 2.050781 -1.675781 2.410156 -1.320312 2.859375 -1.0625 C 3.304688 -0.800781 3.800781 -0.671875 4.34375 -0.671875 C 4.832031 -0.671875 5.28125 -0.773438 5.6875 -0.984375 C 6.09375 -1.203125 6.429688 -1.492188 6.703125 -1.859375 C 6.984375 -2.222656 7.160156 -2.640625 7.234375 -3.109375 L 4.328125 -3.109375 Z M 4.328125 -3.828125 "/></g></g></g><g fill="#9fe083" fill-opacity="1"><g transform="translate(241.500622, 262.319337)"><g><path d="M 3.5625 0.09375 C 3.03125 0.09375 2.5625 -0.0078125 2.15625 -0.21875 C 1.75 -0.4375 1.425781 -0.726562 1.1875 -1.09375 C 0.957031 -1.46875 0.84375 -1.894531 0.84375 -2.375 L 0.84375 -7.234375 L 1.609375 -7.234375 L 1.609375 -2.5 C 1.609375 -2.144531 1.691406 -1.828125 1.859375 -1.546875 C 2.035156 -1.273438 2.269531 -1.0625 2.5625 -0.90625 C 2.851562 -0.75 3.1875 -0.671875 3.5625 -0.671875 C 3.9375 -0.671875 4.269531 -0.75 4.5625 -0.90625 C 4.851562 -1.0625 5.082031 -1.273438 5.25 -1.546875 C 5.414062 -1.828125 5.5 -2.144531 5.5 -2.5 L 5.5 -7.234375 L 6.28125 -7.234375 L 6.28125 -2.375 C 6.28125 -1.894531 6.160156 -1.46875 5.921875 -1.09375 C 5.691406 -0.726562 5.367188 -0.4375 4.953125 -0.21875 C 4.546875 -0.0078125 4.082031 0.09375 3.5625 0.09375 Z M 3.5625 0.09375 "/></g></g></g><g fill="#9fe083" fill-opacity="1"><g transform="translate(249.667675, 262.319337)"><g><path d="M 0.9375 0 L 0.9375 -7.234375 L 1.71875 -7.234375 L 1.71875 0 Z M 0.9375 0 "/></g></g></g><g fill="#9fe083" fill-opacity="1"><g transform="translate(253.355465, 262.319337)"><g><path d="M 3.8125 -3.296875 L 5.9375 0 L 5.0625 0 L 3.015625 -3.265625 L 1.65625 -3.265625 L 1.65625 0 L 0.875 0 L 0.875 -7.234375 L 3.46875 -7.234375 C 3.84375 -7.234375 4.179688 -7.140625 4.484375 -6.953125 C 4.785156 -6.773438 5.023438 -6.53125 5.203125 -6.21875 C 5.390625 -5.914062 5.484375 -5.578125 5.484375 -5.203125 C 5.484375 -4.878906 5.40625 -4.582031 5.25 -4.3125 C 5.101562 -4.039062 4.90625 -3.816406 4.65625 -3.640625 C 4.414062 -3.460938 4.132812 -3.347656 3.8125 -3.296875 Z M 1.65625 -4 L 3.421875 -4 C 3.796875 -4 4.101562 -4.109375 4.34375 -4.328125 C 4.59375 -4.554688 4.71875 -4.859375 4.71875 -5.234375 C 4.71875 -5.585938 4.59375 -5.878906 4.34375 -6.109375 C 4.09375 -6.335938 3.785156 -6.453125 3.421875 -6.453125 L 1.65625 -6.453125 Z M 1.65625 -4 "/></g></g></g><g fill="#9fe083" fill-opacity="1"><g transform="translate(260.450847, 262.319337)"><g/></g></g><g fill="#9fe083" fill-opacity="1"><g transform="translate(264.403545, 262.319337)"><g><path d="M 4.875 -7.234375 L 4.875 -6.453125 L 2.875 -6.453125 L 2.875 0 L 2.109375 0 L 2.109375 -6.453125 L 0.109375 -6.453125 L 0.109375 -7.234375 Z M 4.875 -7.234375 "/></g></g></g><g fill="#9fe083" fill-opacity="1"><g transform="translate(270.439318, 262.319337)"><g><path d="M 3.5625 0.09375 C 3.03125 0.09375 2.5625 -0.0078125 2.15625 -0.21875 C 1.75 -0.4375 1.425781 -0.726562 1.1875 -1.09375 C 0.957031 -1.46875 0.84375 -1.894531 0.84375 -2.375 L 0.84375 -7.234375 L 1.609375 -7.234375 L 1.609375 -2.5 C 1.609375 -2.144531 1.691406 -1.828125 1.859375 -1.546875 C 2.035156 -1.273438 2.269531 -1.0625 2.5625 -0.90625 C 2.851562 -0.75 3.1875 -0.671875 3.5625 -0.671875 C 3.9375 -0.671875 4.269531 -0.75 4.5625 -0.90625 C 4.851562 -1.0625 5.082031 -1.273438 5.25 -1.546875 C 5.414062 -1.828125 5.5 -2.144531 5.5 -2.5 L 5.5 -7.234375 L 6.28125 -7.234375 L 6.28125 -2.375 C 6.28125 -1.894531 6.160156 -1.46875 5.921875 -1.09375 C 5.691406 -0.726562 5.367188 -0.4375 4.953125 -0.21875 C 4.546875 -0.0078125 4.082031 0.09375 3.5625 0.09375 Z M 3.5625 0.09375 "/></g></g></g><g fill="#9fe083" fill-opacity="1"><g transform="translate(278.606348, 262.319337)"><g/></g></g><g fill="#9fe083" fill-opacity="1"><g transform="translate(282.559046, 262.319337)"><g><path d="M 5.234375 -7.234375 L 6.078125 -7.234375 L 3.46875 0 L 2.609375 0 L 0 -7.234375 L 0.859375 -7.234375 L 3.046875 -0.984375 Z M 5.234375 -7.234375 "/></g></g></g><g fill="#9fe083" fill-opacity="1"><g transform="translate(289.690546, 262.319337)"><g><path d="M 0.9375 0 L 0.9375 -7.234375 L 1.71875 -7.234375 L 1.71875 0 Z M 0.9375 0 "/></g></g></g><g fill="#9fe083" fill-opacity="1"><g transform="translate(293.378335, 262.319337)"><g><path d="M 5.234375 -7.234375 L 6.078125 -7.234375 L 3.46875 0 L 2.609375 0 L 0 -7.234375 L 0.859375 -7.234375 L 3.046875 -0.984375 Z M 5.234375 -7.234375 "/></g></g></g><g fill="#9fe083" fill-opacity="1"><g transform="translate(300.509858, 262.319337)"><g><path d="M 0.9375 0 L 0.9375 -7.234375 L 1.71875 -7.234375 L 1.71875 0 Z M 0.9375 0 "/></g></g></g><g fill="#9fe083" fill-opacity="1"><g transform="translate(304.197648, 262.319337)"><g><path d="M 4.890625 -6.484375 L 1.71875 -6.484375 L 1.71875 -3.984375 L 4.484375 -3.984375 L 4.484375 -3.234375 L 1.71875 -3.234375 L 1.71875 -0.75 L 4.890625 -0.75 L 4.890625 0 L 0.9375 0 L 0.9375 -7.234375 L 4.890625 -7.234375 Z M 4.890625 -6.484375 "/></g></g></g><g fill="#9fe083" fill-opacity="1"><g transform="translate(310.85955, 262.319337)"><g><path d="M 6.078125 -7.234375 L 6.828125 -7.234375 L 6.828125 0 L 6.109375 0 L 1.65625 -5.9375 L 1.65625 0 L 0.875 0 L 0.875 -7.234375 L 1.609375 -7.234375 L 6.078125 -1.296875 Z M 6.078125 -7.234375 "/></g></g></g><g fill="#9fe083" fill-opacity="1"><g transform="translate(319.616615, 262.319337)"><g><path d="M 0.875 0 L 0.875 -7.234375 L 2.859375 -7.234375 C 3.359375 -7.234375 3.828125 -7.140625 4.265625 -6.953125 C 4.703125 -6.765625 5.082031 -6.503906 5.40625 -6.171875 C 5.738281 -5.835938 6 -5.453125 6.1875 -5.015625 C 6.375 -4.578125 6.46875 -4.109375 6.46875 -3.609375 C 6.46875 -3.117188 6.375 -2.648438 6.1875 -2.203125 C 6 -1.765625 5.738281 -1.378906 5.40625 -1.046875 C 5.082031 -0.722656 4.703125 -0.46875 4.265625 -0.28125 C 3.828125 -0.09375 3.359375 0 2.859375 0 Z M 1.640625 -0.765625 L 2.84375 -0.765625 C 3.382812 -0.765625 3.867188 -0.890625 4.296875 -1.140625 C 4.722656 -1.390625 5.0625 -1.726562 5.3125 -2.15625 C 5.570312 -2.59375 5.703125 -3.078125 5.703125 -3.609375 C 5.703125 -4.160156 5.570312 -4.648438 5.3125 -5.078125 C 5.0625 -5.503906 4.722656 -5.835938 4.296875 -6.078125 C 3.867188 -6.328125 3.382812 -6.453125 2.84375 -6.453125 L 1.640625 -6.453125 Z M 1.640625 -0.765625 "/></g></g></g><g fill="#9fe083" fill-opacity="1"><g transform="translate(327.723426, 262.319337)"><g><path d="M 5.234375 0 L 4.65625 -1.6875 L 1.4375 -1.6875 L 0.84375 0 L 0 0 L 2.609375 -7.234375 L 3.46875 -7.234375 L 6.078125 0 Z M 1.6875 -2.421875 L 4.40625 -2.421875 L 3.046875 -6.3125 Z M 1.6875 -2.421875 "/></g></g></g><g fill="#9fe083" fill-opacity="1"><g transform="translate(334.861334, 262.319337)"><g/></g></g><g clip-path="url(#42026bd7d4)"><g clip-path="url(#638341a819)"><g transform="matrix(1, 0, 0, 1, 84, 95)"><g clip-path="url(#4eef6b196c)"><g clip-path="url(#a38a87fe39)"><g clip-path="url(#31c6956630)"><path fill="#0f7610" d="M 0.832031 0.101562 L 38.226562 0.101562 L 38.226562 41.875 L 0.832031 41.875 Z M 0.832031 0.101562 " fill-opacity="1" fill-rule="nonzero"/></g></g></g></g></g></g><path stroke-linecap="butt" transform="matrix(0, -0.75, 0.75, 0, 101.883154, 161.145913)" fill="none" stroke-linejoin="miter" d="M 0.00184289 1.499545 L 61.095597 1.499545 " stroke="#00bf63" stroke-width="3" stroke-opacity="1" stroke-miterlimit="4"/><path stroke-linecap="butt" transform="matrix(0.565888, -0.49221, 0.49221, 0.565888, 103.138349, 119.970717)" fill="none" stroke-linejoin="miter" d="M -0.00234242 1.499312 L 15.502956 1.497638 " stroke="#7ed957" stroke-width="3" stroke-opacity="1" stroke-miterlimit="4"/><path stroke-linecap="butt" transform="matrix(-0.583015, -0.471798, 0.471798, -0.583015, 102.185952, 124.320709)" fill="none" stroke-linejoin="miter" d="M -0.000179597 1.501646 L 15.501926 1.499297 " stroke="#7ed957" stroke-width="3" stroke-opacity="1" stroke-miterlimit="4"/><g clip-path="url(#049ac0a557)"><g clip-path="url(#d8dd00718d)"><g transform="matrix(1, 0, 0, 1, 112, 82)"><g clip-path="url(#48dda2a8da)"><g clip-path="url(#98fba5a10a)"><g clip-path="url(#77c811f5c3)"><path fill="#0f7610" d="M 0.652344 0.0820312 L 38.042969 0.0820312 L 38.042969 48.136719 L 0.652344 48.136719 Z M 0.652344 0.0820312 " fill-opacity="1" fill-rule="nonzero"/></g></g></g></g></g></g><path stroke-linecap="butt" transform="matrix(0, -0.75, 0.75, 0, 129.699634, 163.364418)" fill="none" stroke-linejoin="miter" d="M 0.00151576 1.499446 L 78.522354 1.499446 " stroke="#00bf63" stroke-width="3" stroke-opacity="1" stroke-miterlimit="4"/><path stroke-linecap="butt" transform="matrix(0.500049, -0.558973, 0.558973, 0.500049, 130.853682, 110.785642)" fill="none" stroke-linejoin="miter" d="M -0.0000991643 1.498773 L 17.546372 1.497609 " stroke="#7ed957" stroke-width="3" stroke-opacity="1" stroke-miterlimit="4"/><path stroke-linecap="butt" transform="matrix(-0.51983, -0.540626, 0.540626, -0.51983, 129.716394, 111.592764)" fill="none" stroke-linejoin="miter" d="M 0.000488875 1.50049 L 17.386833 1.498418 " stroke="#7ed957" stroke-width="3" stroke-opacity="1" stroke-miterlimit="4"/></svg>