<svg width="13" height="12" viewBox="0 0 13 12" fill="none" xmlns="http://www.w3.org/2000/svg">
<path d="M11.5201 5.96891H11.3991C11.3581 5.22705 10.7564 4.63226 10.0116 4.60244C9.74056 4.1141 9.21903 3.80349 8.65665 3.80349C7.9347 3.80349 7.31 4.30896 7.14903 5.00023C6.62852 5.00657 6.20337 5.43303 6.1706 5.96883H3.93816C3.75139 5.48249 3.27844 5.1711 2.71935 5.1711C2.48382 5.1711 2.2556 5.23446 2.05623 5.3523L2.05631 1.13505C2.05631 0.676862 2.42898 0.304196 2.88717 0.304196C3.32572 0.304196 3.68586 0.645825 3.71576 1.07698C3.63841 1.10123 3.56767 1.14529 3.51187 1.20578L3.01623 1.74289C2.88856 1.88134 2.85615 2.07444 2.93167 2.24687C3.00719 2.41938 3.17111 2.52645 3.35945 2.52645H4.35074C4.53907 2.52645 4.70298 2.41929 4.77852 2.24687C4.85404 2.07435 4.82162 1.88123 4.69395 1.74289L4.19832 1.20578C4.14904 1.15234 4.08794 1.11227 4.02111 1.08672C3.99565 0.48322 3.49695 0 2.88729 0C2.26137 0 1.75225 0.509207 1.75225 1.13504V5.298C1.65248 5.25594 1.54454 5.23291 1.43347 5.23291C1.00952 5.23291 0.659548 5.55603 0.616964 5.96894H0.493989C0.22162 5.96894 0 6.19056 0 6.46293V6.49144C0 6.76389 0.221617 6.98551 0.493989 6.98551H0.716303L0.968337 9.12331C0.973203 9.93972 1.61938 10.6315 2.50592 10.8631L2.3813 11.5797C2.37982 11.5883 2.37904 11.597 2.37904 11.6058C2.37904 11.8232 2.5559 12 2.77335 12C2.98584 12 3.15957 11.831 3.16731 11.6204L3.28464 10.9458H8.73202L8.84691 11.6062C8.85465 11.8167 9.02847 11.9858 9.24087 11.9858C9.45832 11.9858 9.6351 11.8089 9.6351 11.5915C9.6351 11.5828 9.6344 11.5741 9.63284 11.5655L9.51169 10.869C10.4109 10.6436 11.0691 9.94651 11.0734 9.12226L11.2974 6.98551H11.5201C11.7925 6.98551 12.0142 6.7639 12.0142 6.49144V6.46293C12.0141 6.19047 11.7926 5.96885 11.5201 5.96885L11.5201 5.96891ZM3.85498 1.35964C3.90096 1.35964 3.94346 1.37824 3.97466 1.41205L4.47029 1.94916C4.5373 2.02173 4.50983 2.10203 4.49975 2.12489C4.48976 2.14774 4.44935 2.22231 4.35062 2.22231H3.35932C3.2606 2.22231 3.22027 2.14774 3.21019 2.12489C3.20019 2.10203 3.17273 2.02173 3.23965 1.94916L3.73529 1.41205C3.76649 1.37824 3.80898 1.35964 3.85496 1.35964H3.85498ZM7.16092 5.30435C7.19047 5.30435 7.22132 5.3066 7.2527 5.31104C7.29276 5.31677 7.33335 5.30617 7.36568 5.28175C7.39792 5.25733 7.41913 5.22117 7.42469 5.18111C7.50856 4.56918 8.03827 4.1077 8.65671 4.1077C9.13479 4.1077 9.57621 4.38703 9.78123 4.81939C9.80644 4.87258 9.85997 4.9063 9.91864 4.9063C9.92003 4.9063 9.92142 4.9063 9.92281 4.90621L9.93445 4.90586C9.94062 4.9056 9.94679 4.90543 9.95305 4.90543C10.5568 4.90543 11.0525 5.37552 11.0942 5.96885H9.6268V5.99988H9.61585V7.03262C9.61585 7.13552 9.5451 7.22243 9.46141 7.22243H9.33365C9.24996 7.22243 9.17921 7.13552 9.17921 7.03262V5.96946H9.17052V5.96894H6.47553C6.50734 5.59688 6.80248 5.30435 7.16091 5.30435L7.16092 5.30435ZM2.05639 5.72698C2.23942 5.56472 2.47434 5.47537 2.71952 5.47537C3.10582 5.47537 3.43731 5.66483 3.60364 5.96894H2.05648L2.05639 5.72698ZM1.43343 5.537C1.55032 5.537 1.66192 5.57663 1.75221 5.64763V5.96886H0.92431C0.964983 5.7243 1.17748 5.53701 1.43343 5.53701V5.537ZM0.49402 6.68116C0.389382 6.68116 0.304211 6.59599 0.304211 6.49126V6.46276C0.304211 6.35812 0.389382 6.27295 0.49402 6.27295H8.87512V6.68108L0.49402 6.68116ZM2.86551 11.5794C2.86404 11.588 2.86325 11.5967 2.86325 11.6055C2.86325 11.6544 2.82197 11.6956 2.77313 11.6956C2.72759 11.6956 2.68865 11.6597 2.68361 11.6153L2.80424 10.9214C2.86108 10.9292 2.9187 10.9348 2.97684 10.9388L2.86551 11.5794ZM9.24089 11.6814C9.19205 11.6814 9.15085 11.6401 9.15085 11.5914C9.15085 11.5826 9.15007 11.5739 9.14851 11.5653L9.03987 10.9406C9.09819 10.9371 9.15589 10.9323 9.21282 10.9251L9.33041 11.6012C9.32528 11.6455 9.28634 11.6814 9.24089 11.6814L9.24089 11.6814ZM10.7702 9.09809C10.7697 9.10339 10.7694 9.10869 10.7694 9.11399C10.7694 9.95622 9.92435 10.6415 8.8856 10.6415L3.15632 10.6414C2.11757 10.6414 1.27239 9.95613 1.27239 9.1139C1.27239 9.10791 1.27204 9.102 1.27135 9.09609L1.02252 6.98533H8.87499V7.03261C8.87499 7.30498 9.0807 7.52659 9.3336 7.52659H9.46136C9.71426 7.52659 9.91997 7.30506 9.91997 7.03261V6.98533H10.9915L10.7702 9.09809ZM11.71 6.49142C11.71 6.59615 11.6248 6.68132 11.5201 6.68132L9.92007 6.68123V6.2731H11.5202C11.6249 6.2731 11.7101 6.35819 11.7101 6.46291L11.71 6.49142Z" fill="#324D22"/>
<path d="M6.49153 4.07907C6.81109 4.07907 7.07105 3.81912 7.07105 3.49956C7.07105 3.18009 6.81109 2.92004 6.49153 2.92004C6.17206 2.92004 5.91211 3.18 5.91211 3.49956C5.91202 3.81912 6.17197 4.07907 6.49153 4.07907ZM6.49153 3.22432C6.64336 3.22432 6.76686 3.34782 6.76686 3.49965C6.76686 3.65139 6.64336 3.77497 6.49153 3.77497C6.33979 3.77497 6.21621 3.65148 6.21621 3.49965C6.21621 3.34782 6.3397 3.22432 6.49153 3.22432Z" fill="#324D22"/>
<path d="M7.95893 3.02492C8.34915 3.02492 8.66664 2.70743 8.66664 2.31721C8.66664 1.92699 8.34915 1.6095 7.95893 1.6095C7.56871 1.6095 7.25122 1.92699 7.25122 2.31721C7.25131 2.70743 7.56871 3.02492 7.95893 3.02492ZM7.95893 1.9137C8.18142 1.9137 8.36246 2.09474 8.36246 2.31723C8.36246 2.53972 8.18142 2.72076 7.95893 2.72076C7.73644 2.72076 7.55541 2.53972 7.55541 2.31723C7.55549 2.09474 7.73652 1.9137 7.95893 1.9137Z" fill="#324D22"/>
<path d="M3.34766 3.04834H3.6522V3.69519H3.34766V3.04834Z" fill="#324D22"/>
<path d="M4.20264 4.10266H4.50718V4.74951H4.20264V4.10266Z" fill="#324D22"/>
<path d="M5.32983 9.97241H5.93552V10.277H5.32983V9.97241Z" fill="#324D22"/>
<path d="M1.94149 9.11409C1.94149 9.11114 1.94141 9.10818 1.94123 9.10514L1.92767 8.875L1.62402 8.89282L1.63732 9.11877C1.6408 9.74686 2.33493 10.2766 3.15615 10.2766H4.96117V9.97239H3.15615C2.50912 9.97239 1.94151 9.57131 1.94151 9.11408L1.94149 9.11409Z" fill="#324D22"/>
</svg>
