<svg width="26" height="25" viewBox="0 0 26 25" fill="none" xmlns="http://www.w3.org/2000/svg">
<path d="M12.8916 2.41434e-05C9.64958 -0.00618147 6.52462 1.1841 4.14181 3.33279C1.75899 5.48148 0.293927 8.43018 0.039655 11.5892C-0.214617 14.7481 0.760695 17.8845 2.77042 20.3709C4.78015 22.8574 7.67616 24.5106 10.8793 25V16.2123H7.61383V12.5755H10.8793V9.80886C10.8793 6.65746 12.8015 4.91703 15.7402 4.91703C16.705 4.93254 17.6674 5.0166 18.6197 5.16854V8.26461H16.9985C15.4005 8.26461 14.9013 9.23292 14.9013 10.2289V12.5855H18.4704L17.8914 16.2123H14.8936V25C18.0965 24.5106 20.9923 22.8576 23.002 20.3714C25.0118 17.8852 25.9872 14.7492 25.7333 11.5904C25.4793 8.43164 24.0148 5.48297 21.6325 3.33408C19.2502 1.18519 16.1257 -0.00553971 12.8839 2.41434e-05H12.8916Z" fill="#E6EFE0"/>
</svg>
