<svg width="25" height="25" viewBox="0 0 25 25" fill="none" xmlns="http://www.w3.org/2000/svg">
<path d="M12.4969 6.08629C8.9476 6.08629 6.08316 8.95073 6.08316 12.5C6.08316 16.0493 8.9476 18.9137 12.4969 18.9137C16.0461 18.9137 18.9106 16.0493 18.9106 12.5C18.9106 8.95073 16.0461 6.08629 12.4969 6.08629ZM12.4969 16.6684C10.2016 16.6684 8.32843 14.7953 8.32843 12.5C8.32843 10.2047 10.2016 8.33156 12.4969 8.33156C14.7922 8.33156 16.6653 10.2047 16.6653 12.5C16.6653 14.7953 14.7922 16.6684 12.4969 16.6684ZM19.1733 4.32885C18.3446 4.32885 17.6754 4.99806 17.6754 5.82674C17.6754 6.65543 18.3446 7.32463 19.1733 7.32463C20.0019 7.32463 20.6711 6.65855 20.6711 5.82674C20.6714 5.62997 20.6328 5.43508 20.5576 5.25323C20.4824 5.07139 20.3721 4.90617 20.233 4.76702C20.0938 4.62788 19.9286 4.51756 19.7468 4.44237C19.5649 4.36718 19.37 4.32861 19.1733 4.32885ZM24.9991 12.5C24.9991 10.7738 25.0147 9.0633 24.9178 7.34026C24.8208 5.33891 24.3643 3.56271 22.9008 2.09922C21.4342 0.632607 19.6611 0.179176 17.6597 0.082235C15.9336 -0.0147055 14.223 0.000930141 12.5 0.000930141C10.7738 0.000930141 9.0633 -0.0147055 7.34026 0.082235C5.33891 0.179176 3.56271 0.635734 2.09922 2.09922C0.632607 3.56584 0.179176 5.33891 0.082235 7.34026C-0.0147055 9.06643 0.000930141 10.777 0.000930141 12.5C0.000930141 14.223 -0.0147055 15.9367 0.082235 17.6597C0.179176 19.6611 0.635734 21.4373 2.09922 22.9008C3.56584 24.3674 5.33891 24.8208 7.34026 24.9178C9.06643 25.0147 10.777 24.9991 12.5 24.9991C14.2262 24.9991 15.9367 25.0147 17.6597 24.9178C19.6611 24.8208 21.4373 24.3643 22.9008 22.9008C24.3674 21.4342 24.8208 19.6611 24.9178 17.6597C25.0178 15.9367 24.9991 14.2262 24.9991 12.5ZM22.2472 19.8737C22.0189 20.4429 21.7437 20.8682 21.3028 21.306C20.8619 21.7469 20.4397 22.0221 19.8706 22.2503C18.2257 22.9039 14.32 22.7569 12.4969 22.7569C10.6738 22.7569 6.76488 22.9039 5.12001 22.2535C4.55088 22.0252 4.12559 21.75 3.6878 21.3091C3.24687 20.8682 2.97169 20.446 2.74341 19.8769C2.09297 18.2289 2.23994 14.3231 2.23994 12.5C2.23994 10.6769 2.09297 6.768 2.74341 5.12314C2.97169 4.55401 3.24687 4.12872 3.6878 3.69092C4.12872 3.25313 4.55088 2.97481 5.12001 2.74654C6.76488 2.0961 10.6738 2.24307 12.4969 2.24307C14.32 2.24307 18.2289 2.0961 19.8737 2.74654C20.4429 2.97481 20.8682 3.25 21.306 3.69092C21.7469 4.13185 22.0221 4.55401 22.2503 5.12314C22.9008 6.768 22.7538 10.6769 22.7538 12.5C22.7538 14.3231 22.9008 18.2289 22.2472 19.8737Z" fill="#E6EFE0"/>
</svg>
