<svg width="18" height="18" viewBox="0 0 18 18" fill="none" xmlns="http://www.w3.org/2000/svg">
<path d="M9.00404 17.0081C13.4245 17.0081 17.0081 13.4245 17.0081 9.00404C17.0081 4.58353 13.4245 1 9.00404 1C4.58353 1 1 4.58353 1 9.00404C1 13.4245 4.58353 17.0081 9.00404 17.0081Z" stroke="#5F784B" stroke-width="1.5" stroke-linecap="round" stroke-linejoin="round"/>
<path d="M11.4052 6.2026C10.8569 5.65433 9.8914 5.27297 9.00399 5.2491M6.60278 11.4052C7.11863 12.093 8.07777 12.4853 9.00399 12.5186M9.00399 5.2491C7.94818 5.22068 7.00299 5.69833 7.00299 7.00301C7.00299 9.40422 11.4052 8.20361 11.4052 10.6048C11.4052 11.9743 10.2336 12.5628 9.00399 12.5186M9.00399 5.2491V3.80139M9.00399 12.5186V14.2066" stroke="#5F784B" stroke-width="1.5" stroke-linecap="round" stroke-linejoin="round"/>
</svg>
