<svg xmlns="http://www.w3.org/2000/svg" xmlns:xlink="http://www.w3.org/1999/xlink" width="20.469" height="23.159" viewBox="0 0 20.469 23.159">
  <defs>
    <linearGradient id="linear-gradient" x1="0.5" x2="0.5" y2="1" gradientUnits="objectBoundingBox">
      <stop offset="0" stop-color="#5f784b"/>
      <stop offset="0.569" stop-color="#5f784b"/>
      <stop offset="1" stop-color="#102400"/>
    </linearGradient>
  </defs>
  <path id="direccion" d="M11.423.793A8.506,8.506,0,0,0,6.186,2.55,7.7,7.7,0,0,0,3.412,8.813c0,3.066,1.925,6.055,3.759,8.347a33.7,33.7,0,0,0,3.669,3.9.887.887,0,0,0,1.175,0,33.7,33.7,0,0,0,3.669-3.9c1.834-2.292,3.759-5.281,3.759-8.347A7.7,7.7,0,0,0,16.67,2.55,8.534,8.534,0,0,0,11.423.793Zm0,1.784a6.841,6.841,0,0,1,4.14,1.366,5.752,5.752,0,0,1,2.1,4.87c0,2.275-1.609,5.1-3.366,7.229a34.072,34.072,0,0,1-2.868,3.13,35.115,35.115,0,0,1-2.871-3.13C6.815,13.9,5.193,11.089,5.193,8.813a5.76,5.76,0,0,1,2.1-4.87,6.847,6.847,0,0,1,4.133-1.37Zm0,1.8a4.454,4.454,0,1,0,4.459,4.459,4.469,4.469,0,0,0-4.459-4.459Zm0,1.784a2.659,2.659,0,1,1-1.89.782,2.666,2.666,0,0,1,1.89-.782ZM6.953,18.816l-.057.01a15.654,15.654,0,0,0-4.385.919A2.018,2.018,0,0,0,1.3,20.751a1.336,1.336,0,0,0-.017,1,1.6,1.6,0,0,0,.545.673,8.214,8.214,0,0,0,3.719,1.138,41.252,41.252,0,0,0,5.876.387,41.218,41.218,0,0,0,5.876-.387,8.261,8.261,0,0,0,3.729-1.138,1.582,1.582,0,0,0,.545-.666,1.356,1.356,0,0,0-.02-1.01,2.015,2.015,0,0,0-1.212-1.01,15.681,15.681,0,0,0-4.375-.915.892.892,0,0,0-.185,1.774,17.4,17.4,0,0,1,3.588.673,12.321,12.321,0,0,1-2.332.528,39.6,39.6,0,0,1-5.614.37,39.586,39.586,0,0,1-5.611-.37,12.534,12.534,0,0,1-2.339-.525,18.8,18.8,0,0,1,3.6-.676.9.9,0,0,0-.121-1.784Z" transform="translate(-1.192 -0.793)" fill="url(#linear-gradient)"/>
</svg>
