<svg width="37" height="38" viewBox="0 0 37 38" fill="none" xmlns="http://www.w3.org/2000/svg">
<path d="M0.881217 0.759132C0.38013 0.806256 -0.00198331 1.228 9.9703e-05 1.7311V8.53563C-0.00362968 8.79566 0.0974028 9.04653 0.279806 9.23198C0.462547 9.41708 0.712074 9.5215 0.972113 9.5215C1.23249 9.5215 1.48168 9.41708 1.66442 9.23198C1.84716 9.04653 1.94785 8.79566 1.94447 8.53563V4.07035L10.9813 13.107C11.1634 13.2941 11.4129 13.4002 11.6739 13.4012C11.9353 13.4022 12.1859 13.2985 12.3693 13.1127C12.553 12.9269 12.6541 12.6754 12.6503 12.4143C12.6463 12.1533 12.5374 11.9048 12.3483 11.7247L3.3262 2.7029H7.77665C8.03669 2.70629 8.28757 2.6056 8.47302 2.42287C8.65813 2.24013 8.76255 1.99095 8.76255 1.73058C8.76255 1.47054 8.65813 1.22102 8.47302 1.03828C8.28757 0.855885 8.03669 0.754862 7.77665 0.758585H0.971957C0.941783 0.757229 0.911271 0.757229 0.881095 0.758585L0.881217 0.759132ZM29.0714 0.759132C28.8137 0.771336 28.5713 0.885247 28.3974 1.07612C28.2235 1.26699 28.1326 1.51889 28.1448 1.77688C28.157 2.03454 28.2709 2.27728 28.4618 2.45086C28.6527 2.62478 28.9049 2.7153 29.1626 2.70343H34.9949V8.53565C34.9915 8.79568 35.0922 9.04656 35.275 9.232C35.4577 9.41711 35.7069 9.52153 35.9673 9.52153C36.2273 9.52153 36.4769 9.41711 36.6596 9.232C36.842 9.04656 36.943 8.79568 36.9393 8.53565V1.73112C36.9393 1.19445 36.504 0.759158 35.9673 0.759158H29.1626C29.1324 0.757802 29.1019 0.757802 29.0714 0.759158L29.0714 0.759132ZM31.9572 4.63215C31.7433 4.663 31.5453 4.7647 31.3954 4.92065L24.5907 11.7252C24.4016 11.9052 24.2927 12.1537 24.2887 12.4148C24.2849 12.6758 24.386 12.9274 24.5697 13.1132C24.7531 13.2989 25.0037 13.4027 25.2651 13.4017C25.5261 13.4006 25.7757 13.2945 25.9577 13.1074L32.7624 6.30286C33.0716 6.01231 33.1567 5.55463 32.9726 5.17224C32.7885 4.79017 32.3773 4.57149 31.9572 4.63217L31.9572 4.63215ZM11.5437 25.0452C11.3294 25.0764 11.1317 25.1778 10.9819 25.3341L1.94506 34.3707V29.9203C1.95082 29.6403 1.83589 29.3714 1.62942 29.1823C1.42295 28.9934 1.14494 28.9026 0.866592 28.9331C0.365843 28.9883 -0.0101855 29.4165 0.000698308 29.9203V36.7248C0.000698308 37.2615 0.436015 37.6968 0.972686 37.6968H7.77738C8.03742 37.7005 8.2883 37.5995 8.47375 37.4171C8.65886 37.2344 8.76328 36.9849 8.76328 36.7248C8.76328 36.4645 8.65886 36.2153 8.47375 36.0325C8.2883 35.8498 8.03742 35.7491 7.77738 35.7525H3.312L12.3488 26.7159C12.658 26.4253 12.7431 25.9677 12.559 25.5856C12.3746 25.2032 11.9637 24.9845 11.5436 25.0452H11.5437ZM25.1683 25.0452C24.79 25.0822 24.4675 25.3361 24.3435 25.6955C24.2194 26.0548 24.316 26.4535 24.591 26.7159L33.6278 35.7525H29.1624C28.9024 35.7492 28.6515 35.8498 28.466 36.0326C28.2809 36.2153 28.1765 36.4645 28.1765 36.7249C28.1765 36.9849 28.2809 37.2344 28.466 37.4172C28.6515 37.5996 28.9024 37.7006 29.1624 37.6969H35.9671C36.5038 37.6969 36.9391 37.2616 36.9391 36.7249V29.9204C36.9452 29.6403 36.8299 29.3715 36.6234 29.1823C36.417 28.9935 36.139 28.9026 35.8606 28.9331C35.3599 28.9884 34.9838 29.4166 34.9947 29.9204V34.3707L25.9579 25.3341C25.7521 25.1229 25.4616 25.0168 25.1683 25.0453L25.1683 25.0452Z" fill="#324D22"/>
</svg>
