<?xml version="1.0" encoding="iso-8859-1"?>
<!-- Generator: Adobe Illustrator 19.0.0, SVG Export Plug-In . SVG Version: 6.00 Build 0)  -->
<svg version="1.1" id="Layer_1" xmlns="http://www.w3.org/2000/svg" xmlns:xlink="http://www.w3.org/1999/xlink" x="0px" y="0px"
	 viewBox="0 0 512.017 512.017" style="enable-background:new 0 0 512.017 512.017;" xml:space="preserve">
<g>
	<g>
		<path d="M510.989,497.171c0.019-0.06,0.044-0.118,0.063-0.179c0.195-0.631,0.357-1.269,0.492-1.913
			c0.008-0.04,0.021-0.079,0.029-0.12c0.299-1.469,0.444-2.962,0.431-4.455V384.009c0-11.782-9.551-21.333-21.333-21.333
			s-21.333,9.551-21.333,21.333v55.164L344.992,314.827c11.169-16.862,17.679-37.079,17.679-58.818s-6.51-41.956-17.679-58.818
			L469.338,72.845v55.164c0,11.782,9.551,21.333,21.333,21.333s21.333-9.551,21.333-21.333V21.512
			c0.012-1.493-0.132-2.986-0.431-4.455c-0.008-0.041-0.021-0.079-0.029-0.12c-0.135-0.643-0.297-1.282-0.492-1.913
			c-0.019-0.061-0.043-0.118-0.063-0.179c-0.193-0.606-0.409-1.205-0.657-1.795c-0.013-0.03-0.028-0.058-0.04-0.087
			c-1.039-2.438-2.539-4.727-4.528-6.716c-1.988-1.988-4.276-3.487-6.713-4.526c-0.031-0.013-0.06-0.029-0.09-0.042
			c-0.588-0.248-1.186-0.463-1.79-0.655c-0.062-0.02-0.121-0.045-0.183-0.064c-0.629-0.194-1.266-0.356-1.907-0.49
			c-0.042-0.009-0.083-0.022-0.125-0.031c-1.469-0.299-2.961-0.443-4.454-0.431H384.004c-11.782,0-21.333,9.551-21.333,21.333
			c0,11.782,9.551,21.333,21.333,21.333h55.163L314.822,167.021c-16.862-11.169-37.079-17.679-58.818-17.679
			s-41.956,6.51-58.818,17.679L72.841,42.675h55.163c11.782,0,21.333-9.551,21.333-21.333c0-11.782-9.551-21.333-21.333-21.333
			H21.338c0,0-0.001,0-0.001,0c-0.702,0-1.405,0.037-2.104,0.106c-0.316,0.031-0.622,0.09-0.933,0.135
			c-0.377,0.054-0.755,0.098-1.13,0.172c-0.358,0.071-0.705,0.169-1.056,0.258c-0.323,0.081-0.648,0.152-0.968,0.249
			C14.8,1.033,14.467,1.162,14.13,1.284c-0.319,0.115-0.641,0.22-0.956,0.35c-0.315,0.131-0.618,0.284-0.925,0.43
			c-0.323,0.152-0.65,0.296-0.967,0.466c-0.295,0.158-0.575,0.338-0.862,0.509C10.11,3.223,9.796,3.399,9.493,3.602
			c-0.317,0.212-0.615,0.448-0.92,0.676C8.321,4.467,8.062,4.642,7.816,4.844C6.729,5.736,5.732,6.733,4.839,7.82
			C4.638,8.066,4.463,8.325,4.273,8.577C4.045,8.882,3.809,9.18,3.597,9.497C3.395,9.8,3.219,10.114,3.034,10.425
			c-0.171,0.286-0.351,0.567-0.509,0.862c-0.17,0.317-0.313,0.643-0.466,0.967c-0.145,0.307-0.299,0.61-0.43,0.925
			c-0.13,0.315-0.235,0.636-0.35,0.956c-0.121,0.337-0.25,0.67-0.355,1.015c-0.097,0.32-0.168,0.645-0.249,0.968
			c-0.089,0.351-0.187,0.698-0.258,1.056c-0.074,0.375-0.118,0.753-0.172,1.13c-0.044,0.311-0.104,0.618-0.135,0.933
			c-0.069,0.7-0.106,1.403-0.106,2.105v106.667c0,11.782,9.551,21.333,21.333,21.333c11.782,0,21.333-9.551,21.333-21.333V72.845
			L167.016,197.19c-11.169,16.862-17.679,37.079-17.679,58.818s6.51,41.956,17.679,58.818L42.671,439.172v-55.163
			c0-11.782-9.551-21.333-21.333-21.333c-11.782,0-21.333,9.551-21.333,21.333v106.667c0,0.703,0.037,1.405,0.106,2.105
			c0.031,0.315,0.09,0.621,0.135,0.933c0.054,0.377,0.098,0.756,0.173,1.13c0.071,0.358,0.169,0.704,0.258,1.055
			c0.081,0.324,0.152,0.649,0.249,0.969c0.104,0.344,0.233,0.677,0.354,1.013c0.115,0.32,0.22,0.642,0.35,0.957
			c0.13,0.315,0.284,0.616,0.429,0.923c0.153,0.324,0.297,0.651,0.467,0.969c0.158,0.294,0.337,0.573,0.508,0.859
			c0.186,0.311,0.362,0.627,0.565,0.931c0.211,0.316,0.446,0.612,0.673,0.916c0.19,0.254,0.366,0.514,0.569,0.761
			c0.443,0.54,0.91,1.059,1.403,1.552c0.004,0.004,0.006,0.008,0.01,0.011c0.004,0.004,0.008,0.007,0.012,0.011
			c0.493,0.492,1.012,0.959,1.551,1.402c0.247,0.203,0.507,0.379,0.76,0.568c0.304,0.227,0.601,0.463,0.917,0.674
			c0.303,0.203,0.618,0.379,0.93,0.565c0.286,0.171,0.565,0.35,0.86,0.508c0.318,0.17,0.645,0.314,0.969,0.467
			c0.307,0.145,0.609,0.298,0.923,0.428c0.315,0.13,0.636,0.235,0.956,0.35c0.337,0.121,0.67,0.25,1.015,0.355
			c0.32,0.097,0.645,0.168,0.968,0.249c0.351,0.089,0.698,0.187,1.056,0.258c0.375,0.074,0.753,0.118,1.13,0.172
			c0.311,0.044,0.618,0.104,0.933,0.135c0.7,0.069,1.402,0.106,2.104,0.106c0,0,0.001,0,0.001,0h106.667
			c11.782,0,21.333-9.551,21.333-21.333s-9.551-21.333-21.333-21.333H72.841l124.345-124.345
			c16.862,11.169,37.079,17.679,58.818,17.679s41.956-6.51,58.818-17.679l124.345,124.345h-55.164
			c-11.782,0-21.333,9.551-21.333,21.333s9.551,21.333,21.333,21.333H490.5c1.493,0.012,2.986-0.132,4.455-0.431
			c0.041-0.008,0.079-0.021,0.12-0.029c0.643-0.135,1.282-0.297,1.913-0.492c0.061-0.019,0.118-0.043,0.179-0.063
			c0.606-0.193,1.205-0.409,1.795-0.657c0.03-0.013,0.058-0.028,0.087-0.04c2.438-1.039,4.727-2.539,6.716-4.528
			s3.489-4.278,4.528-6.716c0.013-0.029,0.028-0.057,0.04-0.087C510.581,498.376,510.797,497.777,510.989,497.171z M210.861,301.367
			c-0.036-0.036-0.066-0.077-0.102-0.113s-0.076-0.066-0.113-0.102c-11.519-11.573-18.641-27.527-18.641-45.144
			s7.122-33.57,18.641-45.144c0.036-0.036,0.077-0.066,0.113-0.102s0.066-0.076,0.102-0.113
			c11.573-11.519,27.527-18.641,45.144-18.641c35.343,0,64,28.657,64,64s-28.657,64-64,64
			C238.387,320.009,222.434,312.886,210.861,301.367z"/>
	</g>
</g>
<g>
</g>
<g>
</g>
<g>
</g>
<g>
</g>
<g>
</g>
<g>
</g>
<g>
</g>
<g>
</g>
<g>
</g>
<g>
</g>
<g>
</g>
<g>
</g>
<g>
</g>
<g>
</g>
<g>
</g>
</svg>
