<svg xmlns="http://www.w3.org/2000/svg" xmlns:xlink="http://www.w3.org/1999/xlink" width="24" height="24" viewBox="0 0 24 24">
  <defs>
    <linearGradient id="linear-gradient" x1="0.5" x2="0.5" y2="1" gradientUnits="objectBoundingBox">
      <stop offset="0" stop-color="#5f784b"/>
      <stop offset="0.569" stop-color="#5f784b"/>
      <stop offset="1" stop-color="#102400"/>
    </linearGradient>
  </defs>
  <g id="metros" transform="translate(-9.001 -9.181)">
    <path id="Path_30" data-name="Path 30" d="M32.869,13.74,28.443,9.313a.451.451,0,0,0-.638,0L23.04,14.078h0l-2.286,2.286h0l-2.285,2.285h0l-8,8h0L9.133,27.985a.451.451,0,0,0,0,.638l4.426,4.426a.451.451,0,0,0,.638,0L32.869,14.378a.451.451,0,0,0,0-.638ZM13.878,32.092,10.09,28.3l.7-.7.933.933a.451.451,0,0,0,.638-.638l-.933-.933.5-.5.39.39a.451.451,0,0,0,.638-.638l-.39-.39.5-.5.933.933a.451.451,0,0,0,.638-.638l-.933-.933.5-.5.39.39a.451.451,0,0,0,.638-.638l-.39-.39.5-.5.933.933a.451.451,0,1,0,.638-.638L16,22.4l.5-.5.39.39a.451.451,0,0,0,.638-.638l-.39-.39.5-.5.933.933a.451.451,0,0,0,.638-.638l-.933-.933.5-.5.39.39a.451.451,0,1,0,.638-.638l-.39-.39.5-.5.933.933a.451.451,0,0,0,.638-.638l-.933-.933.5-.5.39.39a.451.451,0,1,0,.638-.638l-.39-.39.5-.5.933.933a.451.451,0,0,0,.638-.638l-.933-.933.5-.5.39.39a.451.451,0,0,0,.638-.638L24,14.4l.5-.5.933.933a.451.451,0,0,0,.638-.638l-.932-.933.5-.5.39.39a.451.451,0,0,0,.638-.638l-.39-.39.5-.5.933.933a.451.451,0,0,0,.638-.638l-.933-.933.7-.7,3.788,3.788L13.878,32.092Z" fill="url(#linear-gradient)"/>
    <path id="Path_31" data-name="Path 31" d="M460.692,106.707a.5.5,0,1,0-.355-.147A.5.5,0,0,0,460.692,106.707Z" transform="translate(-430.835 -92.166)" fill="url(#linear-gradient)"/>
  </g>
</svg>
