<svg xmlns="http://www.w3.org/2000/svg" xmlns:xlink="http://www.w3.org/1999/xlink" width="19.321" height="29.721" viewBox="0 0 19.321 29.721">
  <defs>
    <linearGradient id="linear-gradient" x1="0.5" x2="0.5" y2="1" gradientUnits="objectBoundingBox">
      <stop offset="0" stop-color="#5f784b"/>
      <stop offset="0.569" stop-color="#5f784b"/>
      <stop offset="1" stop-color="#102400"/>
    </linearGradient>
  </defs>
  <g id="precio" transform="translate(-449.276 -152.818)">
    <path id="Path_28" data-name="Path 28" d="M468.59,163.565a4.289,4.289,0,0,0-1.061-2.625l-7.309-7.571a1.788,1.788,0,0,0-2.583,0l-7.3,7.576a4.289,4.289,0,0,0-1.059,2.626l.007,17.127a1.843,1.843,0,0,0,1.841,1.84h0l15.633-.006a1.844,1.844,0,0,0,1.84-1.841Zm-1.277,17.684a.782.782,0,0,1-.556.232l-15.633.006v0a.789.789,0,0,1-.788-.788l-.007-17.127a3.249,3.249,0,0,1,.764-1.9l7.3-7.576a.736.736,0,0,1,1.068,0l7.309,7.571a3.249,3.249,0,0,1,.766,1.895l.007,17.127A.781.781,0,0,1,467.312,181.248Z" fill="url(#linear-gradient)"/>
    <path id="Path_29" data-name="Path 29" d="M831.88,464.32h0a2.809,2.809,0,1,0-2.81-2.808A2.812,2.812,0,0,0,831.881,464.32Zm0-4.565a1.756,1.756,0,0,1,0,3.513v0a1.756,1.756,0,0,1,0-3.513Zm2.48,9.429a.526.526,0,0,0,0-1.052h-1.949v-1.463a.526.526,0,0,0-1.052,0v1.463h-.07a2.408,2.408,0,0,0-2.4,2.4v.575a2.408,2.408,0,0,0,2.4,2.4h.07v3.279h-1.949a.526.526,0,1,0,0,1.052h1.949v1.463a.526.526,0,0,0,1.052,0v-1.463h.07a2.408,2.408,0,0,0,2.4-2.4v-.575a2.408,2.408,0,0,0-2.4-2.4h-.07v-3.279Zm-1.879,4.332a1.354,1.354,0,0,1,1.352,1.352v.575a1.354,1.354,0,0,1-1.352,1.352h-.07v-3.279Zm-1.123-1.052h-.07a1.354,1.354,0,0,1-1.352-1.352v-.575a1.354,1.354,0,0,1,1.352-1.352h.07Z" transform="translate(-372.948 -300.518)" fill="url(#linear-gradient)"/>
  </g>
</svg>
