<svg xmlns="http://www.w3.org/2000/svg" xmlns:xlink="http://www.w3.org/1999/xlink" width="26.95" height="18.915" viewBox="0 0 26.95 18.915">
  <defs>
    <linearGradient id="linear-gradient" x1="0.5" x2="0.5" y2="1" gradientUnits="objectBoundingBox">
      <stop offset="0" stop-color="#5f784b"/>
      <stop offset="0.569" stop-color="#5f784b"/>
      <stop offset="1" stop-color="#102400"/>
    </linearGradient>
  </defs>
  <path id="recamaras" d="M31.451,27.473h0V25.028a1.911,1.911,0,0,0-1.5-2.046V14.5a1.471,1.471,0,0,0-1.5-1.5H8.494A1.471,1.471,0,0,0,7,14.5v8.484a1.911,1.911,0,0,0-1.5,2.046v2.445h0a1.743,1.743,0,0,0-.5,1.2v.549a1.721,1.721,0,0,0,1.5,1.7v.5a.472.472,0,0,0,.5.5h1a.472.472,0,0,0,.5-.5v-.5H28.457v.5a.472.472,0,0,0,.5.5h1a.472.472,0,0,0,.5-.5v-.5a1.721,1.721,0,0,0,1.5-1.7v-.549A1.743,1.743,0,0,0,31.451,27.473ZM7.994,14.5a.472.472,0,0,1,.5-.5H28.457a.472.472,0,0,1,.5.5v8.484h-1V20.836a1.842,1.842,0,0,0-1.847-1.847H21.869a1.842,1.842,0,0,0-1.847,1.847v2.146H17.028V20.836a1.842,1.842,0,0,0-1.847-1.847H10.939a1.842,1.842,0,0,0-1.847,1.847v2.146h-1V14.5Zm18.965,8.484H20.97V20.836a.841.841,0,0,1,.848-.848h4.242a.841.841,0,0,1,.848.848v2.146Zm-10.98,0H9.991V20.836a.841.841,0,0,1,.848-.848h4.242a.841.841,0,0,1,.848.848v2.146Zm-8.784,1H29.754c.3,0,.7.449.7,1.048v1.946H6.5V25.028C6.5,24.429,6.847,23.98,7.2,23.98Zm23.756,5.29a.714.714,0,0,1-.7.7H6.7a.751.751,0,0,1-.7-.7v-.549a.76.76,0,0,1,.7-.749H30.2a.714.714,0,0,1,.7.7v.6Z" transform="translate(-5 -13)" fill="url(#linear-gradient)"/>
</svg>
