<svg xmlns="http://www.w3.org/2000/svg" xmlns:xlink="http://www.w3.org/1999/xlink" width="26.95" height="24.504" viewBox="0 0 26.95 24.504">
  <defs>
    <linearGradient id="linear-gradient" x1="0.5" x2="0.5" y2="1" gradientUnits="objectBoundingBox">
      <stop offset="0" stop-color="#5f784b"/>
      <stop offset="0.569" stop-color="#5f784b"/>
      <stop offset="1" stop-color="#102400"/>
    </linearGradient>
  </defs>
  <path id="tipodecredito" d="M3.037,17.24H16.069a.422.422,0,1,0,0-.844H3.037a.4.4,0,0,0-.422.422A.423.423,0,0,0,3.037,17.24ZM14.93,19.391a.4.4,0,0,0-.422-.422H3.037a.422.422,0,0,0,0,.844h11.43A.433.433,0,0,0,14.93,19.391ZM5.989,13.866a.422.422,0,1,0,0,.844h8.182a.422.422,0,1,0,0-.844h-.464v-4.6h.464a.405.405,0,0,0,.38-.3.476.476,0,0,0-.127-.464L10.333,5.135a.443.443,0,0,0-.548,0L5.694,8.509a.476.476,0,0,0-.127.464.405.405,0,0,0,.38.3h.464v4.555l-.422.042Zm4.808,0H9.363V11.5H10.8Zm-.717-7.8,2.91,2.4H7.17Zm2.784,3.205v4.555H11.64V11.04a.4.4,0,0,0-.422-.422H8.941a.4.4,0,0,0-.422.422v2.784H7.3V9.268ZM14.55,24.114H8.055a.422.422,0,1,0,0,.844h6.537a.4.4,0,0,0,.422-.422A.46.46,0,0,0,14.55,24.114ZM8.055,21.541a.422.422,0,0,0,0,.844h6.031a.422.422,0,0,0,0-.844Zm13.37-5.23a4.354,4.354,0,0,0-1.265.169V4.545A1.647,1.647,0,0,0,18.515,2.9H1.645A1.675,1.675,0,0,0,0,4.545V22.005a.383.383,0,0,0,.127.3L5.1,27.277a.383.383,0,0,0,.3.127H18.473a1.716,1.716,0,0,0,1.012-.337,5.558,5.558,0,0,0,7.465-5.23A5.49,5.49,0,0,0,21.425,16.312Zm-16.448,9.7L1.434,22.469H4.175a.8.8,0,0,1,.8.8Zm.844.59V23.271a1.647,1.647,0,0,0-1.645-1.645H.844V4.545a.8.8,0,0,1,.8-.8h16.87a.8.8,0,0,1,.8.8V16.691a5.586,5.586,0,0,0-3.458,5.145,5.526,5.526,0,0,0,2.657,4.724L5.82,26.6Zm15.6,0a4.724,4.724,0,1,1,4.724-4.724A4.716,4.716,0,0,1,21.425,26.6Zm.422-5.1v-1.94a.835.835,0,0,1,.464.464.406.406,0,1,0,.717-.38,1.7,1.7,0,0,0-1.223-.928V18.5a.422.422,0,1,0-.844,0v.211c-.127.042-.253.084-.422.127a1.827,1.827,0,0,0-.8,2.446,1.779,1.779,0,0,0,1.223.97V24.2a.835.835,0,0,1-.464-.464.406.406,0,0,0-.717.38,1.871,1.871,0,0,0,1.223.97V25.3a.422.422,0,1,0,.844,0v-.211c.127-.042.253-.084.422-.127a1.872,1.872,0,0,0-.422-3.458Zm-1.307-.59a1.019,1.019,0,0,1,.422-1.35H21v1.771A.767.767,0,0,1,20.539,20.909Zm1.307,3.247h0L21.8,22.385a.914.914,0,0,1,.464.422A.951.951,0,0,1,21.847,24.156Z" transform="translate(0 -2.9)" fill="url(#linear-gradient)"/>
</svg>
