<svg width="12" height="12" viewBox="0 0 12 12" fill="none" xmlns="http://www.w3.org/2000/svg">
<path d="M2.89568 7.77382L1.46582 9.23855L0.0359662 7.77382C0.0187888 7.7562 0.00709348 7.73376 0.00235718 7.70934C-0.00237911 7.68492 5.61411e-05 7.6596 0.00935534 7.6366C0.0186545 7.61359 0.0344006 7.59392 0.0546047 7.58008C0.0748089 7.56624 0.098565 7.55884 0.122873 7.55881H1.05589V1.67974H0.122873C0.098565 1.67971 0.0748089 1.67231 0.0546047 1.65847C0.0344006 1.64463 0.0186545 1.62496 0.00935534 1.60195C5.61411e-05 1.57895 -0.00237911 1.55363 0.00235718 1.52921C0.00709348 1.50479 0.0187888 1.48235 0.0359662 1.46473L1.46582 0L2.89568 1.46473C2.91285 1.48235 2.92455 1.50479 2.92929 1.52921C2.93402 1.55363 2.93159 1.57895 2.92229 1.60195C2.91299 1.62496 2.89724 1.64463 2.87704 1.65847C2.85683 1.67231 2.83308 1.67971 2.80877 1.67974H1.87576V7.55881H2.80877C2.83308 7.55884 2.85683 7.56624 2.87704 7.58008C2.89724 7.59392 2.91299 7.61359 2.92229 7.6366C2.93159 7.6596 2.93402 7.68492 2.92929 7.70934C2.92455 7.73376 2.91285 7.7562 2.89568 7.77382ZM10.0745 4.66799V7.55881H8.22976V5.24918C8.22976 5.19349 8.20816 5.14008 8.16973 5.10071C8.13129 5.06133 8.07915 5.03921 8.02479 5.03921H6.38505C6.33069 5.03921 6.27855 5.06133 6.24011 5.10071C6.20168 5.14008 6.18008 5.19349 6.18008 5.24918V7.55881H4.33537V4.66799L7.20492 2.90426L10.0745 4.66799Z" fill="#324D22"/>
<path d="M10.6852 4.30858L7.20485 2.16943L3.72654 4.30732C3.63332 4.36462 3.52168 4.38164 3.41621 4.35462C3.31073 4.32761 3.22005 4.25878 3.16411 4.16328C3.10818 4.06778 3.09156 3.95342 3.11793 3.84538C3.1443 3.73733 3.21149 3.64443 3.30472 3.58713L6.99414 1.31949C7.05785 1.28033 7.13075 1.25964 7.20505 1.25964C7.27935 1.25964 7.35225 1.28033 7.41596 1.31949L11.1074 3.58713C11.1536 3.61553 11.1938 3.65297 11.2259 3.6973C11.2579 3.74164 11.2811 3.792 11.2942 3.84552C11.3072 3.89904 11.3098 3.95467 11.3019 4.00923C11.2939 4.06378 11.2756 4.1162 11.2478 4.16349C11.2201 4.21078 11.1836 4.25201 11.1403 4.28483C11.097 4.31765 11.0478 4.34142 10.9956 4.35477C10.9434 4.36813 10.8891 4.37081 10.8358 4.36267C10.7825 4.35453 10.7314 4.33572 10.6852 4.30732V4.30858ZM10.2843 9.03368L11.7141 10.4984L10.2843 11.9631C10.2671 11.9807 10.2452 11.9927 10.2213 11.9976C10.1975 12.0024 10.1728 11.9999 10.1503 11.9904C10.1279 11.9809 10.1087 11.9647 10.0952 11.944C10.0816 11.9233 10.0744 11.899 10.0744 11.8741V10.9183H4.3353V11.8741C4.33528 11.899 4.32805 11.9233 4.31454 11.944C4.30102 11.9647 4.28182 11.9809 4.25937 11.9904C4.23691 11.9999 4.2122 12.0024 4.18836 11.9976C4.16451 11.9927 4.14261 11.9807 4.12541 11.9631L2.69556 10.4984L4.12541 9.03368C4.14261 9.01608 4.16451 9.0041 4.18836 8.99925C4.2122 8.9944 4.23691 8.99689 4.25937 9.00642C4.28182 9.01594 4.30102 9.03207 4.31454 9.05277C4.32805 9.07347 4.33528 9.0978 4.3353 9.1227V10.0785H10.0744V9.1227C10.0744 9.0978 10.0816 9.07347 10.0952 9.05277C10.1087 9.03207 10.1279 9.01594 10.1503 9.00642C10.1728 8.99689 10.1975 8.9944 10.2213 8.99925C10.2452 9.0041 10.2671 9.01608 10.2843 9.03368Z" fill="#324D22"/>
</svg>
