<svg width="18" height="12" viewBox="0 0 18 12" fill="none" xmlns="http://www.w3.org/2000/svg">
<path d="M17.1269 9.17717V7.62685C17.1551 7.3317 17.0718 7.03667 16.8928 6.7976C16.7139 6.55853 16.4516 6.392 16.1557 6.32953V0.951299C16.1582 0.82571 16.1348 0.70091 16.0869 0.584385C16.039 0.46786 15.9676 0.362012 15.8769 0.273189C15.7862 0.184367 15.6781 0.114401 15.5591 0.0674883C15.4401 0.0205759 15.3127 -0.00231636 15.1844 0.000184953H2.26235C2.13443 -0.00179866 2.00741 0.0214763 1.88887 0.0686203C1.77033 0.115764 1.66271 0.185811 1.57243 0.27458C1.48214 0.363349 1.41104 0.469021 1.36338 0.585289C1.31571 0.701556 1.29245 0.826036 1.29499 0.951299V6.3308C0.999077 6.39327 0.736811 6.5598 0.557828 6.79887C0.378846 7.03794 0.295566 7.33297 0.323748 7.62812V9.17844C0.11967 9.38169 0.00367822 9.6543 0 9.93933V10.2874C0.00105947 10.5518 0.100116 10.8069 0.278757 11.0051C0.457399 11.2034 0.703473 11.3314 0.971244 11.3654V11.6824C0.968595 11.7247 0.975154 11.7671 0.990487 11.8067C1.00582 11.8464 1.02958 11.8824 1.06018 11.9123C1.09079 11.9423 1.12755 11.9656 1.16803 11.9806C1.20851 11.9956 1.25179 12.002 1.29499 11.9994H1.94249C1.98569 12.002 2.02897 11.9956 2.06945 11.9806C2.10993 11.9656 2.14669 11.9423 2.1773 11.9123C2.2079 11.8824 2.23166 11.8464 2.24699 11.8067C2.26233 11.7671 2.26888 11.7247 2.26624 11.6824V11.3654H15.1883V11.6824C15.1857 11.7247 15.1922 11.7671 15.2076 11.8067C15.2229 11.8464 15.2466 11.8824 15.2773 11.9123C15.3079 11.9423 15.3446 11.9656 15.3851 11.9806C15.4256 11.9956 15.4689 12.002 15.5121 11.9994H16.1596C16.2028 12.002 16.246 11.9956 16.2865 11.9806C16.327 11.9656 16.3638 11.9423 16.3944 11.9123C16.425 11.8824 16.4487 11.8464 16.4641 11.8067C16.4794 11.7671 16.486 11.7247 16.4833 11.6824V11.3654C16.7511 11.3314 16.9971 11.2034 17.1758 11.0051C17.3544 10.8069 17.4535 10.5518 17.4545 10.2874V9.93933C17.4502 9.65333 17.3327 9.38013 17.1269 9.17717ZM1.9386 0.951299C1.93595 0.908989 1.94251 0.866612 1.95785 0.826971C1.97318 0.787331 1.99694 0.751332 2.02754 0.721358C2.05815 0.691384 2.09491 0.66812 2.13539 0.653105C2.17587 0.63809 2.21915 0.631667 2.26235 0.634261H15.1883C15.2315 0.631667 15.2748 0.63809 15.3153 0.653105C15.3558 0.66812 15.3925 0.691384 15.4231 0.721358C15.4537 0.751332 15.4775 0.787331 15.4928 0.826971C15.5081 0.866612 15.5147 0.908989 15.5121 0.951299V6.3308H14.8646V4.9688C14.865 4.81489 14.8343 4.66241 14.7744 4.52014C14.7144 4.37786 14.6264 4.24859 14.5152 4.13975C14.4041 4.03092 14.2721 3.94467 14.1268 3.88596C13.9815 3.82725 13.8258 3.79725 13.6686 3.79767H10.9226C10.7654 3.79725 10.6097 3.82725 10.4644 3.88596C10.3192 3.94467 10.1871 4.03092 10.076 4.13975C9.96487 4.24859 9.8768 4.37786 9.81685 4.52014C9.7569 4.66241 9.72626 4.81489 9.72668 4.9688V6.32953H7.78808V4.9688C7.78851 4.81489 7.75787 4.66241 7.69792 4.52014C7.63797 4.37786 7.54989 4.24859 7.43875 4.13975C7.32762 4.03092 7.19561 3.94467 7.05032 3.88596C6.90503 3.82725 6.74933 3.79725 6.59216 3.79767H3.84548C3.68831 3.79725 3.5326 3.82725 3.38731 3.88596C3.24202 3.94467 3.11002 4.03092 2.99888 4.13975C2.88774 4.24859 2.79967 4.37786 2.73972 4.52014C2.67977 4.66241 2.64913 4.81489 2.64955 4.9688V6.32953H2.00206V0.951299H1.9386ZM14.2184 6.3308H10.3405V4.9688C10.3399 4.89803 10.3537 4.82784 10.3811 4.76234C10.4085 4.69684 10.4489 4.63732 10.5 4.58728C10.5511 4.53723 10.6119 4.49764 10.6788 4.47083C10.7456 4.44402 10.8173 4.43052 10.8896 4.43111H13.6363C13.7085 4.43052 13.7802 4.44402 13.8471 4.47083C13.914 4.49764 13.9748 4.53723 14.0259 4.58728C14.077 4.63732 14.1174 4.69684 14.1448 4.76234C14.1722 4.82784 14.1859 4.89803 14.1853 4.9688V6.32953L14.2184 6.3308ZM7.10886 6.3308H3.23165V4.9688C3.23105 4.89803 3.24484 4.82784 3.27222 4.76234C3.2996 4.69684 3.34002 4.63732 3.39113 4.58728C3.44223 4.53723 3.503 4.49764 3.56989 4.47083C3.63678 4.44402 3.70845 4.43052 3.78073 4.43111H6.52741C6.59968 4.43052 6.67135 4.44402 6.73824 4.47083C6.80513 4.49764 6.8659 4.53723 6.91701 4.58728C6.96812 4.63732 7.00854 4.69684 7.03592 4.76234C7.0633 4.82784 7.07709 4.89803 7.07648 4.9688V6.32953L7.10886 6.3308ZM1.42125 6.96488H16.0281C16.2224 6.96488 16.4814 7.24958 16.4814 7.62939V8.8633H0.971244V7.62685C0.971244 7.24704 1.19592 6.96234 1.42449 6.96234L1.42125 6.96488ZM16.8032 10.3191C16.8008 10.4361 16.7523 10.5477 16.6678 10.6305C16.5833 10.7132 16.4694 10.7607 16.3499 10.763H1.10074C0.983083 10.7554 0.872248 10.7062 0.788869 10.6245C0.70549 10.5429 0.655248 10.4344 0.647496 10.3191V9.97103C0.648891 9.85076 0.696167 9.73534 0.780035 9.64746C0.863902 9.55958 0.978297 9.5056 1.10074 9.49611H16.3169C16.4364 9.49838 16.5503 9.54587 16.6348 9.62862C16.7193 9.71138 16.7678 9.82296 16.7701 9.93996V10.3204L16.8032 10.3191Z" fill="#324D22"/>
</svg>
